Pretension2VF-Italic.ufo
<glyph name="ampersand" format="2">
  <advance width="1319"/>
  <unicode hex="0026"/>
  <outline>
    <contour>
      <point x="483" y="-20" type="qcurve" smooth="yes"/>
      <point x="336" y="-20"/>
      <point x="141" y="88"/>
      <point x="57" y="276"/>
      <point x="77" y="396" type="qcurve" smooth="yes"/>
      <point x="92" y="489"/>
      <point x="195" y="632"/>
      <point x="355" y="756"/>
      <point x="456" y="818" type="qcurve"/>
      <point x="704" y="980" type="line"/>
      <point x="772" y="1021"/>
      <point x="862" y="1115"/>
      <point x="875" y="1188" type="qcurve"/>
      <point x="883" y="1244"/>
      <point x="803" y="1349"/>
      <point x="724" y="1349" type="qcurve" smooth="yes"/>
      <point x="669" y="1349"/>
      <point x="575" y="1294"/>
      <point x="512" y="1209"/>
      <point x="504" y="1162" type="qcurve" smooth="yes"/>
      <point x="495" y="1110"/>
      <point x="534" y="1004"/>
      <point x="606" y="893"/>
      <point x="646" y="832" type="qcurve" smooth="yes"/>
      <point x="1192" y="0" type="line"/>
      <point x="977" y="0" type="line"/>
      <point x="523" y="678" type="line" smooth="yes"/>
      <point x="464" y="767"/>
      <point x="363" y="920"/>
      <point x="311" y="1074"/>
      <point x="325" y="1162" type="qcurve" smooth="yes"/>
      <point x="341" y="1264"/>
      <point x="457" y="1418"/>
      <point x="635" y="1504"/>
      <point x="745" y="1504" type="qcurve" smooth="yes"/>
      <point x="857" y="1504"/>
      <point x="1006" y="1417"/>
      <point x="1070" y="1274"/>
      <point x="1055" y="1189" type="qcurve"/>
      <point x="1038" y="1083"/>
      <point x="906" y="926"/>
      <point x="803" y="858" type="qcurve" smooth="yes"/>
      <point x="470" y="637" type="line" smooth="yes"/>
      <point x="361" y="564"/>
      <point x="266" y="428"/>
      <point x="262" y="397" type="qcurve"/>
      <point x="251" y="329"/>
      <point x="302" y="210"/>
      <point x="420" y="137"/>
      <point x="508" y="137" type="qcurve" smooth="yes"/>
      <point x="591" y="137"/>
      <point x="762" y="210"/>
      <point x="913" y="346"/>
      <point x="1021" y="538"/>
      <point x="1040" y="658" type="qcurve"/>
      <point x="1213" y="658" type="line"/>
      <point x="1189" y="510"/>
      <point x="1093" y="322"/>
      <point x="991" y="213"/>
      <point x="957" y="182" type="qcurve"/>
      <point x="946" y="171"/>
      <point x="919" y="148"/>
      <point x="908" y="137" type="qcurve"/>
      <point x="822" y="58"/>
      <point x="590" y="-20"/>
    </contour>
  </outline>
</glyph>
<glyph name="three.ss01" format="2">
  <advance width="1318"/>
  <unicode hex="0033"/>
  <unicode hex="E06D"/>
  <anchor x="990" y="1490" name="m.uni030F_1"/>
  <outline>
    <contour>
      <point x="580" y="-20" type="qcurve" smooth="yes"/>
      <point x="445" y="-20"/>
      <point x="228" y="74"/>
      <point x="109" y="252"/>
      <point x="121" y="376" type="qcurve"/>
      <point x="315" y="376" type="line"/>
      <point x="311" y="302"/>
      <point x="377" y="199"/>
      <point x="502" y="147"/>
      <point x="587" y="147" type="qcurve" smooth="yes"/>
      <point x="677" y="147"/>
      <point x="836" y="207"/>
      <point x="947" y="328"/>
      <point x="962" y="419" type="qcurve" smooth="yes"/>
      <point x="976" y="499"/>
      <point x="932" y="636"/>
      <point x="790" y="721"/>
      <point x="654" y="721" type="qcurve" smooth="yes"/>
      <point x="506" y="721" type="line"/>
      <point x="531" y="872" type="line"/>
      <point x="980" y="1311" type="line"/>
      <point x="982" y="1323" type="line"/>
      <point x="351" y="1323" type="line"/>
      <point x="380" y="1490" type="line"/>
      <point x="1271" y="1490" type="line"/>
      <point x="1247" y="1351" type="line"/>
      <point x="688" y="810" type="line"/>
      <point x="692" y="841" type="line"/>
      <point x="856" y="858"/>
      <point x="1075" y="749"/>
      <point x="1172" y="546"/>
      <point x="1151" y="419" type="qcurve" smooth="yes"/>
      <point x="1130" y="293"/>
      <point x="975" y="94"/>
      <point x="732" y="-20"/>
    </contour>
  </outline>
</glyph>
<glyph name="six.ss01" format="2">
  <advance width="1189"/>
  <unicode hex="0036"/>
  <unicode hex="E06F"/>
  <outline>
    <contour>
      <point x="500" y="-20" type="qcurve" smooth="yes"/>
      <point x="362" y="-20"/>
      <point x="169" y="106"/>
      <point x="84" y="329"/>
      <point x="107" y="472" type="qcurve" smooth="yes"/>
      <point x="119" y="543"/>
      <point x="183" y="693"/>
      <point x="307" y="875"/>
      <point x="406" y="993" type="qcurve" smooth="yes"/>
      <point x="825" y="1490" type="line"/>
      <point x="1030" y="1490" type="line"/>
      <point x="412" y="763" type="line"/>
      <point x="393" y="763" type="line"/>
      <point x="420" y="805"/>
      <point x="508" y="874"/>
      <point x="618" y="915"/>
      <point x="678" y="915" type="qcurve" smooth="yes"/>
      <point x="815" y="915"/>
      <point x="998" y="801"/>
      <point x="1074" y="595"/>
      <point x="1051" y="457" type="qcurve" smooth="yes"/>
      <point x="1028" y="319"/>
      <point x="870" y="104"/>
      <point x="637" y="-20"/>
    </contour>
    <contour>
      <point x="526" y="143" type="qcurve" smooth="yes"/>
      <point x="612" y="143"/>
      <point x="757" y="225"/>
      <point x="855" y="367"/>
      <point x="870" y="458" type="qcurve" smooth="yes"/>
      <point x="886" y="552"/>
      <point x="834" y="694"/>
      <point x="716" y="773"/>
      <point x="630" y="773" type="qcurve" smooth="yes"/>
      <point x="545" y="773"/>
      <point x="400" y="695"/>
      <point x="301" y="555"/>
      <point x="285" y="462" type="qcurve" smooth="yes"/>
      <point x="270" y="369"/>
      <point x="321" y="225"/>
      <point x="440" y="143"/>
    </contour>
  </outline>
</glyph>
<glyph name="nine.ss01" format="2">
  <advance width="1188"/>
  <unicode hex="0039"/>
  <unicode hex="E070"/>
  <outline>
    <contour>
      <point x="750" y="1510" type="qcurve" smooth="yes"/>
      <point x="889" y="1510"/>
      <point x="1082" y="1384"/>
      <point x="1167" y="1162"/>
      <point x="1143" y="1018" type="qcurve" smooth="yes"/>
      <point x="1132" y="948"/>
      <point x="1067" y="797"/>
      <point x="944" y="615"/>
      <point x="844" y="497" type="qcurve" smooth="yes"/>
      <point x="425" y="0" type="line"/>
      <point x="220" y="0" type="line"/>
      <point x="838" y="727" type="line"/>
      <point x="857" y="727" type="line"/>
      <point x="830" y="685"/>
      <point x="742" y="616"/>
      <point x="633" y="575"/>
      <point x="572" y="575" type="qcurve" smooth="yes"/>
      <point x="435" y="575"/>
      <point x="252" y="689"/>
      <point x="176" y="895"/>
      <point x="199" y="1033" type="qcurve" smooth="yes"/>
      <point x="222" y="1171"/>
      <point x="380" y="1387"/>
      <point x="614" y="1510"/>
    </contour>
    <contour>
      <point x="724" y="1347" type="qcurve" smooth="yes"/>
      <point x="638" y="1347"/>
      <point x="493" y="1265"/>
      <point x="395" y="1123"/>
      <point x="380" y="1032" type="qcurve" smooth="yes"/>
      <point x="365" y="938"/>
      <point x="416" y="796"/>
      <point x="535" y="717"/>
      <point x="620" y="717" type="qcurve" smooth="yes"/>
      <point x="705" y="717"/>
      <point x="850" y="795"/>
      <point x="950" y="935"/>
      <point x="965" y="1028" type="qcurve" smooth="yes"/>
      <point x="981" y="1121"/>
      <point x="929" y="1265"/>
      <point x="810" y="1347"/>
    </contour>
  </outline>
</glyph>
<glyph name="f" format="2">
  <advance width="764"/>
  <unicode hex="0066"/>
  <anchor x="468" y="0" name="m.uni0326"/>
  <anchor x="919" y="1597" name="m.uni030F_1"/>
  <outline>
    <contour>
      <point x="780" y="1118" type="line"/>
      <point x="756" y="972" type="line"/>
      <point x="89" y="972" type="line"/>
      <point x="113" y="1118" type="line"/>
    </contour>
    <contour>
      <point x="-56" y="-448" type="qcurve" smooth="yes"/>
      <point x="-77" y="-448"/>
      <point x="-118" y="-444"/>
      <point x="-155" y="-437"/>
      <point x="-173" y="-431" type="qcurve"/>
      <point x="-128" y="-270" type="line"/>
      <point x="-114" y="-275"/>
      <point x="-46" y="-282"/>
      <point x="-33" y="-282" type="qcurve" smooth="yes"/>
      <point x="39" y="-282"/>
      <point x="122" y="-203"/>
      <point x="136" y="-117" type="qcurve" smooth="yes"/>
      <point x="353" y="1195" type="line" smooth="yes"/>
      <point x="373" y="1313"/>
      <point x="477" y="1476"/>
      <point x="641" y="1560"/>
      <point x="749" y="1560" type="qcurve" smooth="yes"/>
      <point x="788" y="1560"/>
      <point x="858" y="1548"/>
      <point x="894" y="1540" type="qcurve"/>
      <point x="844" y="1386" type="line"/>
      <point x="827" y="1390"/>
      <point x="753" y="1394"/>
      <point x="723" y="1394" type="qcurve" smooth="yes"/>
      <point x="643" y="1394"/>
      <point x="551" y="1298"/>
      <point x="534" y="1198" type="qcurve" smooth="yes"/>
      <point x="317" y="-116" type="line" smooth="yes"/>
      <point x="299" y="-225"/>
      <point x="201" y="-373"/>
      <point x="46" y="-448"/>
    </contour>
  </outline>
</glyph>
<glyph name="l.ss02" format="2">
  <advance width="566"/>
  <unicode hex="006C"/>
  <unicode hex="E050"/>
  <anchor x="361" y="0" name="m.uni0326"/>
  <anchor x="565" y="1490" name="m.uni030F_1"/>
  <outline>
    <contour>
      <point x="316" y="-8" type="qcurve" smooth="yes"/>
      <point x="190" y="-8"/>
      <point x="87" y="126"/>
      <point x="107" y="248" type="qcurve" smooth="yes"/>
      <point x="313" y="1490" type="line"/>
      <point x="494" y="1490" type="line"/>
      <point x="295" y="293" type="line" smooth="yes"/>
      <point x="282" y="217"/>
      <point x="308" y="153"/>
      <point x="365" y="153" type="qcurve" smooth="yes"/>
      <point x="394" y="153"/>
      <point x="425" y="157"/>
      <point x="438" y="161" type="qcurve"/>
      <point x="449" y="9" type="line"/>
      <point x="427" y="3"/>
      <point x="356" y="-8"/>
    </contour>
  </outline>
</glyph>
<glyph name="u" format="2">
  <advance width="1212"/>
  <unicode hex="0075"/>
  <anchor x="710" y="0" name="m.uni0326"/>
  <anchor x="881" y="1180" name="m.uni030F_1"/>
  <anchor x="1375" y="0" name="m.uni0328_4"/>
  <outline>
    <contour>
      <point x="443" y="-14" type="qcurve" smooth="yes"/>
      <point x="331" y="-14"/>
      <point x="176" y="78"/>
      <point x="111" y="266"/>
      <point x="134" y="408" type="qcurve" smooth="yes"/>
      <point x="251" y="1118" type="line"/>
      <point x="431" y="1118" type="line"/>
      <point x="317" y="423" type="line" smooth="yes"/>
      <point x="296" y="295"/>
      <point x="405" y="148"/>
      <point x="523" y="148" type="qcurve" smooth="yes"/>
      <point x="602" y="148"/>
      <point x="741" y="217"/>
      <point x="839" y="351"/>
      <point x="855" y="448" type="qcurve" smooth="yes"/>
      <point x="965" y="1118" type="line"/>
      <point x="1146" y="1118" type="line"/>
      <point x="961" y="0" type="line"/>
      <point x="787" y="0" type="line"/>
      <point x="832" y="271" type="line"/>
      <point x="856" y="271" type="line"/>
      <point x="779" y="114"/>
      <point x="567" y="-14"/>
    </contour>
  </outline>
</glyph>
<glyph name="w" format="2">
  <advance width="1676"/>
  <unicode hex="0077"/>
  <anchor x="986" y="0" name="m.uni0326"/>
  <anchor x="1189" y="1180" name="m.uni030F_1"/>
  <outline>
    <contour>
      <point x="317" y="0" type="line"/>
      <point x="163" y="1118" type="line"/>
      <point x="354" y="1118" type="line"/>
      <point x="409" y="630" type="line" smooth="yes"/>
      <point x="420" y="530"/>
      <point x="442" y="278"/>
      <point x="448" y="117" type="qcurve"/>
      <point x="417" y="117" type="line"/>
      <point x="472" y="270"/>
      <point x="575" y="523"/>
      <point x="622" y="630" type="qcurve" smooth="yes"/>
      <point x="837" y="1118" type="line"/>
      <point x="1029" y="1118" type="line"/>
      <point x="1080" y="630" type="line" smooth="yes"/>
      <point x="1091" y="530"/>
      <point x="1110" y="278"/>
      <point x="1115" y="117" type="qcurve"/>
      <point x="1083" y="117" type="line"/>
      <point x="1139" y="271"/>
      <point x="1243" y="522"/>
      <point x="1291" y="630" type="qcurve" smooth="yes"/>
      <point x="1508" y="1118" type="line"/>
      <point x="1699" y="1118" type="line"/>
      <point x="1175" y="0" type="line"/>
      <point x="996" y="0" type="line"/>
      <point x="935" y="506" type="line" smooth="yes"/>
      <point x="927" y="577"/>
      <point x="911" y="735"/>
      <point x="898" y="908"/>
      <point x="892" y="998" type="qcurve"/>
      <point x="931" y="998" type="line"/>
      <point x="896" y="909"/>
      <point x="825" y="738"/>
      <point x="757" y="578"/>
      <point x="724" y="505" type="qcurve" smooth="yes"/>
      <point x="496" y="0" type="line"/>
    </contour>
  </outline>
</glyph>
<glyph name="braceleft" format="2">
  <advance width="875"/>
  <unicode hex="007B"/>
  <outline>
    <contour>
      <point x="160" y="646" type="qcurve"/>
      <point x="175" y="741" type="line"/>
      <point x="298" y="741"/>
      <point x="412" y="842"/>
      <point x="431" y="960" type="qcurve" smooth="yes"/>
      <point x="469" y="1190" type="line" smooth="yes"/>
      <point x="486" y="1292"/>
      <point x="551" y="1440"/>
      <point x="657" y="1535"/>
      <point x="812" y="1581"/>
      <point x="920" y="1581" type="qcurve"/>
      <point x="895" y="1430" type="line"/>
      <point x="768" y="1431"/>
      <point x="655" y="1312"/>
      <point x="634" y="1187" type="qcurve" smooth="yes"/>
      <point x="586" y="901" type="line" smooth="yes"/>
      <point x="577" y="845"/>
      <point x="532" y="752"/>
      <point x="439" y="683"/>
      <point x="282" y="646"/>
    </contour>
    <contour>
      <point x="612" y="-279" type="line"/>
      <point x="506" y="-279"/>
      <point x="365" y="-234"/>
      <point x="290" y="-140"/>
      <point x="273" y="9"/>
      <point x="290" y="112" type="qcurve" smooth="yes"/>
      <point x="328" y="340" type="line" smooth="yes"/>
      <point x="348" y="457"/>
      <point x="269" y="560"/>
      <point x="146" y="561" type="qcurve"/>
      <point x="162" y="656" type="line"/>
      <point x="282" y="656"/>
      <point x="427" y="618"/>
      <point x="497" y="550"/>
      <point x="512" y="456"/>
      <point x="503" y="399" type="qcurve" smooth="yes"/>
      <point x="456" y="115" type="line" smooth="yes"/>
      <point x="435" y="-12"/>
      <point x="511" y="-130"/>
      <point x="638" y="-130" type="qcurve"/>
    </contour>
    <contour>
      <point x="146" y="560" type="line"/>
      <point x="176" y="742" type="line"/>
      <point x="356" y="742" type="line"/>
      <point x="325" y="560" type="line"/>
    </contour>
  </outline>
</glyph>
<glyph name="braceright" format="2">
  <advance width="874"/>
  <unicode hex="007D"/>
  <outline>
    <contour>
      <point x="743" y="646" type="line"/>
      <point x="621" y="646"/>
      <point x="475" y="683"/>
      <point x="406" y="752"/>
      <point x="392" y="845"/>
      <point x="401" y="901" type="qcurve" smooth="yes"/>
      <point x="449" y="1187" type="line" smooth="yes"/>
      <point x="470" y="1312"/>
      <point x="395" y="1431"/>
      <point x="267" y="1430" type="qcurve"/>
      <point x="292" y="1581" type="line"/>
      <point x="400" y="1581"/>
      <point x="541" y="1535"/>
      <point x="615" y="1440"/>
      <point x="632" y="1292"/>
      <point x="615" y="1190" type="qcurve" smooth="yes"/>
      <point x="577" y="960" type="line" smooth="yes"/>
      <point x="558" y="842"/>
      <point x="636" y="741"/>
      <point x="758" y="741" type="qcurve"/>
    </contour>
    <contour>
      <point x="-16" y="-279" type="qcurve"/>
      <point x="9" y="-130" type="line"/>
      <point x="136" y="-130"/>
      <point x="250" y="-12"/>
      <point x="271" y="115" type="qcurve" smooth="yes"/>
      <point x="318" y="399" type="line" smooth="yes"/>
      <point x="327" y="456"/>
      <point x="373" y="550"/>
      <point x="466" y="618"/>
      <point x="623" y="656"/>
      <point x="744" y="656" type="qcurve"/>
      <point x="729" y="561" type="line"/>
      <point x="605" y="560"/>
      <point x="493" y="456"/>
      <point x="474" y="340" type="qcurve" smooth="yes"/>
      <point x="437" y="112" type="line" smooth="yes"/>
      <point x="421" y="10"/>
      <point x="356" y="-137"/>
      <point x="250" y="-233"/>
      <point x="93" y="-279"/>
    </contour>
    <contour>
      <point x="729" y="561" type="line"/>
      <point x="550" y="560" type="line"/>
      <point x="580" y="742" type="line"/>
      <point x="758" y="741" type="line"/>
    </contour>
  </outline>
</glyph>
<glyph name="asciitilde" format="2">
  <advance width="1356"/>
  <unicode hex="007E"/>
  <outline>
    <contour>
      <point x="148" y="439" type="line"/>
      <point x="167" y="562"/>
      <point x="271" y="712"/>
      <point x="413" y="780"/>
      <point x="489" y="780" type="qcurve" smooth="yes"/>
      <point x="563" y="780"/>
      <point x="675" y="717"/>
      <point x="745" y="647" type="qcurve" smooth="yes"/>
      <point x="791" y="601"/>
      <point x="853" y="563"/>
      <point x="891" y="563" type="qcurve" smooth="yes"/>
      <point x="954" y="563"/>
      <point x="1041" y="653"/>
      <point x="1054" y="740" type="qcurve"/>
      <point x="1216" y="740" type="line"/>
      <point x="1199" y="619"/>
      <point x="1096" y="472"/>
      <point x="954" y="405"/>
      <point x="877" y="405" type="qcurve" smooth="yes"/>
      <point x="802" y="405"/>
      <point x="692" y="472"/>
      <point x="624" y="539" type="qcurve" smooth="yes"/>
      <point x="578" y="585"/>
      <point x="512" y="616"/>
      <point x="473" y="616" type="qcurve" smooth="yes"/>
      <point x="415" y="616"/>
      <point x="327" y="535"/>
      <point x="312" y="439" type="qcurve"/>
    </contour>
  </outline>
</glyph>
<glyph name="exclamdown" format="2">
  <advance width="589"/>
  <unicode hex="00A1"/>
  <outline>
    <contour>
      <point x="401" y="650" type="line"/>
      <point x="245" y="-361" type="line"/>
      <point x="41" y="-361" type="line"/>
      <point x="222" y="650" type="line"/>
    </contour>
    <contour>
      <point x="391" y="1142" type="qcurve" smooth="yes"/>
      <point x="447" y="1142"/>
      <point x="513" y="1064"/>
      <point x="504" y="1008" type="qcurve" smooth="yes"/>
      <point x="494" y="952"/>
      <point x="403" y="873"/>
      <point x="347" y="873" type="qcurve" smooth="yes"/>
      <point x="292" y="873"/>
      <point x="225" y="952"/>
      <point x="235" y="1008" type="qcurve" smooth="yes"/>
      <point x="244" y="1064"/>
      <point x="336" y="1142"/>
    </contour>
  </outline>
</glyph>
<glyph name="cent" format="2">
  <advance width="1171"/>
  <unicode hex="00A2"/>
  <anchor x="669" y="165" name="m.uni0326"/>
  <anchor x="883" y="1345" name="m.uni030F_1"/>
  <anchor x="673" y="165" name="m.uni0327_3"/>
  <outline>
    <contour>
      <point x="451" y="0" type="line"/>
      <point x="698" y="1490" type="line"/>
      <point x="816" y="1490" type="line"/>
      <point x="569" y="0" type="line"/>
    </contour>
    <contour>
      <point x="560" y="166" type="qcurve" smooth="yes"/>
      <point x="425" y="166"/>
      <point x="231" y="279"/>
      <point x="126" y="485"/>
      <point x="126" y="623" type="qcurve" smooth="yes"/>
      <point x="126" y="756"/>
      <point x="209" y="1006"/>
      <point x="365" y="1205"/>
      <point x="588" y="1322"/>
      <point x="729" y="1322" type="qcurve" smooth="yes"/>
      <point x="812" y="1322"/>
      <point x="953" y="1279"/>
      <point x="1060" y="1197"/>
      <point x="1128" y="1081"/>
      <point x="1139" y="1008" type="qcurve"/>
      <point x="963" y="969" type="line"/>
      <point x="958" y="1012"/>
      <point x="922" y="1082"/>
      <point x="862" y="1133"/>
      <point x="779" y="1161"/>
      <point x="725" y="1161" type="qcurve" smooth="yes"/>
      <point x="623" y="1161"/>
      <point x="467" y="1065"/>
      <point x="360" y="907"/>
      <point x="306" y="718"/>
      <point x="306" y="625" type="qcurve" smooth="yes"/>
      <point x="306" y="542"/>
      <point x="359" y="406"/>
      <point x="473" y="327"/>
      <point x="564" y="327" type="qcurve" smooth="yes"/>
      <point x="622" y="327"/>
      <point x="725" y="359"/>
      <point x="810" y="416"/>
      <point x="874" y="493"/>
      <point x="893" y="538" type="qcurve"/>
      <point x="1059" y="480" type="line"/>
      <point x="1025" y="406"/>
      <point x="921" y="290"/>
      <point x="791" y="209"/>
      <point x="641" y="166"/>
    </contour>
  </outline>
</glyph>
<glyph name="section" format="2">
  <advance width="1135"/>
  <unicode hex="00A7"/>
  <outline>
    <contour>
      <point x="1029" y="1137" type="qcurve"/>
      <point x="855" y="1137" type="line"/>
      <point x="870" y="1229"/>
      <point x="793" y="1348"/>
      <point x="693" y="1348" type="qcurve" smooth="yes"/>
      <point x="630" y="1348"/>
      <point x="542" y="1302"/>
      <point x="491" y="1232"/>
      <point x="484" y="1196" type="qcurve" smooth="yes"/>
      <point x="476" y="1153"/>
      <point x="512" y="1077"/>
      <point x="575" y="1018"/>
      <point x="606" y="998" type="qcurve" smooth="yes"/>
      <point x="863" y="835" type="line" smooth="yes"/>
      <point x="890" y="818"/>
      <point x="954" y="764"/>
      <point x="1008" y="686"/>
      <point x="1034" y="582"/>
      <point x="1022" y="514" type="qcurve" smooth="yes"/>
      <point x="1012" y="458"/>
      <point x="936" y="352"/>
      <point x="831" y="273"/>
      <point x="776" y="256" type="qcurve"/>
      <point x="776" y="254" type="line"/>
      <point x="824" y="205"/>
      <point x="852" y="83"/>
      <point x="841" y="15" type="qcurve" smooth="yes"/>
      <point x="824" y="-91"/>
      <point x="696" y="-233"/>
      <point x="514" y="-302"/>
      <point x="414" y="-302" type="qcurve" smooth="yes"/>
      <point x="298" y="-302"/>
      <point x="132" y="-211"/>
      <point x="57" y="-42"/>
      <point x="76" y="74" type="qcurve"/>
      <point x="252" y="74" type="line"/>
      <point x="235" y="-30"/>
      <point x="345" y="-140"/>
      <point x="442" y="-140" type="qcurve" smooth="yes"/>
      <point x="522" y="-140"/>
      <point x="654" y="-62"/>
      <point x="667" y="15" type="qcurve" smooth="yes"/>
      <point x="676" y="69"/>
      <point x="639" y="142"/>
      <point x="576" y="192"/>
      <point x="544" y="212" type="qcurve" smooth="yes"/>
      <point x="290" y="373" type="line" smooth="yes"/>
      <point x="263" y="390"/>
      <point x="198" y="445"/>
      <point x="143" y="524"/>
      <point x="117" y="631"/>
      <point x="129" y="699" type="qcurve" smooth="yes"/>
      <point x="139" y="752"/>
      <point x="209" y="858"/>
      <point x="313" y="940"/>
      <point x="374" y="956" type="qcurve"/>
      <point x="374" y="961" type="line"/>
      <point x="336" y="1008"/>
      <point x="298" y="1124"/>
      <point x="309" y="1194" type="qcurve"/>
      <point x="325" y="1285"/>
      <point x="440" y="1428"/>
      <point x="615" y="1510"/>
      <point x="720" y="1510" type="qcurve" smooth="yes"/>
      <point x="834" y="1510"/>
      <point x="984" y="1414"/>
      <point x="1046" y="1246"/>
    </contour>
    <contour>
      <point x="855" y="513" type="qcurve" smooth="yes"/>
      <point x="862" y="554"/>
      <point x="835" y="622"/>
      <point x="782" y="677"/>
      <point x="749" y="698" type="qcurve" smooth="yes"/>
      <point x="496" y="859" type="line" smooth="yes"/>
      <point x="469" y="877"/>
      <point x="382" y="844"/>
      <point x="307" y="759"/>
      <point x="296" y="699" type="qcurve" smooth="yes"/>
      <point x="284" y="631"/>
      <point x="352" y="542"/>
      <point x="403" y="510" type="qcurve" smooth="yes"/>
      <point x="645" y="357" type="line" smooth="yes"/>
      <point x="674" y="339"/>
      <point x="766" y="373"/>
      <point x="846" y="457"/>
    </contour>
  </outline>
</glyph>
<glyph name="copyright" format="2">
  <advance width="1874"/>
  <unicode hex="00A9"/>
  <outline>
    <contour>
      <point x="542" y="744" type="qcurve" smooth="yes"/>
      <point x="562" y="864"/>
      <point x="711" y="1060"/>
      <point x="927" y="1177"/>
      <point x="1046" y="1176" type="qcurve"/>
      <point x="1149" y="1177"/>
      <point x="1310" y="1088"/>
      <point x="1400" y="935"/>
      <point x="1398" y="838" type="qcurve"/>
      <point x="1222" y="838" type="line"/>
      <point x="1220" y="913"/>
      <point x="1119" y="1008"/>
      <point x="1032" y="1008" type="qcurve" smooth="yes"/>
      <point x="961" y="1008"/>
      <point x="823" y="941"/>
      <point x="724" y="822"/>
      <point x="712" y="744" type="qcurve" smooth="yes"/>
      <point x="701" y="677"/>
      <point x="744" y="556"/>
      <point x="844" y="482"/>
      <point x="916" y="482" type="qcurve"/>
      <point x="1001" y="481"/>
      <point x="1148" y="578"/>
      <point x="1176" y="652" type="qcurve"/>
      <point x="1352" y="652" type="line"/>
      <point x="1323" y="555"/>
      <point x="1189" y="402"/>
      <point x="1007" y="313"/>
      <point x="904" y="312" type="qcurve"/>
      <point x="785" y="313"/>
      <point x="607" y="429"/>
      <point x="523" y="625"/>
    </contour>
    <contour>
      <point x="847" y="-24" type="qcurve" smooth="yes"/>
      <point x="689" y="-24"/>
      <point x="431" y="95"/>
      <point x="253" y="306"/>
      <point x="179" y="584"/>
      <point x="206" y="743" type="qcurve" smooth="yes"/>
      <point x="233" y="902"/>
      <point x="398" y="1180"/>
      <point x="644" y="1392"/>
      <point x="942" y="1512"/>
      <point x="1101" y="1512" type="qcurve" smooth="yes"/>
      <point x="1260" y="1512"/>
      <point x="1517" y="1394"/>
      <point x="1693" y="1185"/>
      <point x="1768" y="908"/>
      <point x="1743" y="749" type="qcurve" smooth="yes"/>
      <point x="1718" y="590"/>
      <point x="1554" y="310"/>
      <point x="1308" y="97"/>
      <point x="1008" y="-24"/>
    </contour>
    <contour>
      <point x="876" y="151" type="qcurve" smooth="yes"/>
      <point x="999" y="151"/>
      <point x="1231" y="243"/>
      <point x="1422" y="407"/>
      <point x="1550" y="623"/>
      <point x="1569" y="747" type="qcurve" smooth="yes"/>
      <point x="1589" y="871"/>
      <point x="1531" y="1086"/>
      <point x="1394" y="1248"/>
      <point x="1194" y="1339"/>
      <point x="1072" y="1339" type="qcurve" smooth="yes"/>
      <point x="949" y="1339"/>
      <point x="719" y="1246"/>
      <point x="529" y="1081"/>
      <point x="402" y="866"/>
      <point x="381" y="743" type="qcurve" smooth="yes"/>
      <point x="360" y="620"/>
      <point x="417" y="406"/>
      <point x="554" y="243"/>
      <point x="754" y="151"/>
    </contour>
  </outline>
</glyph>
<glyph name="degree" format="2">
  <advance width="933"/>
  <unicode hex="00B0"/>
  <outline>
    <contour>
      <point x="568" y="829" type="qcurve" smooth="yes"/>
      <point x="475" y="829"/>
      <point x="323" y="920"/>
      <point x="232" y="1072"/>
      <point x="232" y="1164" type="qcurve" smooth="yes"/>
      <point x="232" y="1257"/>
      <point x="323" y="1411"/>
      <point x="475" y="1502"/>
      <point x="568" y="1502" type="qcurve" smooth="yes"/>
      <point x="661" y="1502"/>
      <point x="813" y="1411"/>
      <point x="903" y="1257"/>
      <point x="903" y="1164" type="qcurve" smooth="yes"/>
      <point x="903" y="1072"/>
      <point x="813" y="919"/>
      <point x="661" y="829"/>
    </contour>
    <contour>
      <point x="568" y="979" type="qcurve" smooth="yes"/>
      <point x="620" y="979"/>
      <point x="703" y="1029"/>
      <point x="753" y="1113"/>
      <point x="753" y="1164" type="qcurve" smooth="yes"/>
      <point x="753" y="1216"/>
      <point x="703" y="1300"/>
      <point x="620" y="1351"/>
      <point x="568" y="1351" type="qcurve" smooth="yes"/>
      <point x="517" y="1351"/>
      <point x="432" y="1301"/>
      <point x="381" y="1216"/>
      <point x="381" y="1164" type="qcurve" smooth="yes"/>
      <point x="381" y="1113"/>
      <point x="432" y="1029"/>
      <point x="517" y="979"/>
    </contour>
  </outline>
</glyph>
<glyph name="paragraph" format="2">
  <advance width="1234"/>
  <unicode hex="00B6"/>
  <outline>
    <contour>
      <point x="1168" y="1324" type="line"/>
      <point x="814" y="1324" type="line"/>
      <point x="687" y="552" type="line"/>
      <point x="603" y="552" type="line" smooth="yes"/>
      <point x="443" y="552"/>
      <point x="243" y="675"/>
      <point x="165" y="888"/>
      <point x="187" y="1022" type="qcurve" smooth="yes"/>
      <point x="210" y="1157"/>
      <point x="359" y="1368"/>
      <point x="599" y="1490"/>
      <point x="757" y="1490" type="qcurve" smooth="yes"/>
      <point x="1195" y="1490" type="line"/>
    </contour>
    <contour>
      <point x="775" y="0" type="line"/>
      <point x="1023" y="1490" type="line"/>
      <point x="1208" y="1490" type="line"/>
      <point x="960" y="0" type="line"/>
    </contour>
  </outline>
</glyph>
<glyph name="germandbls" format="2">
  <advance width="1262"/>
  <unicode hex="00DF"/>
  <outline>
    <contour>
      <point x="87" y="0" type="line"/>
      <point x="271" y="1107" type="line" smooth="yes"/>
      <point x="292" y="1231"/>
      <point x="431" y="1411"/>
      <point x="644" y="1510"/>
      <point x="773" y="1510" type="qcurve" smooth="yes"/>
      <point x="898" y="1510"/>
      <point x="1083" y="1418"/>
      <point x="1171" y="1245"/>
      <point x="1151" y="1124" type="qcurve" smooth="yes"/>
      <point x="1130" y="997"/>
      <point x="971" y="825"/>
      <point x="861" y="789" type="qcurve"/>
      <point x="859" y="775" type="line"/>
      <point x="1000" y="761"/>
      <point x="1148" y="563"/>
      <point x="1121" y="407" type="qcurve" smooth="yes"/>
      <point x="1101" y="289"/>
      <point x="961" y="105"/>
      <point x="747" y="0"/>
      <point x="616" y="0" type="qcurve" smooth="yes"/>
      <point x="451" y="0" type="line"/>
      <point x="480" y="167" type="line"/>
      <point x="644" y="167" type="line" smooth="yes"/>
      <point x="721" y="167"/>
      <point x="845" y="229"/>
      <point x="927" y="338"/>
      <point x="939" y="410" type="qcurve" smooth="yes"/>
      <point x="959" y="523"/>
      <point x="832" y="671"/>
      <point x="698" y="671" type="qcurve" smooth="yes"/>
      <point x="569" y="671" type="line"/>
      <point x="597" y="841" type="line"/>
      <point x="688" y="841" type="line" smooth="yes"/>
      <point x="761" y="841"/>
      <point x="877" y="914"/>
      <point x="953" y="1032"/>
      <point x="964" y="1097" type="qcurve" smooth="yes"/>
      <point x="981" y="1200"/>
      <point x="869" y="1343"/>
      <point x="750" y="1343" type="qcurve" smooth="yes"/>
      <point x="641" y="1343"/>
      <point x="471" y="1212"/>
      <point x="453" y="1104" type="qcurve" smooth="yes"/>
      <point x="269" y="0" type="line"/>
    </contour>
  </outline>
</glyph>
<glyph name="ae" format="2">
  <advance width="1859"/>
  <unicode hex="00E6"/>
  <anchor x="1124" y="1180" name="m.uni030F_1"/>
  <outline>
    <contour>
      <point x="391" y="-16" type="qcurve" smooth="yes"/>
      <point x="218" y="-16"/>
      <point x="39" y="169"/>
      <point x="65" y="324" type="qcurve" smooth="yes"/>
      <point x="78" y="401"/>
      <point x="170" y="538"/>
      <point x="356" y="624"/>
      <point x="509" y="624" type="qcurve" smooth="yes"/>
      <point x="563" y="624"/>
      <point x="660" y="625"/>
      <point x="773" y="625"/>
      <point x="850" y="625" type="qcurve"/>
      <point x="838" y="487" type="line"/>
      <point x="760" y="487"/>
      <point x="594" y="485"/>
      <point x="521" y="485" type="qcurve" smooth="yes"/>
      <point x="411" y="485"/>
      <point x="257" y="405"/>
      <point x="243" y="320" type="qcurve" smooth="yes"/>
      <point x="228" y="231"/>
      <point x="321" y="140"/>
      <point x="422" y="140" type="qcurve" smooth="yes"/>
      <point x="527" y="140"/>
      <point x="670" y="217"/>
      <point x="752" y="339"/>
      <point x="764" y="406" type="qcurve" smooth="yes"/>
      <point x="831" y="765" type="line" smooth="yes"/>
      <point x="852" y="878"/>
      <point x="757" y="985"/>
      <point x="626" y="985" type="qcurve" smooth="yes"/>
      <point x="556" y="985"/>
      <point x="441" y="940"/>
      <point x="365" y="858"/>
      <point x="350" y="801" type="qcurve"/>
      <point x="168" y="803" type="line"/>
      <point x="189" y="904"/>
      <point x="322" y="1056"/>
      <point x="524" y="1141"/>
      <point x="648" y="1141" type="qcurve" smooth="yes"/>
      <point x="773" y="1141"/>
      <point x="944" y="1052"/>
      <point x="1020" y="892"/>
      <point x="1002" y="786" type="qcurve" smooth="yes"/>
      <point x="914" y="254" type="line"/>
      <point x="897" y="253" type="line"/>
      <point x="857" y="175"/>
      <point x="719" y="54"/>
      <point x="522" y="-16"/>
    </contour>
    <contour>
      <point x="1215" y="-24" type="qcurve" smooth="yes"/>
      <point x="1077" y="-24"/>
      <point x="885" y="83"/>
      <point x="785" y="285"/>
      <point x="785" y="425" type="qcurve" smooth="yes"/>
      <point x="785" y="574"/>
      <point x="877" y="834"/>
      <point x="1041" y="1031"/>
      <point x="1258" y="1142"/>
      <point x="1384" y="1142" type="qcurve" smooth="yes"/>
      <point x="1492" y="1142"/>
      <point x="1652" y="1067"/>
      <point x="1740" y="930"/>
      <point x="1740" y="837" type="qcurve" smooth="yes"/>
      <point x="1740" y="743"/>
      <point x="1643" y="610"/>
      <point x="1439" y="526"/>
      <point x="1121" y="487"/>
      <point x="899" y="487" type="qcurve"/>
      <point x="923" y="623" type="line"/>
      <point x="1106" y="623"/>
      <point x="1352" y="644"/>
      <point x="1497" y="694"/>
      <point x="1560" y="778"/>
      <point x="1560" y="841" type="qcurve" smooth="yes"/>
      <point x="1560" y="905"/>
      <point x="1453" y="982"/>
      <point x="1366" y="982" type="qcurve" smooth="yes"/>
      <point x="1273" y="982"/>
      <point x="1109" y="887"/>
      <point x="996" y="724"/>
      <point x="979" y="623" type="qcurve" smooth="yes"/>
      <point x="968" y="556"/>
      <point x="956" y="480"/>
      <point x="952" y="438"/>
      <point x="952" y="421" type="qcurve" smooth="yes"/>
      <point x="952" y="283"/>
      <point x="1093" y="135"/>
      <point x="1226" y="135" type="qcurve" smooth="yes"/>
      <point x="1334" y="135"/>
      <point x="1501" y="229"/>
      <point x="1543" y="308" type="qcurve"/>
      <point x="1710" y="263" type="line"/>
      <point x="1648" y="130"/>
      <point x="1382" y="-24"/>
    </contour>
  </outline>
</glyph>
<glyph name="eth" format="2">
  <advance width="1192"/>
  <unicode hex="00F0"/>
  <outline>
    <contour>
      <point x="1109" y="1415" type="line"/>
      <point x="456" y="1123" type="line"/>
      <point x="428" y="1233" type="line"/>
      <point x="1079" y="1525" type="line"/>
    </contour>
    <contour>
      <point x="499" y="-24" type="qcurve" smooth="yes"/>
      <point x="349" y="-24"/>
      <point x="151" y="114"/>
      <point x="71" y="356"/>
      <point x="96" y="511" type="qcurve" smooth="yes"/>
      <point x="122" y="669"/>
      <point x="281" y="911"/>
      <point x="506" y="1047"/>
      <point x="630" y="1047" type="qcurve" smooth="yes"/>
      <point x="714" y="1047"/>
      <point x="830" y="990"/>
      <point x="903" y="904"/>
      <point x="921" y="861" type="qcurve"/>
      <point x="935" y="861" type="line"/>
      <point x="917" y="953"/>
      <point x="820" y="1163"/>
      <point x="632" y="1370"/>
      <point x="476" y="1456" type="qcurve"/>
      <point x="569" y="1581" type="line"/>
      <point x="682" y="1521"/>
      <point x="893" y="1330"/>
      <point x="1050" y="1071"/>
      <point x="1117" y="747"/>
      <point x="1087" y="554" type="qcurve" smooth="yes"/>
      <point x="1058" y="370"/>
      <point x="892" y="112"/>
      <point x="647" y="-24"/>
    </contour>
    <contour>
      <point x="529" y="136" type="qcurve" smooth="yes"/>
      <point x="633" y="136"/>
      <point x="790" y="234"/>
      <point x="889" y="401"/>
      <point x="905" y="502" type="qcurve" smooth="yes"/>
      <point x="921" y="598"/>
      <point x="885" y="780"/>
      <point x="766" y="899"/>
      <point x="655" y="899" type="qcurve" smooth="yes"/>
      <point x="549" y="899"/>
      <point x="391" y="790"/>
      <point x="294" y="614"/>
      <point x="277" y="512" type="qcurve" smooth="yes"/>
      <point x="261" y="414"/>
      <point x="298" y="242"/>
      <point x="419" y="136"/>
    </contour>
  </outline>
</glyph>
<glyph name="eng" format="2">
  <advance width="1211"/>
  <unicode hex="014B"/>
  <anchor x="682" y="0" name="m.uni0326"/>
  <anchor x="880" y="1180" name="m.uni030F_1"/>
  <outline>
    <contour>
      <point x="496" y="-418" type="qcurve"/>
      <point x="522" y="-259" type="line"/>
      <point x="538" y="-262"/>
      <point x="579" y="-264"/>
      <point x="589" y="-264" type="qcurve" smooth="yes"/>
      <point x="669" y="-264"/>
      <point x="743" y="-217"/>
      <point x="752" y="-163" type="qcurve" smooth="yes"/>
      <point x="779" y="0" type="line"/>
      <point x="960" y="0" type="line"/>
      <point x="931" y="-171" type="line" smooth="yes"/>
      <point x="909" y="-299"/>
      <point x="735" y="-427"/>
      <point x="598" y="-427" type="qcurve" smooth="yes"/>
      <point x="565" y="-427"/>
      <point x="510" y="-422"/>
    </contour>
    <contour>
      <point x="356" y="664" type="qcurve" smooth="yes"/>
      <point x="245" y="0" type="line"/>
      <point x="65" y="0" type="line"/>
      <point x="251" y="1118" type="line"/>
      <point x="424" y="1118" type="line"/>
      <point x="380" y="847" type="line"/>
      <point x="354" y="853" type="line"/>
      <point x="429" y="1005"/>
      <point x="633" y="1132"/>
      <point x="758" y="1132" type="qcurve" smooth="yes"/>
      <point x="874" y="1132"/>
      <point x="1034" y="1036"/>
      <point x="1101" y="846"/>
      <point x="1077" y="704" type="qcurve" smooth="yes"/>
      <point x="960" y="0" type="line"/>
      <point x="779" y="0" type="line"/>
      <point x="896" y="701" type="line" smooth="yes"/>
      <point x="918" y="832"/>
      <point x="811" y="970"/>
      <point x="698" y="970" type="qcurve" smooth="yes"/>
      <point x="616" y="970"/>
      <point x="472" y="897"/>
      <point x="372" y="760"/>
    </contour>
  </outline>
</glyph>
<glyph name="OE" format="2">
  <advance width="1956"/>
  <unicode hex="0152"/>
  <anchor x="1378" y="0" name="m.uni0326"/>
  <anchor x="1625" y="1490" name="m.uni030F_1"/>
  <anchor x="1356" y="0" name="m.uni0327_3"/>
  <anchor x="1976" y="0" name="m.uni0328_4"/>
  <outline>
    <contour>
      <point x="684" y="0" type="line" smooth="yes"/>
      <point x="488" y="0"/>
      <point x="223" y="187"/>
      <point x="115" y="522"/>
      <point x="152" y="744" type="qcurve" smooth="yes"/>
      <point x="189" y="969"/>
      <point x="409" y="1304"/>
      <point x="735" y="1490"/>
      <point x="930" y="1490" type="qcurve" smooth="yes"/>
      <point x="1132" y="1490" type="line"/>
      <point x="1106" y="1330" type="line"/>
      <point x="904" y="1330" type="line" smooth="yes"/>
      <point x="761" y="1330"/>
      <point x="520" y="1184"/>
      <point x="355" y="921"/>
      <point x="326" y="744" type="qcurve" smooth="yes"/>
      <point x="297" y="570"/>
      <point x="374" y="307"/>
      <point x="568" y="160"/>
      <point x="712" y="160" type="qcurve" smooth="yes"/>
      <point x="914" y="160" type="line"/>
      <point x="884" y="0" type="line"/>
    </contour>
    <contour>
      <point x="811" y="0" type="line"/>
      <point x="1058" y="1490" type="line"/>
      <point x="1966" y="1490" type="line"/>
      <point x="1938" y="1323" type="line"/>
      <point x="1220" y="1323" type="line"/>
      <point x="1140" y="836" type="line"/>
      <point x="1809" y="836" type="line"/>
      <point x="1781" y="669" type="line"/>
      <point x="1111" y="669" type="line"/>
      <point x="1028" y="167" type="line"/>
      <point x="1755" y="167" type="line"/>
      <point x="1728" y="0" type="line"/>
    </contour>
  </outline>
</glyph>
<glyph name="uni0182" format="2">
  <advance width="1344"/>
  <unicode hex="0182"/>
  <outline>
    <contour>
      <point x="88" y="0" type="line"/>
      <point x="334" y="1490" type="line"/>
      <point x="1241" y="1490" type="line"/>
      <point x="1213" y="1323" type="line"/>
      <point x="497" y="1323" type="line"/>
      <point x="421" y="870" type="line"/>
      <point x="789" y="870" type="line" smooth="yes"/>
      <point x="952" y="870"/>
      <point x="1158" y="764"/>
      <point x="1242" y="572"/>
      <point x="1220" y="441" type="qcurve" smooth="yes"/>
      <point x="1198" y="311"/>
      <point x="1049" y="112"/>
      <point x="807" y="0"/>
      <point x="646" y="0" type="qcurve" smooth="yes"/>
    </contour>
    <contour>
      <point x="305" y="165" type="line"/>
      <point x="673" y="165" type="line" smooth="yes"/>
      <point x="773" y="165"/>
      <point x="925" y="244"/>
      <point x="1020" y="371"/>
      <point x="1032" y="443" type="qcurve" smooth="yes"/>
      <point x="1051" y="551"/>
      <point x="913" y="703"/>
      <point x="762" y="703" type="qcurve" smooth="yes"/>
      <point x="394" y="703" type="line"/>
    </contour>
  </outline>
</glyph>
<glyph name="uni0186" format="2">
  <advance width="1495"/>
  <unicode hex="0186"/>
  <anchor x="666" y="0" name="m.uni030F_1"/>
  <anchor x="931" y="1489" name="m.uni0327_3"/>
  <outline>
    <contour>
      <point x="859" y="1510" type="qcurve" smooth="yes"/>
      <point x="1029" y="1510"/>
      <point x="1280" y="1366"/>
      <point x="1418" y="1097"/>
      <point x="1418" y="910" type="qcurve" smooth="yes"/>
      <point x="1418" y="734"/>
      <point x="1308" y="401"/>
      <point x="1102" y="136"/>
      <point x="810" y="-20"/>
      <point x="628" y="-20" type="qcurve" smooth="yes"/>
      <point x="513" y="-20"/>
      <point x="320" y="46"/>
      <point x="177" y="172"/>
      <point x="98" y="354"/>
      <point x="97" y="469" type="qcurve"/>
      <point x="287" y="469" type="line"/>
      <point x="290" y="393"/>
      <point x="345" y="277"/>
      <point x="439" y="197"/>
      <point x="563" y="156"/>
      <point x="635" y="156" type="qcurve" smooth="yes"/>
      <point x="775" y="156"/>
      <point x="997" y="284"/>
      <point x="1152" y="500"/>
      <point x="1234" y="767"/>
      <point x="1234" y="905" type="qcurve" smooth="yes"/>
      <point x="1234" y="1046"/>
      <point x="1136" y="1237"/>
      <point x="964" y="1334"/>
      <point x="852" y="1334" type="qcurve" smooth="yes"/>
      <point x="776" y="1334"/>
      <point x="631" y="1293"/>
      <point x="504" y="1213"/>
      <point x="406" y="1097"/>
      <point x="378" y="1021" type="qcurve"/>
      <point x="187" y="1021" type="line"/>
      <point x="226" y="1135"/>
      <point x="360" y="1315"/>
      <point x="539" y="1443"/>
      <point x="747" y="1510"/>
    </contour>
  </outline>
</glyph>
<glyph name="Epsilon1" format="2">
  <advance width="1314"/>
  <unicode hex="0190"/>
  <anchor x="937" y="1490" name="m.uni030F_1"/>
  <outline>
    <contour>
      <point x="557" y="-20" type="qcurve" smooth="yes"/>
      <point x="411" y="-20"/>
      <point x="200" y="91"/>
      <point x="99" y="283"/>
      <point x="119" y="405" type="qcurve" smooth="yes"/>
      <point x="135" y="499"/>
      <point x="231" y="649"/>
      <point x="382" y="747"/>
      <point x="479" y="762" type="qcurve"/>
      <point x="481" y="774" type="line"/>
      <point x="373" y="808"/>
      <point x="269" y="984"/>
      <point x="290" y="1110" type="qcurve" smooth="yes"/>
      <point x="308" y="1216"/>
      <point x="446" y="1398"/>
      <point x="665" y="1510"/>
      <point x="804" y="1510" type="qcurve" smooth="yes"/>
      <point x="935" y="1510"/>
      <point x="1135" y="1410"/>
      <point x="1238" y="1232"/>
      <point x="1223" y="1115" type="qcurve"/>
      <point x="1040" y="1115" type="line"/>
      <point x="1049" y="1188"/>
      <point x="981" y="1290"/>
      <point x="857" y="1345"/>
      <point x="781" y="1345" type="qcurve" smooth="yes"/>
      <point x="700" y="1345"/>
      <point x="570" y="1284"/>
      <point x="487" y="1174"/>
      <point x="474" y="1100" type="qcurve"/>
      <point x="462" y="1023"/>
      <point x="517" y="909"/>
      <point x="639" y="846"/>
      <point x="726" y="846" type="qcurve" smooth="yes"/>
      <point x="847" y="846" type="line"/>
      <point x="820" y="681" type="line"/>
      <point x="699" y="681" type="line" smooth="yes"/>
      <point x="589" y="681"/>
      <point x="422" y="611"/>
      <point x="321" y="488"/>
      <point x="307" y="407" type="qcurve"/>
      <point x="295" y="330"/>
      <point x="359" y="212"/>
      <point x="493" y="147"/>
      <point x="587" y="147" type="qcurve" smooth="yes"/>
      <point x="672" y="147"/>
      <point x="820" y="202"/>
      <point x="923" y="305"/>
      <point x="940" y="376" type="qcurve"/>
      <point x="1132" y="376" type="line"/>
      <point x="1108" y="258"/>
      <point x="946" y="80"/>
      <point x="703" y="-20"/>
    </contour>
  </outline>
</glyph>
<glyph name="uni01A5" format="2">
  <advance width="1255"/>
  <unicode hex="01A5"/>
  <anchor x="255" y="-401" name="m.uni0326"/>
  <anchor x="838" y="1180" name="m.uni030F_1"/>
  <outline>
    <contour>
      <point x="219" y="927" type="line"/>
      <point x="250" y="1118" type="line"/>
      <point x="272" y="1249" type="line" smooth="yes"/>
      <point x="292" y="1370"/>
      <point x="465" y="1504"/>
      <point x="610" y="1504" type="qcurve" smooth="yes"/>
      <point x="644" y="1504"/>
      <point x="699" y="1499"/>
      <point x="714" y="1495" type="qcurve"/>
      <point x="689" y="1346" type="line"/>
      <point x="673" y="1348"/>
      <point x="643" y="1350"/>
      <point x="630" y="1350" type="qcurve" smooth="yes"/>
      <point x="549" y="1350"/>
      <point x="462" y="1302"/>
      <point x="453" y="1249" type="qcurve" smooth="yes"/>
      <point x="431" y="1118" type="line"/>
      <point x="399" y="927" type="line"/>
    </contour>
    <contour>
      <point x="-4" y="-418" type="line"/>
      <point x="251" y="1118" type="line"/>
      <point x="425" y="1118" type="line"/>
      <point x="395" y="939" type="line"/>
      <point x="404" y="939" type="line"/>
      <point x="428" y="973"/>
      <point x="513" y="1064"/>
      <point x="653" y="1132"/>
      <point x="759" y="1132" type="qcurve" smooth="yes"/>
      <point x="882" y="1132"/>
      <point x="1062" y="1024"/>
      <point x="1160" y="824"/>
      <point x="1160" y="685" type="qcurve" smooth="yes"/>
      <point x="1160" y="555"/>
      <point x="1083" y="302"/>
      <point x="937" y="98"/>
      <point x="726" y="-24"/>
      <point x="592" y="-24" type="qcurve" smooth="yes"/>
      <point x="483" y="-24"/>
      <point x="362" y="51"/>
      <point x="305" y="147"/>
      <point x="292" y="178" type="qcurve"/>
      <point x="275" y="178" type="line"/>
      <point x="176" y="-418" type="line"/>
    </contour>
    <contour>
      <point x="568" y="137" type="qcurve" smooth="yes"/>
      <point x="668" y="137"/>
      <point x="821" y="235"/>
      <point x="926" y="396"/>
      <point x="979" y="587"/>
      <point x="979" y="680" type="qcurve" smooth="yes"/>
      <point x="979" y="808"/>
      <point x="858" y="971"/>
      <point x="729" y="971" type="qcurve" smooth="yes"/>
      <point x="628" y="971"/>
      <point x="476" y="876"/>
      <point x="375" y="718"/>
      <point x="324" y="526"/>
      <point x="324" y="429" type="qcurve" smooth="yes"/>
      <point x="324" y="296"/>
      <point x="446" y="137"/>
    </contour>
  </outline>
</glyph>
<glyph name="uni01A8" format="2">
  <advance width="1070"/>
  <unicode hex="01A8"/>
  <outline>
    <contour>
      <point x="461" y="-24" type="qcurve" smooth="yes"/>
      <point x="575" y="-24"/>
      <point x="760" y="43"/>
      <point x="891" y="173"/>
      <point x="923" y="268" type="qcurve"/>
      <point x="767" y="308" type="line"/>
      <point x="732" y="218"/>
      <point x="589" y="128"/>
      <point x="483" y="128" type="qcurve" smooth="yes"/>
      <point x="364" y="128"/>
      <point x="234" y="231"/>
      <point x="244" y="302" type="qcurve" smooth="yes"/>
      <point x="252" y="361"/>
      <point x="344" y="440"/>
      <point x="431" y="460" type="qcurve" smooth="yes"/>
      <point x="622" y="504" type="line" smooth="yes"/>
      <point x="781" y="541"/>
      <point x="945" y="693"/>
      <point x="960" y="808" type="qcurve" smooth="yes"/>
      <point x="973" y="903"/>
      <point x="885" y="1049"/>
      <point x="710" y="1132"/>
      <point x="593" y="1132" type="qcurve" smooth="yes"/>
      <point x="482" y="1132"/>
      <point x="316" y="1065"/>
      <point x="199" y="946"/>
      <point x="162" y="866" type="qcurve"/>
      <point x="310" y="824" type="line"/>
      <point x="340" y="881"/>
      <point x="461" y="984"/>
      <point x="574" y="984" type="qcurve" smooth="yes"/>
      <point x="676" y="984"/>
      <point x="799" y="889"/>
      <point x="790" y="818" type="qcurve" smooth="yes"/>
      <point x="781" y="754"/>
      <point x="678" y="678"/>
      <point x="576" y="654" type="qcurve" smooth="yes"/>
      <point x="405" y="614" type="line" smooth="yes"/>
      <point x="251" y="578"/>
      <point x="84" y="428"/>
      <point x="69" y="312" type="qcurve" smooth="yes"/>
      <point x="56" y="216"/>
      <point x="146" y="64"/>
      <point x="331" y="-24"/>
    </contour>
  </outline>
</glyph>
<glyph name="uni01AB" format="2">
  <advance width="672"/>
  <unicode hex="01AB"/>
  <anchor x="448" y="0" name="m.uni0326"/>
  <anchor x="604" y="1424" name="m.uni030F_1"/>
  <anchor x="570" y="0" name="m.uni0327_3"/>
  <outline>
    <contour>
      <point x="73" y="-419" type="qcurve"/>
      <point x="98" y="-269" type="line"/>
      <point x="113" y="-271"/>
      <point x="143" y="-273"/>
      <point x="156" y="-273" type="qcurve" smooth="yes"/>
      <point x="272" y="-273"/>
      <point x="371" y="-184"/>
      <point x="366" y="-94" type="qcurve" smooth="yes"/>
      <point x="361" y="6" type="line"/>
      <point x="538" y="6" type="line"/>
      <point x="544" y="-93" type="line" smooth="yes"/>
      <point x="550" y="-184"/>
      <point x="470" y="-336"/>
      <point x="302" y="-428"/>
      <point x="176" y="-428" type="qcurve" smooth="yes"/>
      <point x="143" y="-428"/>
      <point x="87" y="-423"/>
    </contour>
    <contour>
      <point x="326" y="1384" type="line"/>
      <point x="506" y="1384" type="line"/>
      <point x="325" y="290" type="line" smooth="yes"/>
      <point x="312" y="213"/>
      <point x="364" y="146"/>
      <point x="433" y="146" type="qcurve" smooth="yes"/>
      <point x="450" y="146"/>
      <point x="504" y="154"/>
      <point x="527" y="158" type="qcurve"/>
      <point x="538" y="6" type="line"/>
      <point x="511" y="-3"/>
      <point x="439" y="-14"/>
      <point x="402" y="-14" type="qcurve" smooth="yes"/>
      <point x="255" y="-14"/>
      <point x="120" y="140"/>
      <point x="142" y="276" type="qcurve" smooth="yes"/>
    </contour>
    <contour>
      <point x="691" y="1118" type="line"/>
      <point x="666" y="964" type="line"/>
      <point x="88" y="964" type="line"/>
      <point x="113" y="1118" type="line"/>
    </contour>
  </outline>
</glyph>
<glyph name="uni01AC" format="2">
  <advance width="1388"/>
  <unicode hex="01AC"/>
  <outline>
    <contour>
      <point x="216" y="1114" type="line"/>
      <point x="228" y="1188" type="line" smooth="yes"/>
      <point x="252" y="1336"/>
      <point x="428" y="1490"/>
      <point x="586" y="1490" type="qcurve" smooth="yes"/>
      <point x="679" y="1490" type="line"/>
      <point x="651" y="1323" type="line"/>
      <point x="559" y="1323" type="line" smooth="yes"/>
      <point x="492" y="1323"/>
      <point x="418" y="1258"/>
      <point x="406" y="1186" type="qcurve" smooth="yes"/>
      <point x="394" y="1114" type="line"/>
    </contour>
    <contour>
      <point x="650" y="1323" type="line"/>
      <point x="679" y="1490" type="line"/>
      <point x="1444" y="1490" type="line"/>
      <point x="1416" y="1323" type="line"/>
      <point x="949" y="1323" type="line"/>
      <point x="730" y="0" type="line"/>
      <point x="540" y="0" type="line"/>
      <point x="759" y="1323" type="line"/>
    </contour>
  </outline>
</glyph>
<glyph name="uhorn" format="2">
  <advance width="1269"/>
  <unicode hex="01B0"/>
  <anchor x="710" y="0" name="m.uni0326"/>
  <anchor x="881" y="1180" name="m.uni030F_1"/>
  <anchor x="1375" y="0" name="m.uni0328_4"/>
  <outline>
    <contour>
      <point x="1016" y="998" type="line"/>
      <point x="1036" y="1118" type="line"/>
      <point x="1126" y="1118" type="line" smooth="yes"/>
      <point x="1160" y="1118"/>
      <point x="1166" y="1152" type="qcurve" smooth="yes"/>
      <point x="1201" y="1366" type="line"/>
      <point x="1361" y="1366" type="line"/>
      <point x="1328" y="1168" type="line" smooth="yes"/>
      <point x="1314" y="1083"/>
      <point x="1216" y="998"/>
      <point x="1130" y="998" type="qcurve" smooth="yes"/>
    </contour>
    <contour>
      <point x="443" y="-14" type="qcurve" smooth="yes"/>
      <point x="331" y="-14"/>
      <point x="176" y="78"/>
      <point x="111" y="266"/>
      <point x="134" y="408" type="qcurve" smooth="yes"/>
      <point x="251" y="1118" type="line"/>
      <point x="431" y="1118" type="line"/>
      <point x="317" y="423" type="line" smooth="yes"/>
      <point x="296" y="295"/>
      <point x="405" y="148"/>
      <point x="523" y="148" type="qcurve" smooth="yes"/>
      <point x="602" y="148"/>
      <point x="741" y="217"/>
      <point x="839" y="351"/>
      <point x="855" y="448" type="qcurve" smooth="yes"/>
      <point x="965" y="1118" type="line"/>
      <point x="1146" y="1118" type="line"/>
      <point x="961" y="0" type="line"/>
      <point x="787" y="0" type="line"/>
      <point x="832" y="271" type="line"/>
      <point x="856" y="271" type="line"/>
      <point x="779" y="114"/>
      <point x="567" y="-14"/>
    </contour>
  </outline>
</glyph>
<glyph name="glottalstopbarinv" format="2">
  <advance width="1112"/>
  <unicode hex="01BE"/>
  <outline>
    <contour>
      <point x="744" y="293" type="qcurve" smooth="yes"/>
      <point x="751" y="340"/>
      <point x="707" y="405"/>
      <point x="633" y="457"/>
      <point x="550" y="514"/>
      <point x="481" y="590"/>
      <point x="447" y="702"/>
      <point x="461" y="785" type="qcurve" smooth="yes"/>
      <point x="554" y="1343" type="line"/>
      <point x="762" y="1343" type="line"/>
      <point x="671" y="790" type="line" smooth="yes"/>
      <point x="661" y="728"/>
      <point x="700" y="648"/>
      <point x="773" y="593"/>
      <point x="858" y="543"/>
      <point x="930" y="479"/>
      <point x="967" y="384"/>
      <point x="955" y="309" type="qcurve" smooth="yes"/>
      <point x="940" y="212"/>
      <point x="809" y="64"/>
      <point x="603" y="-20"/>
      <point x="475" y="-20" type="qcurve" smooth="yes"/>
      <point x="329" y="-20"/>
      <point x="144" y="84"/>
      <point x="68" y="249"/>
      <point x="84" y="340" type="qcurve"/>
      <point x="293" y="340" type="line"/>
      <point x="283" y="267"/>
      <point x="342" y="181"/>
      <point x="445" y="144"/>
      <point x="502" y="144" type="qcurve" smooth="yes"/>
      <point x="572" y="144"/>
      <point x="676" y="183"/>
      <point x="738" y="250"/>
    </contour>
    <contour>
      <point x="916" y="1082" type="line"/>
      <point x="889" y="929" type="line"/>
      <point x="290" y="929" type="line"/>
      <point x="319" y="1082" type="line"/>
    </contour>
  </outline>
</glyph>
<glyph name="uni01BF" format="2">
  <advance width="1298"/>
  <unicode hex="01BF"/>
  <outline>
    <contour>
      <point x="444" y="910" type="line"/>
      <point x="248" y="-416" type="line"/>
      <point x="40" y="-416" type="line"/>
      <point x="266" y="1118" type="line"/>
      <point x="458" y="1118" type="line"/>
    </contour>
    <contour>
      <point x="359" y="679" type="qcurve"/>
      <point x="249" y="601" type="line"/>
      <point x="291" y="769"/>
      <point x="433" y="1006"/>
      <point x="640" y="1132"/>
      <point x="776" y="1132" type="qcurve" smooth="yes"/>
      <point x="912" y="1132"/>
      <point x="1080" y="995"/>
      <point x="1143" y="746"/>
      <point x="1118" y="578" type="qcurve" smooth="yes"/>
      <point x="1111" y="530" type="line" smooth="yes"/>
      <point x="1081" y="321"/>
      <point x="849" y="56"/>
      <point x="469" y="-114"/>
      <point x="215" y="-181" type="qcurve"/>
      <point x="240" y="-15" type="line"/>
      <point x="412" y="24"/>
      <point x="695" y="155"/>
      <point x="879" y="369"/>
      <point x="902" y="530" type="qcurve" smooth="yes"/>
      <point x="909" y="578" type="line" smooth="yes"/>
      <point x="924" y="681"/>
      <point x="892" y="855"/>
      <point x="785" y="960"/>
      <point x="687" y="960" type="qcurve" smooth="yes"/>
      <point x="600" y="960"/>
      <point x="472" y="882"/>
      <point x="385" y="754"/>
    </contour>
  </outline>
</glyph>
<glyph name="uni0234" format="2">
  <advance width="816"/>
  <unicode hex="0234"/>
  <anchor x="315" y="0" name="m.uni0326"/>
  <anchor x="563" y="1490" name="m.uni030F_1"/>
  <outline>
    <contour>
      <point x="311" y="-418" type="qcurve" smooth="yes"/>
      <point x="196" y="-418"/>
      <point x="73" y="-323"/>
      <point x="36" y="-176"/>
      <point x="48" y="-100" type="qcurve" smooth="yes"/>
      <point x="104" y="242" type="line"/>
      <point x="285" y="242" type="line"/>
      <point x="225" y="-120" type="line" smooth="yes"/>
      <point x="213" y="-193"/>
      <point x="283" y="-267"/>
      <point x="336" y="-267" type="qcurve" smooth="yes"/>
      <point x="386" y="-267"/>
      <point x="461" y="-203"/>
      <point x="469" y="-154" type="qcurve" smooth="yes"/>
      <point x="476" y="-113"/>
      <point x="439" y="-49"/>
      <point x="392" y="-42" type="qcurve"/>
      <point x="359" y="-36"/>
      <point x="295" y="-50"/>
      <point x="234" y="-83"/>
      <point x="204" y="-109" type="qcurve" smooth="yes"/>
      <point x="-117" y="-384" type="line"/>
      <point x="-211" y="-265" type="line"/>
      <point x="61" y="-31" type="line" smooth="yes"/>
      <point x="141" y="38"/>
      <point x="328" y="112"/>
      <point x="411" y="112" type="qcurve" smooth="yes"/>
      <point x="538" y="112"/>
      <point x="673" y="-36"/>
      <point x="654" y="-153" type="qcurve" smooth="yes"/>
      <point x="635" y="-270"/>
      <point x="451" y="-418"/>
    </contour>
    <contour>
      <point x="492" y="1490" type="line"/>
      <point x="245" y="0" type="line"/>
      <point x="65" y="0" type="line"/>
      <point x="312" y="1490" type="line"/>
    </contour>
  </outline>
</glyph>
<glyph name="uni023E" format="2">
  <advance width="1324"/>
  <unicode hex="023E"/>
  <anchor x="687" y="0" name="m.uni0326"/>
  <anchor x="936" y="1490" name="m.uni030F_1"/>
  <anchor x="675" y="0" name="m.uni0327_3"/>
  <outline>
    <contour>
      <point x="136" y="-190" type="line"/>
      <point x="1112" y="1678" type="line"/>
      <point x="1278" y="1678" type="line"/>
      <point x="302" y="-190" type="line"/>
    </contour>
    <contour>
      <point x="226" y="1323" type="line"/>
      <point x="254" y="1490" type="line"/>
      <point x="1380" y="1490" type="line"/>
      <point x="1352" y="1323" type="line"/>
      <point x="885" y="1323" type="line"/>
      <point x="666" y="0" type="line"/>
      <point x="476" y="0" type="line"/>
      <point x="695" y="1323" type="line"/>
    </contour>
  </outline>
</glyph>
<glyph name="uni0242" format="2">
  <advance width="1113"/>
  <unicode hex="0242"/>
  <outline>
    <contour>
      <point x="162" y="701" type="line"/>
      <point x="185" y="839"/>
      <point x="318" y="1032"/>
      <point x="520" y="1132"/>
      <point x="645" y="1132" type="qcurve" smooth="yes"/>
      <point x="770" y="1132"/>
      <point x="944" y="1036"/>
      <point x="1021" y="848"/>
      <point x="997" y="708" type="qcurve" smooth="yes"/>
      <point x="978" y="595"/>
      <point x="869" y="421"/>
      <point x="674" y="322"/>
      <point x="527" y="322" type="qcurve" smooth="yes"/>
      <point x="473" y="322" type="line"/>
      <point x="495" y="451" type="line"/>
      <point x="541" y="451" type="line" smooth="yes"/>
      <point x="651" y="451"/>
      <point x="770" y="584"/>
      <point x="789" y="699" type="qcurve" smooth="yes"/>
      <point x="809" y="815"/>
      <point x="736" y="966"/>
      <point x="626" y="966" type="qcurve" smooth="yes"/>
      <point x="521" y="966"/>
      <point x="391" y="821"/>
      <point x="370" y="701" type="qcurve"/>
    </contour>
    <contour>
      <point x="446" y="451" type="line"/>
      <point x="655" y="451" type="line"/>
      <point x="581" y="0" type="line"/>
      <point x="371" y="0" type="line"/>
    </contour>
  </outline>
</glyph>
<glyph name="uni0247" format="2">
  <advance width="1179"/>
  <unicode hex="0247"/>
  <anchor x="661" y="0" name="m.uni0326"/>
  <anchor x="872" y="1180" name="m.uni030F_1"/>
  <anchor x="633" y="0" name="m.uni0327_3"/>
  <anchor x="1343" y="325" name="m.uni0328_4"/>
  <outline>
    <contour>
      <point x="-30" y="-418" type="line"/>
      <point x="1054" y="1490" type="line"/>
      <point x="1190" y="1490" type="line"/>
      <point x="110" y="-418" type="line"/>
    </contour>
    <contour>
      <point x="535" y="-24" type="qcurve" smooth="yes"/>
      <point x="397" y="-24"/>
      <point x="200" y="84"/>
      <point x="94" y="286"/>
      <point x="94" y="427" type="qcurve" smooth="yes"/>
      <point x="94" y="574"/>
      <point x="188" y="833"/>
      <point x="356" y="1030"/>
      <point x="577" y="1142"/>
      <point x="704" y="1142" type="qcurve" smooth="yes"/>
      <point x="812" y="1142"/>
      <point x="972" y="1067"/>
      <point x="1060" y="930"/>
      <point x="1060" y="837" type="qcurve" smooth="yes"/>
      <point x="1060" y="743"/>
      <point x="963" y="610"/>
      <point x="759" y="526"/>
      <point x="440" y="487"/>
      <point x="219" y="487" type="qcurve"/>
      <point x="243" y="623" type="line"/>
      <point x="426" y="623"/>
      <point x="672" y="644"/>
      <point x="817" y="694"/>
      <point x="880" y="778"/>
      <point x="880" y="841" type="qcurve" smooth="yes"/>
      <point x="880" y="905"/>
      <point x="773" y="982"/>
      <point x="686" y="982" type="qcurve" smooth="yes"/>
      <point x="573" y="982"/>
      <point x="414" y="873"/>
      <point x="314" y="702"/>
      <point x="267" y="511"/>
      <point x="267" y="428" type="qcurve" smooth="yes"/>
      <point x="267" y="346"/>
      <point x="321" y="213"/>
      <point x="444" y="135"/>
      <point x="546" y="135" type="qcurve" smooth="yes"/>
      <point x="653" y="135"/>
      <point x="820" y="228"/>
      <point x="863" y="308" type="qcurve"/>
      <point x="1030" y="261" type="line"/>
      <point x="968" y="129"/>
      <point x="701" y="-24"/>
    </contour>
  </outline>
</glyph>
<glyph name="qrthook" format="2">
  <advance width="1257"/>
  <unicode hex="024B"/>
  <anchor x="722" y="0" name="m.uni0326"/>
  <anchor x="915" y="1180" name="m.uni030F_1"/>
  <anchor x="1344" y="0" name="m.uni0328_4"/>
  <outline>
    <contour>
      <point x="1045" y="-427" type="qcurve" smooth="yes"/>
      <point x="906" y="-427"/>
      <point x="779" y="-298"/>
      <point x="800" y="-171" type="qcurve" smooth="yes"/>
      <point x="860" y="193" type="line"/>
      <point x="1039" y="193" type="line"/>
      <point x="978" y="-171" type="line" smooth="yes"/>
      <point x="969" y="-225"/>
      <point x="1036" y="-272"/>
      <point x="1117" y="-272" type="qcurve" smooth="yes"/>
      <point x="1130" y="-272"/>
      <point x="1161" y="-270"/>
      <point x="1177" y="-268" type="qcurve"/>
      <point x="1152" y="-418" type="line"/>
      <point x="1136" y="-422"/>
      <point x="1078" y="-427"/>
    </contour>
    <contour>
      <point x="481" y="-24" type="qcurve" smooth="yes"/>
      <point x="342" y="-24"/>
      <point x="152" y="119"/>
      <point x="75" y="380"/>
      <point x="104" y="557" type="qcurve" smooth="yes"/>
      <point x="134" y="735"/>
      <point x="298" y="992"/>
      <point x="536" y="1132"/>
      <point x="675" y="1132" type="qcurve" smooth="yes"/>
      <point x="783" y="1132"/>
      <point x="899" y="1061"/>
      <point x="952" y="970"/>
      <point x="966" y="939" type="qcurve"/>
      <point x="981" y="939" type="line"/>
      <point x="1010" y="1118" type="line"/>
      <point x="1191" y="1118" type="line"/>
      <point x="1006" y="0" type="line"/>
      <point x="831" y="0" type="line"/>
      <point x="859" y="173" type="line"/>
      <point x="838" y="173" type="line"/>
      <point x="813" y="140"/>
      <point x="727" y="47"/>
      <point x="587" y="-24"/>
    </contour>
    <contour>
      <point x="537" y="137" type="qcurve" smooth="yes"/>
      <point x="639" y="137"/>
      <point x="796" y="245"/>
      <point x="900" y="435"/>
      <point x="920" y="559" type="qcurve" smooth="yes"/>
      <point x="941" y="683"/>
      <point x="900" y="868"/>
      <point x="777" y="971"/>
      <point x="675" y="971" type="qcurve" smooth="yes"/>
      <point x="568" y="971"/>
      <point x="407" y="860"/>
      <point x="306" y="674"/>
      <point x="287" y="559" type="qcurve" smooth="yes"/>
      <point x="268" y="442"/>
      <point x="308" y="250"/>
      <point x="432" y="137"/>
    </contour>
  </outline>
</glyph>
<glyph name="uni0257" format="2">
  <advance width="1257"/>
  <unicode hex="0257"/>
  <anchor x="722" y="0" name="m.uni0326"/>
  <anchor x="915" y="1180" name="m.uni030F_1"/>
  <anchor x="1344" y="0" name="m.uni0328_4"/>
  <outline>
    <contour>
      <point x="979" y="927" type="line"/>
      <point x="1010" y="1118" type="line"/>
      <point x="1032" y="1249" type="line" smooth="yes"/>
      <point x="1052" y="1370"/>
      <point x="1225" y="1504"/>
      <point x="1370" y="1504" type="qcurve" smooth="yes"/>
      <point x="1404" y="1504"/>
      <point x="1459" y="1499"/>
      <point x="1474" y="1495" type="qcurve"/>
      <point x="1449" y="1346" type="line"/>
      <point x="1433" y="1348"/>
      <point x="1403" y="1350"/>
      <point x="1390" y="1350" type="qcurve" smooth="yes"/>
      <point x="1309" y="1350"/>
      <point x="1222" y="1302"/>
      <point x="1213" y="1249" type="qcurve" smooth="yes"/>
      <point x="1191" y="1118" type="line"/>
      <point x="1159" y="927" type="line"/>
    </contour>
    <contour>
      <point x="481" y="-24" type="qcurve" smooth="yes"/>
      <point x="342" y="-24"/>
      <point x="152" y="119"/>
      <point x="75" y="380"/>
      <point x="104" y="557" type="qcurve" smooth="yes"/>
      <point x="134" y="735"/>
      <point x="298" y="992"/>
      <point x="536" y="1132"/>
      <point x="675" y="1132" type="qcurve" smooth="yes"/>
      <point x="783" y="1132"/>
      <point x="899" y="1061"/>
      <point x="952" y="970"/>
      <point x="966" y="939" type="qcurve"/>
      <point x="981" y="939" type="line"/>
      <point x="1010" y="1118" type="line"/>
      <point x="1191" y="1118" type="line"/>
      <point x="1006" y="0" type="line"/>
      <point x="831" y="0" type="line"/>
      <point x="859" y="173" type="line"/>
      <point x="838" y="173" type="line"/>
      <point x="813" y="140"/>
      <point x="727" y="47"/>
      <point x="587" y="-24"/>
    </contour>
    <contour>
      <point x="537" y="137" type="qcurve" smooth="yes"/>
      <point x="639" y="137"/>
      <point x="796" y="245"/>
      <point x="900" y="435"/>
      <point x="920" y="559" type="qcurve" smooth="yes"/>
      <point x="941" y="683"/>
      <point x="900" y="868"/>
      <point x="777" y="971"/>
      <point x="675" y="971" type="qcurve" smooth="yes"/>
      <point x="568" y="971"/>
      <point x="407" y="860"/>
      <point x="306" y="674"/>
      <point x="287" y="559" type="qcurve" smooth="yes"/>
      <point x="268" y="442"/>
      <point x="308" y="250"/>
      <point x="432" y="137"/>
    </contour>
  </outline>
</glyph>
<glyph name="uni0260" format="2">
  <advance width="1256"/>
  <unicode hex="0260"/>
  <anchor x="597" y="-411" name="m.uni0326"/>
  <anchor x="868" y="1180" name="m.uni030F_1"/>
  <outline>
    <contour>
      <point x="979" y="927" type="line"/>
      <point x="1010" y="1118" type="line"/>
      <point x="1032" y="1249" type="line" smooth="yes"/>
      <point x="1052" y="1370"/>
      <point x="1225" y="1504"/>
      <point x="1370" y="1504" type="qcurve" smooth="yes"/>
      <point x="1404" y="1504"/>
      <point x="1459" y="1499"/>
      <point x="1474" y="1495" type="qcurve"/>
      <point x="1449" y="1346" type="line"/>
      <point x="1433" y="1348"/>
      <point x="1403" y="1350"/>
      <point x="1390" y="1350" type="qcurve" smooth="yes"/>
      <point x="1309" y="1350"/>
      <point x="1222" y="1302"/>
      <point x="1213" y="1249" type="qcurve" smooth="yes"/>
      <point x="1191" y="1118" type="line"/>
      <point x="1159" y="927" type="line"/>
    </contour>
    <contour>
      <point x="456" y="-442" type="qcurve" smooth="yes"/>
      <point x="327" y="-442"/>
      <point x="153" y="-375"/>
      <point x="49" y="-268"/>
      <point x="25" y="-209" type="qcurve"/>
      <point x="180" y="-125" type="line"/>
      <point x="197" y="-155"/>
      <point x="253" y="-230"/>
      <point x="363" y="-285"/>
      <point x="460" y="-285" type="qcurve" smooth="yes"/>
      <point x="598" y="-285"/>
      <point x="800" y="-150"/>
      <point x="823" y="-13" type="qcurve" smooth="yes"/>
      <point x="860" y="205" type="line"/>
      <point x="844" y="201" type="line"/>
      <point x="819" y="168"/>
      <point x="737" y="82"/>
      <point x="603" y="18"/>
      <point x="498" y="18" type="qcurve" smooth="yes"/>
      <point x="379" y="18"/>
      <point x="198" y="117"/>
      <point x="96" y="307"/>
      <point x="96" y="443" type="qcurve" smooth="yes"/>
      <point x="96" y="571"/>
      <point x="174" y="816"/>
      <point x="322" y="1014"/>
      <point x="532" y="1132"/>
      <point x="664" y="1132" type="qcurve" smooth="yes"/>
      <point x="747" y="1132"/>
      <point x="855" y="1088"/>
      <point x="920" y="1022"/>
      <point x="955" y="956"/>
      <point x="965" y="934" type="qcurve"/>
      <point x="986" y="939" type="line"/>
      <point x="1016" y="1118" type="line"/>
      <point x="1191" y="1118" type="line"/>
      <point x="999" y="-35" type="line" smooth="yes"/>
      <point x="975" y="-179"/>
      <point x="819" y="-358"/>
      <point x="590" y="-442"/>
    </contour>
    <contour>
      <point x="531" y="178" type="qcurve" smooth="yes"/>
      <point x="634" y="178"/>
      <point x="785" y="268"/>
      <point x="884" y="417"/>
      <point x="932" y="598"/>
      <point x="932" y="690" type="qcurve" smooth="yes"/>
      <point x="932" y="818"/>
      <point x="810" y="971"/>
      <point x="685" y="971" type="qcurve" smooth="yes"/>
      <point x="588" y="971"/>
      <point x="436" y="881"/>
      <point x="331" y="730"/>
      <point x="277" y="546"/>
      <point x="277" y="453" type="qcurve" smooth="yes"/>
      <point x="277" y="328"/>
      <point x="403" y="178"/>
    </contour>
  </outline>
</glyph>
<glyph name="babygamma" format="2">
  <advance width="1481"/>
  <unicode hex="0264"/>
  <outline>
    <contour>
      <point x="289" y="852" type="qcurve"/>
      <point x="184" y="980" type="line"/>
      <point x="244" y="1039"/>
      <point x="399" y="1132"/>
      <point x="488" y="1132" type="qcurve" smooth="yes"/>
      <point x="589" y="1132"/>
      <point x="715" y="997"/>
      <point x="815" y="761"/>
      <point x="874" y="611" type="qcurve" smooth="yes"/>
      <point x="895" y="558"/>
      <point x="942" y="419"/>
      <point x="968" y="273"/>
      <point x="957" y="207" type="qcurve" smooth="yes"/>
      <point x="940" y="104"/>
      <point x="775" y="-20"/>
      <point x="644" y="-20" type="qcurve"/>
      <point x="672" y="150" type="line"/>
      <point x="710" y="149"/>
      <point x="748" y="189"/>
      <point x="752" y="214" type="qcurve"/>
      <point x="759" y="250"/>
      <point x="734" y="363"/>
      <point x="670" y="544"/>
      <point x="616" y="681" type="qcurve" smooth="yes"/>
      <point x="581" y="770"/>
      <point x="529" y="880"/>
      <point x="468" y="931"/>
      <point x="420" y="931" type="qcurve" smooth="yes"/>
      <point x="387" y="931"/>
      <point x="321" y="887"/>
    </contour>
    <contour>
      <point x="1441" y="980" type="qcurve"/>
      <point x="1292" y="852" type="line"/>
      <point x="1271" y="887"/>
      <point x="1219" y="931"/>
      <point x="1187" y="931" type="qcurve" smooth="yes"/>
      <point x="1151" y="931"/>
      <point x="1088" y="898"/>
      <point x="1011" y="815"/>
      <point x="902" y="670"/>
      <point x="819" y="559" type="qcurve" smooth="yes"/>
      <point x="765" y="486"/>
      <point x="678" y="357"/>
      <point x="623" y="254"/>
      <point x="616" y="218" type="qcurve" smooth="yes"/>
      <point x="611" y="190"/>
      <point x="637" y="149"/>
      <point x="672" y="150" type="qcurve"/>
      <point x="644" y="-20" type="line"/>
      <point x="520" y="-20"/>
      <point x="391" y="101"/>
      <point x="408" y="207" type="qcurve" smooth="yes"/>
      <point x="419" y="272"/>
      <point x="492" y="416"/>
      <point x="586" y="555"/>
      <point x="627" y="612" type="qcurve" smooth="yes"/>
      <point x="707" y="723"/>
      <point x="846" y="913"/>
      <point x="977" y="1054"/>
      <point x="1113" y="1132"/>
      <point x="1189" y="1132" type="qcurve" smooth="yes"/>
      <point x="1278" y="1132"/>
      <point x="1401" y="1038"/>
    </contour>
  </outline>
</glyph>
<glyph name="hturn" format="2">
  <advance width="1211"/>
  <unicode hex="0265"/>
  <anchor x="882" y="1180" name="m.uni0326"/>
  <anchor x="851" y="1180" name="m.uni030F_1"/>
  <anchor x="1244" y="1180" name="m.uni0327_3"/>
  <outline>
    <contour>
      <point x="855" y="448" type="qcurve" smooth="yes"/>
      <point x="966" y="1118" type="line"/>
      <point x="1146" y="1118" type="line"/>
      <point x="899" y="-372" type="line"/>
      <point x="719" y="-372" type="line"/>
      <point x="826" y="271" type="line"/>
      <point x="857" y="271" type="line"/>
      <point x="806" y="167"/>
      <point x="680" y="41"/>
      <point x="534" y="-14"/>
      <point x="451" y="-14" type="qcurve" smooth="yes"/>
      <point x="338" y="-14"/>
      <point x="178" y="79"/>
      <point x="110" y="267"/>
      <point x="133" y="408" type="qcurve" smooth="yes"/>
      <point x="251" y="1118" type="line"/>
      <point x="432" y="1118" type="line"/>
      <point x="316" y="423" type="line" smooth="yes"/>
      <point x="294" y="293"/>
      <point x="408" y="148"/>
      <point x="524" y="148" type="qcurve" smooth="yes"/>
      <point x="603" y="148"/>
      <point x="742" y="218"/>
      <point x="839" y="352"/>
    </contour>
  </outline>
</glyph>
<glyph name="rturnascend" format="2">
  <advance width="742"/>
  <unicode hex="027A"/>
  <outline>
    <contour>
      <point x="367" y="174" type="line"/>
      <point x="594" y="1536" type="line"/>
      <point x="802" y="1536" type="line"/>
      <point x="546" y="0" type="line"/>
      <point x="345" y="0" type="line"/>
    </contour>
    <contour>
      <point x="8" y="-6" type="qcurve"/>
      <point x="40" y="186" type="line"/>
      <point x="66" y="182"/>
      <point x="108" y="177"/>
      <point x="133" y="176" type="qcurve"/>
      <point x="216" y="177"/>
      <point x="338" y="240"/>
      <point x="419" y="353"/>
      <point x="440" y="427" type="qcurve"/>
      <point x="498" y="455" type="line"/>
      <point x="476" y="326"/>
      <point x="371" y="110"/>
      <point x="205" y="-20"/>
      <point x="91" y="-20" type="qcurve" smooth="yes"/>
      <point x="71" y="-20"/>
      <point x="19" y="-10"/>
    </contour>
  </outline>
</glyph>
<glyph name="uni027E" format="2">
  <advance width="705"/>
  <unicode hex="027E"/>
  <outline>
    <contour>
      <point x="65" y="0" type="line"/>
      <point x="189" y="748" type="line" smooth="yes"/>
      <point x="213" y="893"/>
      <point x="354" y="1059"/>
      <point x="541" y="1129"/>
      <point x="633" y="1129" type="qcurve" smooth="yes"/>
      <point x="665" y="1129"/>
      <point x="712" y="1127"/>
      <point x="744" y="1124"/>
      <point x="751" y="1123" type="qcurve"/>
      <point x="723" y="954" type="line"/>
      <point x="707" y="956"/>
      <point x="657" y="958"/>
      <point x="620" y="958" type="qcurve" smooth="yes"/>
      <point x="561" y="958"/>
      <point x="457" y="924"/>
      <point x="384" y="832"/>
      <point x="369" y="745" type="qcurve" smooth="yes"/>
      <point x="245" y="0" type="line"/>
    </contour>
  </outline>
</glyph>
<glyph name="upsilonlatin" format="2">
  <advance width="1296"/>
  <unicode hex="028A"/>
  <outline>
    <contour>
      <point x="588" y="146" type="qcurve" smooth="yes"/>
      <point x="687" y="146"/>
      <point x="821" y="201"/>
      <point x="902" y="289"/>
      <point x="943" y="389"/>
      <point x="950" y="434" type="qcurve" smooth="yes"/>
      <point x="958" y="489"/>
      <point x="947" y="585"/>
      <point x="921" y="673"/>
      <point x="895" y="757"/>
      <point x="881" y="844"/>
      <point x="888" y="891" type="qcurve" smooth="yes"/>
      <point x="892" y="919"/>
      <point x="922" y="1000"/>
      <point x="998" y="1079"/>
      <point x="1144" y="1132"/>
      <point x="1264" y="1132" type="qcurve"/>
      <point x="1239" y="967" type="line"/>
      <point x="1219" y="967"/>
      <point x="1155" y="955"/>
      <point x="1100" y="910"/>
      <point x="1093" y="860" type="qcurve" smooth="yes"/>
      <point x="1086" y="807"/>
      <point x="1112" y="714"/>
      <point x="1147" y="613"/>
      <point x="1166" y="484"/>
      <point x="1152" y="395" type="qcurve" smooth="yes"/>
      <point x="1141" y="323"/>
      <point x="1074" y="177"/>
      <point x="940" y="54"/>
      <point x="724" y="-20"/>
      <point x="565" y="-20" type="qcurve" smooth="yes"/>
      <point x="407" y="-20"/>
      <point x="212" y="54"/>
      <point x="113" y="177"/>
      <point x="87" y="325"/>
      <point x="99" y="399" type="qcurve" smooth="yes"/>
      <point x="113" y="489"/>
      <point x="172" y="618"/>
      <point x="238" y="718"/>
      <point x="291" y="809"/>
      <point x="299" y="860" type="qcurve" smooth="yes"/>
      <point x="307" y="909"/>
      <point x="265" y="954"/>
      <point x="203" y="967"/>
      <point x="180" y="967" type="qcurve"/>
      <point x="202" y="1132" type="line"/>
      <point x="324" y="1132"/>
      <point x="456" y="1077"/>
      <point x="509" y="997"/>
      <point x="514" y="916"/>
      <point x="510" y="889" type="qcurve" smooth="yes"/>
      <point x="501" y="831"/>
      <point x="446" y="726"/>
      <point x="380" y="622"/>
      <point x="324" y="507"/>
      <point x="314" y="438" type="qcurve" smooth="yes"/>
      <point x="307" y="393"/>
      <point x="318" y="291"/>
      <point x="372" y="202"/>
      <point x="489" y="146"/>
    </contour>
  </outline>
</glyph>
<glyph name="yturn" format="2">
  <advance width="1151"/>
  <unicode hex="028E"/>
  <anchor x="719" y="0" name="m.uni0326"/>
  <anchor x="943" y="1614" name="m.uni030F_1"/>
  <anchor x="527" y="1180" name="m.uni0328_4"/>
  <outline>
    <contour>
      <point x="1170" y="1523" type="qcurve"/>
      <point x="1098" y="1367" type="line"/>
      <point x="1081" y="1371" type="line" smooth="yes"/>
      <point x="1026" y="1384"/>
      <point x="933" y="1371"/>
      <point x="850" y="1296"/>
      <point x="810" y="1217" type="qcurve" smooth="yes"/>
      <point x="763" y="1124" type="line"/>
      <point x="1004" y="0" type="line"/>
      <point x="816" y="0" type="line"/>
      <point x="687" y="663" type="line" smooth="yes"/>
      <point x="667" y="767"/>
      <point x="648" y="971"/>
      <point x="635" y="1067" type="qcurve"/>
      <point x="701" y="1067" type="line"/>
      <point x="656" y="971"/>
      <point x="570" y="767"/>
      <point x="515" y="663" type="qcurve" smooth="yes"/>
      <point x="166" y="0" type="line"/>
      <point x="-39" y="0" type="line"/>
      <point x="665" y="1285" type="line" smooth="yes"/>
      <point x="714" y="1374"/>
      <point x="828" y="1488"/>
      <point x="964" y="1544"/>
      <point x="1043" y="1544" type="qcurve" smooth="yes"/>
      <point x="1087" y="1544"/>
      <point x="1157" y="1531"/>
    </contour>
  </outline>
</glyph>
<glyph name="zrthook" format="2">
  <advance width="1131"/>
  <unicode hex="0290"/>
  <anchor x="656" y="0" name="m.uni0326"/>
  <anchor x="853" y="1180" name="m.uni030F_1"/>
  <outline>
    <contour>
      <point x="950" y="-427" type="qcurve" smooth="yes"/>
      <point x="813" y="-427"/>
      <point x="682" y="-299"/>
      <point x="703" y="-171" type="qcurve" smooth="yes"/>
      <point x="731" y="0" type="line"/>
      <point x="912" y="0" type="line"/>
      <point x="883" y="-171" type="line" smooth="yes"/>
      <point x="874" y="-224"/>
      <point x="940" y="-272"/>
      <point x="1022" y="-272" type="qcurve" smooth="yes"/>
      <point x="1035" y="-272"/>
      <point x="1066" y="-270"/>
      <point x="1082" y="-268" type="qcurve"/>
      <point x="1057" y="-418" type="line"/>
      <point x="1041" y="-422"/>
      <point x="983" y="-427"/>
    </contour>
    <contour>
      <point x="33" y="0" type="line"/>
      <point x="56" y="134" type="line"/>
      <point x="808" y="940" type="line"/>
      <point x="810" y="951" type="line"/>
      <point x="211" y="951" type="line"/>
      <point x="238" y="1118" type="line"/>
      <point x="1077" y="1118" type="line"/>
      <point x="1053" y="975" type="line"/>
      <point x="321" y="178" type="line"/>
      <point x="319" y="167" type="line"/>
      <point x="939" y="167" type="line"/>
      <point x="912" y="0" type="line"/>
    </contour>
  </outline>
</glyph>
<glyph name="uni0294" format="2">
  <advance width="1111"/>
  <unicode hex="0294"/>
  <outline>
    <contour>
      <point x="413" y="551" type="line"/>
      <point x="529" y="551" type="line" smooth="yes"/>
      <point x="637" y="551"/>
      <point x="776" y="659"/>
      <point x="854" y="830"/>
      <point x="872" y="924" type="qcurve" smooth="yes"/>
      <point x="881" y="971" type="line" smooth="yes"/>
      <point x="899" y="1065"/>
      <point x="877" y="1236"/>
      <point x="771" y="1344"/>
      <point x="662" y="1344" type="qcurve" smooth="yes"/>
      <point x="568" y="1344"/>
      <point x="412" y="1231"/>
      <point x="389" y="1147" type="qcurve"/>
      <point x="192" y="1147" type="line"/>
      <point x="214" y="1243"/>
      <point x="363" y="1409"/>
      <point x="574" y="1510"/>
      <point x="689" y="1510" type="qcurve" smooth="yes"/>
      <point x="859" y="1510"/>
      <point x="1055" y="1358"/>
      <point x="1117" y="1112"/>
      <point x="1087" y="971" type="qcurve" smooth="yes"/>
      <point x="1077" y="924" type="line" smooth="yes"/>
      <point x="1047" y="783"/>
      <point x="904" y="537"/>
      <point x="668" y="385"/>
      <point x="500" y="385" type="qcurve" smooth="yes"/>
      <point x="384" y="385" type="line"/>
    </contour>
    <contour>
      <point x="629" y="551" type="line"/>
      <point x="535" y="0" type="line"/>
      <point x="320" y="0" type="line"/>
      <point x="412" y="551" type="line"/>
    </contour>
  </outline>
</glyph>
<glyph name="cstretch" format="2">
  <advance width="1110"/>
  <unicode hex="0297"/>
  <outline>
    <contour>
      <point x="441" y="-276" type="qcurve" smooth="yes"/>
      <point x="505" y="-276"/>
      <point x="619" y="-224"/>
      <point x="702" y="-134"/>
      <point x="716" y="-79" type="qcurve"/>
      <point x="911" y="-79" type="line"/>
      <point x="891" y="-175"/>
      <point x="742" y="-340"/>
      <point x="530" y="-442"/>
      <point x="414" y="-442" type="qcurve" smooth="yes"/>
      <point x="248" y="-442"/>
      <point x="56" y="-294"/>
      <point x="-8" y="-47"/>
      <point x="16" y="99" type="qcurve" smooth="yes"/>
      <point x="98" y="589" type="line" smooth="yes"/>
      <point x="123" y="736"/>
      <point x="271" y="983"/>
      <point x="512" y="1132"/>
      <point x="676" y="1132" type="qcurve" smooth="yes"/>
      <point x="807" y="1132"/>
      <point x="983" y="1026"/>
      <point x="1062" y="846"/>
      <point x="1048" y="735" type="qcurve"/>
      <point x="853" y="735" type="line"/>
      <point x="861" y="829"/>
      <point x="757" y="966"/>
      <point x="649" y="966" type="qcurve" smooth="yes"/>
      <point x="539" y="966"/>
      <point x="400" y="853"/>
      <point x="324" y="680"/>
      <point x="308" y="589" type="qcurve" smooth="yes"/>
      <point x="224" y="99" type="line" smooth="yes"/>
      <point x="209" y="9"/>
      <point x="226" y="-164"/>
      <point x="329" y="-276"/>
    </contour>
  </outline>
</glyph>
<glyph name="glottalstopbar" format="2">
  <advance width="1108"/>
  <unicode hex="02A1"/>
  <outline>
    <contour>
      <point x="794" y="307" type="line"/>
      <point x="766" y="145" type="line"/>
      <point x="120" y="145" type="line"/>
      <point x="148" y="307" type="line"/>
    </contour>
    <contour>
      <point x="410" y="551" type="line"/>
      <point x="527" y="551" type="line" smooth="yes"/>
      <point x="635" y="551"/>
      <point x="774" y="659"/>
      <point x="852" y="830"/>
      <point x="870" y="924" type="qcurve" smooth="yes"/>
      <point x="879" y="971" type="line" smooth="yes"/>
      <point x="897" y="1065"/>
      <point x="875" y="1236"/>
      <point x="769" y="1344"/>
      <point x="660" y="1344" type="qcurve" smooth="yes"/>
      <point x="566" y="1344"/>
      <point x="410" y="1231"/>
      <point x="387" y="1147" type="qcurve"/>
      <point x="190" y="1147" type="line"/>
      <point x="212" y="1243"/>
      <point x="360" y="1409"/>
      <point x="571" y="1510"/>
      <point x="686" y="1510" type="qcurve" smooth="yes"/>
      <point x="852" y="1510"/>
      <point x="1046" y="1360"/>
      <point x="1112" y="1115"/>
      <point x="1084" y="971" type="qcurve" smooth="yes"/>
      <point x="1075" y="924" type="line" smooth="yes"/>
      <point x="1048" y="781"/>
      <point x="902" y="535"/>
      <point x="665" y="385"/>
      <point x="498" y="385" type="qcurve" smooth="yes"/>
      <point x="381" y="385" type="line"/>
    </contour>
    <contour>
      <point x="627" y="551" type="line"/>
      <point x="533" y="0" type="line"/>
      <point x="317" y="0" type="line"/>
      <point x="409" y="551" type="line"/>
    </contour>
  </outline>
</glyph>
<glyph name="uni02A7" format="2">
  <advance width="1146"/>
  <unicode hex="02A7"/>
  <outline>
    <contour>
      <point x="841" y="1082" type="line"/>
      <point x="812" y="929" type="line"/>
      <point x="98" y="929" type="line"/>
      <point x="127" y="1082" type="line"/>
    </contour>
    <contour>
      <point x="362" y="1343" type="line"/>
      <point x="570" y="1343" type="line"/>
      <point x="396" y="303" type="line" smooth="yes"/>
      <point x="382" y="218"/>
      <point x="423" y="154"/>
      <point x="487" y="154" type="qcurve" smooth="yes"/>
      <point x="517" y="154"/>
      <point x="588" y="164"/>
      <point x="644" y="174"/>
      <point x="651" y="175" type="qcurve"/>
      <point x="624" y="10" type="line"/>
      <point x="596" y="3"/>
      <point x="474" y="-20"/>
      <point x="405" y="-20" type="qcurve" smooth="yes"/>
      <point x="306" y="-20"/>
      <point x="200" y="56"/>
      <point x="172" y="201"/>
      <point x="189" y="303" type="qcurve" smooth="yes"/>
    </contour>
    <contour>
      <point x="762" y="0" type="line"/>
      <point x="556" y="0" type="line"/>
      <point x="754" y="1191" type="line" smooth="yes"/>
      <point x="783" y="1367"/>
      <point x="1010" y="1556"/>
      <point x="1182" y="1556" type="qcurve" smooth="yes"/>
      <point x="1214" y="1556"/>
      <point x="1276" y="1549"/>
      <point x="1310" y="1542" type="qcurve"/>
      <point x="1271" y="1376" type="line"/>
      <point x="1252" y="1381"/>
      <point x="1200" y="1384"/>
      <point x="1172" y="1384" type="qcurve" smooth="yes"/>
      <point x="1089" y="1384"/>
      <point x="976" y="1286"/>
      <point x="960" y="1191" type="qcurve" smooth="yes"/>
    </contour>
    <contour>
      <point x="742" y="1120" type="line"/>
      <point x="948" y="1120" type="line"/>
      <point x="753" y="-55" type="line" smooth="yes"/>
      <point x="724" y="-231"/>
      <point x="496" y="-418"/>
      <point x="323" y="-418" type="qcurve" smooth="yes"/>
      <point x="292" y="-418"/>
      <point x="231" y="-411"/>
      <point x="199" y="-404" type="qcurve"/>
      <point x="235" y="-238" type="line"/>
      <point x="255" y="-242"/>
      <point x="307" y="-248"/>
      <point x="333" y="-248" type="qcurve" smooth="yes"/>
      <point x="418" y="-248"/>
      <point x="531" y="-150"/>
      <point x="547" y="-55" type="qcurve" smooth="yes"/>
    </contour>
  </outline>
</glyph>
<glyph name="hhooksuper" format="2">
  <advance width="925"/>
  <unicode hex="02B1"/>
  <outline>
    <contour>
      <point x="490" y="1556" type="qcurve" smooth="yes"/>
      <point x="341" y="652" type="line"/>
      <point x="154" y="652" type="line"/>
      <point x="308" y="1567" type="line" smooth="yes"/>
      <point x="320" y="1639"/>
      <point x="363" y="1746"/>
      <point x="442" y="1806"/>
      <point x="506" y="1806" type="qcurve" smooth="yes"/>
      <point x="533" y="1806"/>
      <point x="583" y="1801"/>
      <point x="631" y="1793"/>
      <point x="654" y="1787" type="qcurve"/>
      <point x="626" y="1617" type="line"/>
      <point x="616" y="1619"/>
      <point x="576" y="1625"/>
      <point x="556" y="1625" type="qcurve" smooth="yes"/>
      <point x="536" y="1625"/>
      <point x="497" y="1597"/>
    </contour>
    <contour>
      <point x="389" y="1080" type="qcurve"/>
      <point x="340" y="1076" type="line"/>
      <point x="359" y="1189"/>
      <point x="454" y="1365"/>
      <point x="593" y="1466"/>
      <point x="678" y="1466" type="qcurve" smooth="yes"/>
      <point x="794" y="1466"/>
      <point x="912" y="1326"/>
      <point x="884" y="1160" type="qcurve" smooth="yes"/>
      <point x="799" y="652" type="line"/>
      <point x="612" y="652" type="line"/>
      <point x="692" y="1123" type="line" smooth="yes"/>
      <point x="710" y="1229"/>
      <point x="650" y="1311"/>
      <point x="590" y="1311" type="qcurve" smooth="yes"/>
      <point x="534" y="1311"/>
      <point x="452" y="1250"/>
      <point x="400" y="1146"/>
    </contour>
  </outline>
</glyph>
<glyph name="uni02DE" format="2">
  <advance width="575"/>
  <unicode hex="02DE"/>
  <outline>
    <contour>
      <point x="-8" y="551" type="line"/>
      <point x="13" y="706" type="line"/>
      <point x="391" y="775" type="line"/>
      <point x="392" y="692"/>
      <point x="395" y="581"/>
      <point x="436" y="526"/>
      <point x="491" y="526" type="qcurve" smooth="yes"/>
      <point x="502" y="526"/>
      <point x="539" y="536"/>
      <point x="549" y="538" type="qcurve"/>
      <point x="555" y="380" type="line"/>
      <point x="523" y="367"/>
      <point x="456" y="355"/>
      <point x="424" y="355" type="qcurve" smooth="yes"/>
      <point x="351" y="355"/>
      <point x="273" y="424"/>
      <point x="240" y="534"/>
      <point x="232" y="595" type="qcurve"/>
    </contour>
  </outline>
</glyph>
<glyph name="x.sups" format="2">
  <advance width="760"/>
  <unicode hex="02E3"/>
  <outline>
    <contour>
      <point x="377" y="1490" type="line"/>
      <point x="485" y="1210" type="line"/>
      <point x="691" y="1490" type="line"/>
      <point x="858" y="1490" type="line"/>
      <point x="576" y="1119" type="line"/>
      <point x="741" y="744" type="line"/>
      <point x="576" y="744" type="line"/>
      <point x="456" y="1027" type="line"/>
      <point x="243" y="744" type="line"/>
      <point x="76" y="744" type="line"/>
      <point x="365" y="1119" type="line"/>
      <point x="210" y="1490" type="line"/>
    </contour>
  </outline>
</glyph>
<glyph name="gravecomb" format="2">
  <unicode hex="0300"/>
  <anchor x="850" y="1180" name="_m.uni030F_1"/>
  <anchor x="850" y="1180" name="_t.uni030F"/>
  <anchor x="931" y="1667" name="t.uni030F"/>
  <outline>
    <contour>
      <point x="459" y="1264" type="line"/>
      <point x="315" y="1558" type="line"/>
      <point x="516" y="1558" type="line"/>
      <point x="606" y="1264" type="line"/>
    </contour>
  </outline>
</glyph>
<glyph name="acutecomb" format="2">
  <unicode hex="0301"/>
  <anchor x="342" y="1180" name="_m.uni030F_1"/>
  <anchor x="342" y="1180" name="_t.uni030F"/>
  <anchor x="416" y="1617" name="t.uni030F"/>
  <outline>
    <contour>
      <point x="160" y="1282" type="line"/>
      <point x="346" y="1558" type="line"/>
      <point x="547" y="1558" type="line"/>
      <point x="307" y="1282" type="line"/>
    </contour>
  </outline>
</glyph>
<glyph name="uni0302" format="2">
  <unicode hex="0302"/>
  <anchor x="663" y="1180" name="_m.uni030F_1"/>
  <anchor x="663" y="1180" name="_t.uni030F"/>
  <anchor x="744" y="1667" name="t.uni030F"/>
  <outline>
    <contour>
      <point x="399" y="1282" type="line"/>
      <point x="222" y="1282" type="line"/>
      <point x="224" y="1291" type="line"/>
      <point x="503" y="1558" type="line"/>
      <point x="674" y="1558" type="line"/>
      <point x="866" y="1291" type="line"/>
      <point x="864" y="1282" type="line"/>
      <point x="685" y="1282" type="line"/>
      <point x="573" y="1457" type="line"/>
    </contour>
  </outline>
</glyph>
<glyph name="tildecomb" format="2">
  <unicode hex="0303"/>
  <anchor x="679" y="1180" name="_m.uni030F_1"/>
  <anchor x="679" y="1180" name="_t.uni030F"/>
  <anchor x="760" y="1639" name="t.uni030F"/>
  <outline>
    <contour>
      <point x="774" y="1313" type="qcurve" smooth="yes"/>
      <point x="737" y="1313"/>
      <point x="670" y="1338"/>
      <point x="612" y="1371"/>
      <point x="564" y="1396"/>
      <point x="545" y="1396" type="qcurve" smooth="yes"/>
      <point x="517" y="1396"/>
      <point x="484" y="1345"/>
      <point x="478" y="1317" type="qcurve"/>
      <point x="352" y="1317" type="line"/>
      <point x="371" y="1409"/>
      <point x="470" y="1525"/>
      <point x="549" y="1525" type="qcurve" smooth="yes"/>
      <point x="588" y="1525"/>
      <point x="650" y="1499"/>
      <point x="703" y="1466"/>
      <point x="751" y="1440"/>
      <point x="776" y="1440" type="qcurve" smooth="yes"/>
      <point x="802" y="1440"/>
      <point x="833" y="1479"/>
      <point x="845" y="1521" type="qcurve"/>
      <point x="968" y="1521" type="line"/>
      <point x="949" y="1424"/>
      <point x="846" y="1313"/>
    </contour>
  </outline>
</glyph>
<glyph name="hookabovecomb" format="2">
  <unicode hex="0309"/>
  <anchor x="472" y="1180" name="_m.uni030F_1"/>
  <anchor x="472" y="1180" name="_t.uni030F"/>
  <outline>
    <contour>
      <point x="442" y="1264" type="line"/>
      <point x="307" y="1264" type="line"/>
      <point x="400" y="1401" type="line" smooth="yes"/>
      <point x="414" y="1422"/>
      <point x="405" y="1440"/>
      <point x="385" y="1440" type="qcurve" smooth="yes"/>
      <point x="246" y="1440" type="line"/>
      <point x="265" y="1558" type="line"/>
      <point x="404" y="1558" type="line" smooth="yes"/>
      <point x="464" y="1558"/>
      <point x="539" y="1526"/>
      <point x="566" y="1469"/>
      <point x="546" y="1394"/>
      <point x="511" y="1350" type="qcurve" smooth="yes"/>
    </contour>
  </outline>
</glyph>
<glyph name="uni031B" format="2">
  <unicode hex="031B"/>
  <outline>
    <contour>
      <point x="48" y="1412" type="line"/>
      <point x="47" y="1412"/>
      <point x="7" y="1312"/>
      <point x="-62" y="1167"/>
      <point x="-152" y="1027"/>
      <point x="-203" y="987" type="qcurve"/>
      <point x="-306" y="1064" type="line"/>
      <point x="-276" y="1101"/>
      <point x="-228" y="1177"/>
      <point x="-191" y="1261"/>
      <point x="-163" y="1356"/>
      <point x="-154" y="1412" type="qcurve"/>
    </contour>
  </outline>
</glyph>
<glyph name="uni0327" format="2">
  <unicode hex="0327"/>
  <anchor x="571" y="0" name="_m.uni0327_3"/>
  <outline>
    <contour>
      <point x="-7" y="-418" type="line"/>
      <point x="10" y="-313" type="line"/>
      <point x="128" y="-313" type="line" smooth="yes"/>
      <point x="183" y="-313"/>
      <point x="231" y="-284"/>
      <point x="237" y="-248" type="qcurve" smooth="yes"/>
      <point x="243" y="-212"/>
      <point x="207" y="-182"/>
      <point x="150" y="-182" type="qcurve" smooth="yes"/>
      <point x="68" y="-182" type="line"/>
      <point x="136" y="48" type="line"/>
      <point x="231" y="48" type="line"/>
      <point x="223" y="0" type="line"/>
      <point x="209" y="-86" type="line"/>
      <point x="304" y="-90"/>
      <point x="384" y="-165"/>
      <point x="371" y="-245" type="qcurve" smooth="yes"/>
      <point x="357" y="-334"/>
      <point x="235" y="-418"/>
      <point x="112" y="-418" type="qcurve" smooth="yes"/>
    </contour>
  </outline>
</glyph>
<glyph name="uni0337" format="2">
  <unicode hex="0337"/>
  <outline>
    <contour>
      <point x="-89" y="1209" type="line"/>
      <point x="-975" y="-135" type="line"/>
      <point x="-1108" y="-135" type="line"/>
      <point x="-222" y="1209" type="line"/>
    </contour>
  </outline>
</glyph>
<glyph name="uni0351" format="2">
  <unicode hex="0351"/>
  <outline>
    <contour>
      <point x="-333" y="1114" type="line"/>
      <point x="-421" y="1113"/>
      <point x="-520" y="1222"/>
      <point x="-507" y="1307" type="qcurve" smooth="yes"/>
      <point x="-493" y="1396"/>
      <point x="-351" y="1511"/>
      <point x="-267" y="1511" type="qcurve"/>
      <point x="-281" y="1417" type="line"/>
      <point x="-321" y="1418"/>
      <point x="-392" y="1357"/>
      <point x="-401" y="1310" type="qcurve" smooth="yes"/>
      <point x="-409" y="1267"/>
      <point x="-360" y="1203"/>
      <point x="-317" y="1204" type="qcurve"/>
    </contour>
  </outline>
</glyph>
<glyph name="uni0352" format="2">
  <unicode hex="0352"/>
  <outline>
    <contour>
      <point x="-137" y="1421" type="qcurve"/>
      <point x="-301" y="1421" type="line"/>
      <point x="-291" y="1483"/>
      <point x="-347" y="1565"/>
      <point x="-418" y="1565" type="qcurve" smooth="yes"/>
      <point x="-494" y="1565"/>
      <point x="-575" y="1480"/>
      <point x="-584" y="1421" type="qcurve"/>
      <point x="-748" y="1421" type="line"/>
      <point x="-734" y="1501"/>
      <point x="-640" y="1624"/>
      <point x="-491" y="1695"/>
      <point x="-397" y="1695" type="qcurve" smooth="yes"/>
      <point x="-254" y="1695"/>
      <point x="-117" y="1540"/>
    </contour>
    <contour>
      <point x="-584" y="1281" type="qcurve" smooth="yes"/>
      <point x="-576" y="1328"/>
      <point x="-506" y="1394"/>
      <point x="-450" y="1394" type="qcurve" smooth="yes"/>
      <point x="-392" y="1394"/>
      <point x="-338" y="1329"/>
      <point x="-346" y="1282" type="qcurve" smooth="yes"/>
      <point x="-354" y="1235"/>
      <point x="-427" y="1169"/>
      <point x="-485" y="1169" type="qcurve" smooth="yes"/>
      <point x="-540" y="1169"/>
      <point x="-591" y="1234"/>
    </contour>
  </outline>
</glyph>
<glyph name="uni0367" format="2">
  <unicode hex="0367"/>
  <anchor x="-565" y="1818" name="_t.uni0367_2"/>
  <outline>
    <contour>
      <point x="-338" y="1330" type="line"/>
      <point x="-268" y="1754" type="line"/>
      <point x="-134" y="1754" type="line"/>
      <point x="-224" y="1202" type="line"/>
      <point x="-327" y="1202" type="line"/>
    </contour>
    <contour>
      <point x="-300" y="1458" type="qcurve"/>
      <point x="-253" y="1460" type="line"/>
      <point x="-272" y="1342"/>
      <point x="-396" y="1192"/>
      <point x="-510" y="1192" type="qcurve" smooth="yes"/>
      <point x="-595" y="1192"/>
      <point x="-681" y="1300"/>
      <point x="-660" y="1427" type="qcurve" smooth="yes"/>
      <point x="-606" y="1754" type="line"/>
      <point x="-472" y="1754" type="line"/>
      <point x="-528" y="1425" type="line" smooth="yes"/>
      <point x="-539" y="1359"/>
      <point x="-502" y="1300"/>
      <point x="-453" y="1300" type="qcurve" smooth="yes"/>
      <point x="-387" y="1300"/>
      <point x="-313" y="1381"/>
    </contour>
  </outline>
</glyph>
<glyph name="uni0368" format="2">
  <unicode hex="0368"/>
  <outline>
    <contour>
      <point x="-456" y="1186" type="qcurve" smooth="yes"/>
      <point x="-548" y="1186"/>
      <point x="-653" y="1265"/>
      <point x="-686" y="1392"/>
      <point x="-672" y="1464" type="qcurve" smooth="yes"/>
      <point x="-668" y="1484" type="line" smooth="yes"/>
      <point x="-645" y="1597"/>
      <point x="-493" y="1760"/>
      <point x="-364" y="1760" type="qcurve" smooth="yes"/>
      <point x="-252" y="1760"/>
      <point x="-154" y="1639"/>
      <point x="-162" y="1559" type="qcurve"/>
      <point x="-289" y="1559" type="line"/>
      <point x="-286" y="1594"/>
      <point x="-332" y="1650"/>
      <point x="-382" y="1650" type="qcurve" smooth="yes"/>
      <point x="-423" y="1650"/>
      <point x="-485" y="1605"/>
      <point x="-525" y="1529"/>
      <point x="-534" y="1484" type="qcurve" smooth="yes"/>
      <point x="-538" y="1464" type="line" smooth="yes"/>
      <point x="-547" y="1417"/>
      <point x="-533" y="1340"/>
      <point x="-483" y="1296"/>
      <point x="-440" y="1296" type="qcurve" smooth="yes"/>
      <point x="-396" y="1296"/>
      <point x="-332" y="1340"/>
      <point x="-321" y="1375" type="qcurve"/>
      <point x="-193" y="1375" type="line"/>
      <point x="-203" y="1324"/>
      <point x="-282" y="1238"/>
      <point x="-394" y="1186"/>
    </contour>
  </outline>
</glyph>
<glyph name="uni036A" format="2">
  <unicode hex="036A"/>
  <outline>
    <contour>
      <point x="-432" y="1992" type="line"/>
      <point x="-562" y="1202" type="line"/>
      <point x="-696" y="1202" type="line"/>
      <point x="-564" y="1992" type="line"/>
    </contour>
    <contour>
      <point x="-534" y="1492" type="qcurve"/>
      <point x="-580" y="1492" type="line"/>
      <point x="-560" y="1608"/>
      <point x="-437" y="1760"/>
      <point x="-326" y="1760" type="qcurve" smooth="yes"/>
      <point x="-237" y="1760"/>
      <point x="-152" y="1648"/>
      <point x="-172" y="1523" type="qcurve" smooth="yes"/>
      <point x="-224" y="1202" type="line"/>
      <point x="-358" y="1202" type="line"/>
      <point x="-306" y="1523" type="line" smooth="yes"/>
      <point x="-296" y="1583"/>
      <point x="-326" y="1650"/>
      <point x="-381" y="1650" type="qcurve" smooth="yes"/>
      <point x="-447" y="1650"/>
      <point x="-520" y="1566"/>
    </contour>
  </outline>
</glyph>
<glyph name="uni036D" format="2">
  <unicode hex="036D"/>
  <outline>
    <contour>
      <point x="-225" y="1760" type="line"/>
      <point x="-243" y="1651" type="line"/>
      <point x="-576" y="1651" type="line"/>
      <point x="-558" y="1760" type="line"/>
    </contour>
    <contour>
      <point x="-437" y="1894" type="line"/>
      <point x="-301" y="1894" type="line"/>
      <point x="-385" y="1388" type="line" smooth="yes"/>
      <point x="-392" y="1348"/>
      <point x="-373" y="1307"/>
      <point x="-350" y="1307" type="qcurve" smooth="yes"/>
      <point x="-338" y="1307"/>
      <point x="-310" y="1311"/>
      <point x="-306" y="1313" type="qcurve"/>
      <point x="-324" y="1208" type="line"/>
      <point x="-333" y="1204"/>
      <point x="-377" y="1198"/>
      <point x="-404" y="1198" type="qcurve" smooth="yes"/>
      <point x="-483" y="1198"/>
      <point x="-537" y="1292"/>
      <point x="-522" y="1382" type="qcurve" smooth="yes"/>
    </contour>
  </outline>
</glyph>
<glyph name="uni037B" format="2">
  <advance width="1110"/>
  <unicode hex="037B"/>
  <outline>
    <contour>
      <point x="58" y="347" type="qcurve"/>
      <point x="255" y="347" type="line"/>
      <point x="251" y="292"/>
      <point x="299" y="200"/>
      <point x="398" y="146"/>
      <point x="469" y="146" type="qcurve" smooth="yes"/>
      <point x="574" y="146"/>
      <point x="711" y="260"/>
      <point x="788" y="433"/>
      <point x="804" y="521" type="qcurve" smooth="yes"/>
      <point x="814" y="576" type="line" smooth="yes"/>
      <point x="832" y="675"/>
      <point x="810" y="854"/>
      <point x="706" y="966"/>
      <point x="601" y="966" type="qcurve" smooth="yes"/>
      <point x="485" y="966"/>
      <point x="341" y="821"/>
      <point x="314" y="707" type="qcurve"/>
      <point x="119" y="707" type="line"/>
      <point x="145" y="833"/>
      <point x="284" y="1024"/>
      <point x="495" y="1132"/>
      <point x="628" y="1132" type="qcurve" smooth="yes"/>
      <point x="790" y="1132"/>
      <point x="980" y="981"/>
      <point x="1046" y="728"/>
      <point x="1020" y="575" type="qcurve" smooth="yes"/>
      <point x="1011" y="521" type="line" smooth="yes"/>
      <point x="987" y="377"/>
      <point x="836" y="131"/>
      <point x="597" y="-20"/>
      <point x="441" y="-20" type="qcurve" smooth="yes"/>
      <point x="313" y="-20"/>
      <point x="135" y="84"/>
      <point x="48" y="251"/>
    </contour>
  </outline>
</glyph>
<glyph name="dieresistonos" format="2">
  <advance width="1106"/>
  <unicode hex="0385"/>
  <outline>
    <contour>
      <point x="941" y="1304" type="qcurve" smooth="yes"/>
      <point x="893" y="1304"/>
      <point x="836" y="1372"/>
      <point x="844" y="1420" type="qcurve" smooth="yes"/>
      <point x="852" y="1468"/>
      <point x="931" y="1536"/>
      <point x="979" y="1536" type="qcurve" smooth="yes"/>
      <point x="1027" y="1536"/>
      <point x="1084" y="1468"/>
      <point x="1076" y="1420" type="qcurve" smooth="yes"/>
      <point x="1068" y="1372"/>
      <point x="989" y="1304"/>
    </contour>
    <contour>
      <point x="395" y="1304" type="qcurve" smooth="yes"/>
      <point x="347" y="1304"/>
      <point x="290" y="1372"/>
      <point x="298" y="1420" type="qcurve" smooth="yes"/>
      <point x="306" y="1468"/>
      <point x="385" y="1536"/>
      <point x="433" y="1536" type="qcurve" smooth="yes"/>
      <point x="481" y="1536"/>
      <point x="538" y="1468"/>
      <point x="530" y="1420" type="qcurve" smooth="yes"/>
      <point x="522" y="1372"/>
      <point x="443" y="1304"/>
    </contour>
    <contour>
      <point x="636" y="1529" type="line"/>
      <point x="719" y="1823" type="line"/>
      <point x="912" y="1823" type="line"/>
      <point x="761" y="1529" type="line"/>
    </contour>
  </outline>
</glyph>
<glyph name="Theta" format="2">
  <advance width="1566"/>
  <unicode hex="0398"/>
  <anchor x="712" y="0" name="m.uni0326"/>
  <anchor x="960" y="1490" name="m.uni030F_1"/>
  <anchor x="1600" y="902" name="m.uni0328_4"/>
  <outline>
    <contour>
      <point x="1138" y="824" type="line"/>
      <point x="1112" y="664" type="line"/>
      <point x="484" y="664" type="line"/>
      <point x="510" y="824" type="line"/>
    </contour>
    <contour>
      <point x="700" y="-20" type="qcurve" smooth="yes"/>
      <point x="531" y="-20"/>
      <point x="279" y="124"/>
      <point x="140" y="393"/>
      <point x="140" y="580" type="qcurve" smooth="yes"/>
      <point x="140" y="757"/>
      <point x="250" y="1090"/>
      <point x="458" y="1354"/>
      <point x="750" y="1510"/>
      <point x="931" y="1510" type="qcurve" smooth="yes"/>
      <point x="1100" y="1510"/>
      <point x="1350" y="1366"/>
      <point x="1489" y="1098"/>
      <point x="1489" y="911" type="qcurve" smooth="yes"/>
      <point x="1489" y="733"/>
      <point x="1379" y="400"/>
      <point x="1172" y="135"/>
      <point x="881" y="-20"/>
    </contour>
    <contour>
      <point x="707" y="156" type="qcurve" smooth="yes"/>
      <point x="847" y="156"/>
      <point x="1069" y="284"/>
      <point x="1224" y="500"/>
      <point x="1305" y="767"/>
      <point x="1305" y="906" type="qcurve" smooth="yes"/>
      <point x="1305" y="1046"/>
      <point x="1208" y="1237"/>
      <point x="1036" y="1334"/>
      <point x="924" y="1334" type="qcurve" smooth="yes"/>
      <point x="784" y="1334"/>
      <point x="562" y="1206"/>
      <point x="406" y="990"/>
      <point x="324" y="724"/>
      <point x="324" y="585" type="qcurve" smooth="yes"/>
      <point x="324" y="445"/>
      <point x="422" y="254"/>
      <point x="595" y="156"/>
    </contour>
  </outline>
</glyph>
<glyph name="Psi" format="2">
  <advance width="1803"/>
  <unicode hex="03A8"/>
  <outline>
    <contour>
      <point x="1593" y="1490" type="line"/>
      <point x="1777" y="1490" type="line"/>
      <point x="1713" y="1105" type="line" smooth="yes"/>
      <point x="1676" y="883"/>
      <point x="1482" y="585"/>
      <point x="1167" y="435"/>
      <point x="948" y="435" type="qcurve" smooth="yes"/>
      <point x="814" y="435" type="line" smooth="yes"/>
      <point x="654" y="435"/>
      <point x="422" y="516"/>
      <point x="284" y="682"/>
      <point x="241" y="934"/>
      <point x="270" y="1105" type="qcurve" smooth="yes"/>
      <point x="335" y="1490" type="line"/>
      <point x="519" y="1490" type="line"/>
      <point x="456" y="1116" type="line" smooth="yes"/>
      <point x="424" y="926"/>
      <point x="480" y="697"/>
      <point x="670" y="595"/>
      <point x="839" y="595" type="qcurve" smooth="yes"/>
      <point x="975" y="595" type="line" smooth="yes"/>
      <point x="1145" y="595"/>
      <point x="1367" y="697"/>
      <point x="1498" y="926"/>
      <point x="1530" y="1116" type="qcurve" smooth="yes"/>
    </contour>
    <contour>
      <point x="964" y="1490" type="line"/>
      <point x="1147" y="1490" type="line"/>
      <point x="900" y="0" type="line"/>
      <point x="717" y="0" type="line"/>
    </contour>
  </outline>
</glyph>
<glyph name="alpha" format="2">
  <advance width="1360"/>
  <unicode hex="03B1"/>
  <anchor x="559" y="0" name="m.uni0326"/>
  <anchor x="867" y="1180" name="m.uni030F_1"/>
  <outline>
    <contour>
      <point x="505" y="-24" type="qcurve" smooth="yes"/>
      <point x="360" y="-24"/>
      <point x="160" y="125"/>
      <point x="75" y="387"/>
      <point x="103" y="555" type="qcurve" smooth="yes"/>
      <point x="132" y="727"/>
      <point x="299" y="986"/>
      <point x="544" y="1132"/>
      <point x="690" y="1132" type="qcurve" smooth="yes"/>
      <point x="805" y="1132"/>
      <point x="951" y="1048"/>
      <point x="1032" y="915"/>
      <point x="1063" y="766"/>
      <point x="1064" y="701" type="qcurve"/>
      <point x="1129" y="701" type="line"/>
      <point x="1112" y="562" type="line"/>
      <point x="1188" y="0" type="line"/>
      <point x="1018" y="0" type="line"/>
      <point x="974" y="562" type="line" smooth="yes"/>
      <point x="970" y="615"/>
      <point x="948" y="754"/>
      <point x="891" y="885"/>
      <point x="778" y="971"/>
      <point x="683" y="971" type="qcurve" smooth="yes"/>
      <point x="584" y="971"/>
      <point x="419" y="869"/>
      <point x="306" y="681"/>
      <point x="285" y="551" type="qcurve" smooth="yes"/>
      <point x="265" y="425"/>
      <point x="306" y="239"/>
      <point x="425" y="137"/>
      <point x="520" y="137" type="qcurve" smooth="yes"/>
      <point x="613" y="137"/>
      <point x="762" y="225"/>
      <point x="875" y="358"/>
      <point x="952" y="501"/>
      <point x="973" y="556" type="qcurve" smooth="yes"/>
      <point x="1187" y="1118" type="line"/>
      <point x="1357" y="1118" type="line"/>
      <point x="1111" y="556" type="line"/>
      <point x="1083" y="423" type="line"/>
      <point x="1028" y="423" type="line"/>
      <point x="1001" y="358"/>
      <point x="917" y="204"/>
      <point x="793" y="65"/>
      <point x="621" y="-24"/>
    </contour>
  </outline>
</glyph>
<glyph name="theta" format="2">
  <advance width="1271"/>
  <unicode hex="03B8"/>
  <outline>
    <contour>
      <point x="538" y="-24" type="qcurve" smooth="yes"/>
      <point x="381" y="-24"/>
      <point x="180" y="156"/>
      <point x="110" y="485"/>
      <point x="146" y="711" type="qcurve" smooth="yes"/>
      <point x="157" y="779" type="line" smooth="yes"/>
      <point x="193" y="1002"/>
      <point x="371" y="1332"/>
      <point x="632" y="1514"/>
      <point x="793" y="1514" type="qcurve" smooth="yes"/>
      <point x="954" y="1514"/>
      <point x="1157" y="1333"/>
      <point x="1226" y="1003"/>
      <point x="1186" y="779" type="qcurve" smooth="yes"/>
      <point x="1174" y="711" type="line" smooth="yes"/>
      <point x="1134" y="482"/>
      <point x="951" y="152"/>
      <point x="692" y="-24"/>
    </contour>
    <contour>
      <point x="565" y="137" type="qcurve" smooth="yes"/>
      <point x="729" y="137"/>
      <point x="945" y="422"/>
      <point x="987" y="678" type="qcurve" smooth="yes"/>
      <point x="1009" y="812" type="line" smooth="yes"/>
      <point x="1051" y="1068"/>
      <point x="930" y="1353"/>
      <point x="766" y="1353" type="qcurve" smooth="yes"/>
      <point x="603" y="1353"/>
      <point x="386" y="1068"/>
      <point x="344" y="812" type="qcurve" smooth="yes"/>
      <point x="322" y="678" type="line" smooth="yes"/>
      <point x="279" y="418"/>
      <point x="405" y="137"/>
    </contour>
    <contour>
      <point x="271" y="670" type="line"/>
      <point x="296" y="820" type="line"/>
      <point x="1065" y="820" type="line"/>
      <point x="1040" y="670" type="line"/>
    </contour>
  </outline>
</glyph>
<glyph name="nu" format="2">
  <advance width="1202"/>
  <unicode hex="03BD"/>
  <anchor x="662" y="0" name="m.uni0326"/>
  <anchor x="857" y="1180" name="m.uni030F_1"/>
  <outline>
    <contour>
      <point x="440" y="0" type="line"/>
      <point x="248" y="894" type="line" smooth="yes"/>
      <point x="239" y="936"/>
      <point x="195" y="971"/>
      <point x="148" y="971" type="qcurve" smooth="yes"/>
      <point x="123" y="971" type="line"/>
      <point x="148" y="1126" type="line"/>
      <point x="178" y="1126" type="line" smooth="yes"/>
      <point x="285" y="1126"/>
      <point x="409" y="1045"/>
      <point x="425" y="961" type="qcurve" smooth="yes"/>
      <point x="524" y="455" type="line" smooth="yes"/>
      <point x="544" y="352"/>
      <point x="564" y="145"/>
      <point x="576" y="51" type="qcurve"/>
      <point x="511" y="51" type="line"/>
      <point x="556" y="147"/>
      <point x="641" y="352"/>
      <point x="696" y="455" type="qcurve" smooth="yes"/>
      <point x="1045" y="1118" type="line"/>
      <point x="1241" y="1118" type="line"/>
      <point x="629" y="0" type="line"/>
    </contour>
  </outline>
</glyph>
<glyph name="pi" format="2">
  <advance width="1241"/>
  <unicode hex="03C0"/>
  <outline>
    <contour>
      <point x="976" y="-8" type="qcurve" smooth="yes"/>
      <point x="849" y="-8"/>
      <point x="747" y="126"/>
      <point x="767" y="248" type="qcurve" smooth="yes"/>
      <point x="902" y="1061" type="line"/>
      <point x="1082" y="1061" type="line"/>
      <point x="954" y="293" type="line" smooth="yes"/>
      <point x="941" y="217"/>
      <point x="967" y="152"/>
      <point x="1024" y="152" type="qcurve" smooth="yes"/>
      <point x="1053" y="152"/>
      <point x="1084" y="156"/>
      <point x="1097" y="160" type="qcurve"/>
      <point x="1108" y="9" type="line"/>
      <point x="1086" y="3"/>
      <point x="1015" y="-8"/>
    </contour>
    <contour>
      <point x="131" y="0" type="line"/>
      <point x="307" y="1061" type="line"/>
      <point x="486" y="1061" type="line"/>
      <point x="311" y="0" type="line"/>
    </contour>
    <contour>
      <point x="110" y="965" type="line"/>
      <point x="135" y="1118" type="line"/>
      <point x="1288" y="1118" type="line"/>
      <point x="1263" y="965" type="line"/>
    </contour>
  </outline>
</glyph>
<glyph name="uni03C2" format="2">
  <advance width="1165"/>
  <unicode hex="03C2"/>
  <outline>
    <contour>
      <point x="719" y="-287" type="line"/>
      <point x="746" y="-126" type="line" smooth="yes"/>
      <point x="756" y="-67"/>
      <point x="689" y="0"/>
      <point x="620" y="0" type="qcurve" smooth="yes"/>
      <point x="521" y="0" type="line" smooth="yes"/>
      <point x="369" y="0"/>
      <point x="162" y="132"/>
      <point x="75" y="380"/>
      <point x="103" y="552" type="qcurve" smooth="yes"/>
      <point x="132" y="728"/>
      <point x="303" y="988"/>
      <point x="556" y="1132"/>
      <point x="708" y="1132" type="qcurve" smooth="yes"/>
      <point x="790" y="1132"/>
      <point x="928" y="1090"/>
      <point x="1033" y="1010"/>
      <point x="1100" y="895"/>
      <point x="1110" y="823" type="qcurve"/>
      <point x="929" y="774" type="line"/>
      <point x="924" y="817"/>
      <point x="887" y="889"/>
      <point x="824" y="942"/>
      <point x="737" y="971"/>
      <point x="682" y="971" type="qcurve" smooth="yes"/>
      <point x="570" y="971"/>
      <point x="406" y="853"/>
      <point x="305" y="663"/>
      <point x="286" y="554" type="qcurve" smooth="yes"/>
      <point x="268" y="445"/>
      <point x="307" y="265"/>
      <point x="434" y="157"/>
      <point x="548" y="157" type="qcurve" smooth="yes"/>
      <point x="647" y="157" type="line" smooth="yes"/>
      <point x="741" y="157"/>
      <point x="873" y="89"/>
      <point x="934" y="-36"/>
      <point x="919" y="-124" type="qcurve" smooth="yes"/>
      <point x="892" y="-287" type="line"/>
    </contour>
  </outline>
</glyph>
<glyph name="phi" format="2">
  <advance width="1476"/>
  <unicode hex="03C6"/>
  <outline>
    <contour>
      <point x="485" y="-418" type="line"/>
      <point x="686" y="798" type="line" smooth="yes"/>
      <point x="704" y="907"/>
      <point x="798" y="1059"/>
      <point x="944" y="1138"/>
      <point x="1038" y="1138" type="qcurve" smooth="yes"/>
      <point x="1165" y="1138"/>
      <point x="1336" y="999"/>
      <point x="1404" y="748"/>
      <point x="1376" y="581" type="qcurve" smooth="yes"/>
      <point x="1343" y="384"/>
      <point x="1142" y="114"/>
      <point x="833" y="-24"/>
      <point x="638" y="-24" type="qcurve" smooth="yes"/>
      <point x="613" y="-24" type="line" smooth="yes"/>
      <point x="427" y="-24"/>
      <point x="179" y="119"/>
      <point x="75" y="380"/>
      <point x="104" y="556" type="qcurve" smooth="yes"/>
      <point x="126" y="688"/>
      <point x="248" y="924"/>
      <point x="431" y="1094"/>
      <point x="545" y="1125" type="qcurve"/>
      <point x="566" y="971" type="line"/>
      <point x="496" y="952"/>
      <point x="382" y="845"/>
      <point x="305" y="681"/>
      <point x="287" y="575" type="qcurve" smooth="yes"/>
      <point x="263" y="427"/>
      <point x="330" y="233"/>
      <point x="505" y="137"/>
      <point x="641" y="137" type="qcurve" smooth="yes"/>
      <point x="665" y="137" type="line" smooth="yes"/>
      <point x="815" y="137"/>
      <point x="1034" y="230"/>
      <point x="1170" y="427"/>
      <point x="1196" y="582" type="qcurve" smooth="yes"/>
      <point x="1215" y="696"/>
      <point x="1191" y="874"/>
      <point x="1104" y="977"/>
      <point x="1027" y="977" type="qcurve" smooth="yes"/>
      <point x="984" y="977"/>
      <point x="920" y="942"/>
      <point x="879" y="875"/>
      <point x="871" y="826" type="qcurve" smooth="yes"/>
      <point x="665" y="-418" type="line"/>
    </contour>
  </outline>
</glyph>
<glyph name="chi" format="2">
  <advance width="1169"/>
  <unicode hex="03C7"/>
  <outline>
    <contour>
      <point x="-88" y="-418" type="line"/>
      <point x="523" y="462" type="line"/>
      <point x="606" y="462" type="line"/>
      <point x="815" y="-147" type="line" smooth="yes"/>
      <point x="832" y="-196"/>
      <point x="862" y="-241"/>
      <point x="914" y="-252"/>
      <point x="963" y="-252" type="qcurve" smooth="yes"/>
      <point x="1007" y="-252" type="line"/>
      <point x="980" y="-418" type="line"/>
      <point x="944" y="-418" type="line" smooth="yes"/>
      <point x="859" y="-418"/>
      <point x="753" y="-388"/>
      <point x="687" y="-304"/>
      <point x="660" y="-224" type="qcurve" smooth="yes"/>
      <point x="524" y="181" type="line"/>
      <point x="111" y="-418" type="line"/>
    </contour>
    <contour>
      <point x="472" y="297" type="line"/>
      <point x="277" y="843" type="line" smooth="yes"/>
      <point x="257" y="901"/>
      <point x="228" y="950"/>
      <point x="181" y="962"/>
      <point x="131" y="962" type="qcurve" smooth="yes"/>
      <point x="87" y="962" type="line"/>
      <point x="115" y="1128" type="line"/>
      <point x="151" y="1128" type="line" smooth="yes"/>
      <point x="234" y="1128"/>
      <point x="335" y="1096"/>
      <point x="402" y="1007"/>
      <point x="432" y="920" type="qcurve" smooth="yes"/>
      <point x="570" y="528" type="line"/>
      <point x="984" y="1118" type="line"/>
      <point x="1183" y="1118" type="line"/>
      <point x="604" y="297" type="line"/>
    </contour>
  </outline>
</glyph>
<glyph name="omega" format="2">
  <advance width="1648"/>
  <unicode hex="03C9"/>
  <anchor x="893" y="0" name="m.uni0326"/>
  <anchor x="1088" y="1180" name="m.uni030F_1"/>
  <outline>
    <contour>
      <point x="420" y="-16" type="qcurve" smooth="yes"/>
      <point x="302" y="-16"/>
      <point x="135" y="99"/>
      <point x="66" y="328"/>
      <point x="94" y="500" type="qcurve" smooth="yes"/>
      <point x="120" y="654"/>
      <point x="238" y="897"/>
      <point x="378" y="1070"/>
      <point x="437" y="1118" type="qcurve"/>
      <point x="639" y="1118" type="line"/>
      <point x="565" y="1049"/>
      <point x="415" y="872"/>
      <point x="300" y="645"/>
      <point x="276" y="501" type="qcurve" smooth="yes"/>
      <point x="248" y="330"/>
      <point x="339" y="144"/>
      <point x="452" y="144" type="qcurve" smooth="yes"/>
      <point x="561" y="144"/>
      <point x="697" y="318"/>
      <point x="724" y="478" type="qcurve" smooth="yes"/>
      <point x="765" y="722" type="line"/>
      <point x="940" y="722" type="line"/>
      <point x="899" y="478" type="line" smooth="yes"/>
      <point x="872" y="318"/>
      <point x="941" y="144"/>
      <point x="1053" y="144" type="qcurve" smooth="yes"/>
      <point x="1172" y="144"/>
      <point x="1324" y="332"/>
      <point x="1352" y="500" type="qcurve" smooth="yes"/>
      <point x="1376" y="643"/>
      <point x="1336" y="870"/>
      <point x="1246" y="1049"/>
      <point x="1193" y="1118" type="qcurve"/>
      <point x="1395" y="1118" type="line"/>
      <point x="1441" y="1068"/>
      <point x="1523" y="893"/>
      <point x="1559" y="651"/>
      <point x="1534" y="500" type="qcurve" smooth="yes"/>
      <point x="1506" y="328"/>
      <point x="1361" y="99"/>
      <point x="1154" y="-16"/>
      <point x="1032" y="-16" type="qcurve" smooth="yes"/>
      <point x="934" y="-16"/>
      <point x="816" y="55"/>
      <point x="761" y="180"/>
      <point x="755" y="261" type="qcurve"/>
      <point x="788" y="261" type="line"/>
      <point x="756" y="177"/>
      <point x="655" y="52"/>
      <point x="513" y="-16"/>
    </contour>
  </outline>
</glyph>
<glyph name="uni03F4" format="2">
  <advance width="1566"/>
  <unicode hex="03F4"/>
  <anchor x="711" y="0" name="m.uni0326"/>
  <anchor x="959" y="1490" name="m.uni030F_1"/>
  <anchor x="1599" y="902" name="m.uni0328_4"/>
  <outline>
    <contour>
      <point x="1320" y="824" type="line"/>
      <point x="1320" y="664" type="line"/>
      <point x="296" y="664" type="line"/>
      <point x="296" y="824" type="line"/>
    </contour>
    <contour>
      <point x="699" y="-20" type="qcurve" smooth="yes"/>
      <point x="530" y="-20"/>
      <point x="278" y="124"/>
      <point x="139" y="393"/>
      <point x="139" y="580" type="qcurve" smooth="yes"/>
      <point x="139" y="757"/>
      <point x="249" y="1090"/>
      <point x="457" y="1354"/>
      <point x="749" y="1510"/>
      <point x="930" y="1510" type="qcurve" smooth="yes"/>
      <point x="1099" y="1510"/>
      <point x="1349" y="1366"/>
      <point x="1488" y="1098"/>
      <point x="1488" y="911" type="qcurve" smooth="yes"/>
      <point x="1488" y="733"/>
      <point x="1378" y="400"/>
      <point x="1171" y="135"/>
      <point x="880" y="-20"/>
    </contour>
    <contour>
      <point x="706" y="156" type="qcurve" smooth="yes"/>
      <point x="846" y="156"/>
      <point x="1068" y="284"/>
      <point x="1223" y="500"/>
      <point x="1304" y="767"/>
      <point x="1304" y="906" type="qcurve" smooth="yes"/>
      <point x="1304" y="1046"/>
      <point x="1207" y="1237"/>
      <point x="1035" y="1334"/>
      <point x="923" y="1334" type="qcurve" smooth="yes"/>
      <point x="783" y="1334"/>
      <point x="561" y="1206"/>
      <point x="405" y="990"/>
      <point x="323" y="724"/>
      <point x="323" y="585" type="qcurve" smooth="yes"/>
      <point x="323" y="445"/>
      <point x="421" y="254"/>
      <point x="594" y="156"/>
    </contour>
  </outline>
</glyph>
<glyph name="uni03F5" format="2">
  <advance width="923"/>
  <unicode hex="03F5"/>
  <outline>
    <contour>
      <point x="487" y="165" type="qcurve" smooth="yes"/>
      <point x="793" y="165" type="line"/>
      <point x="764" y="-1" type="line"/>
      <point x="458" y="-1" type="line" smooth="yes"/>
      <point x="291" y="-1"/>
      <point x="101" y="146"/>
      <point x="39" y="393"/>
      <point x="62" y="542" type="qcurve" smooth="yes"/>
      <point x="68" y="581" type="line" smooth="yes"/>
      <point x="91" y="731"/>
      <point x="236" y="974"/>
      <point x="478" y="1118"/>
      <point x="644" y="1118" type="qcurve" smooth="yes"/>
      <point x="951" y="1118" type="line"/>
      <point x="922" y="952" type="line"/>
      <point x="618" y="952" type="line" smooth="yes"/>
      <point x="509" y="952"/>
      <point x="369" y="850"/>
      <point x="292" y="681"/>
      <point x="277" y="581" type="qcurve" smooth="yes"/>
      <point x="271" y="541" type="line" smooth="yes"/>
      <point x="255" y="431"/>
      <point x="280" y="261"/>
      <point x="385" y="165"/>
    </contour>
    <contour>
      <point x="681" y="639" type="line"/>
      <point x="654" y="475" type="line"/>
      <point x="109" y="475" type="line"/>
      <point x="135" y="639" type="line"/>
    </contour>
  </outline>
</glyph>
<glyph name="uni0404" format="2">
  <advance width="1495"/>
  <unicode hex="0404"/>
  <anchor x="678" y="0" name="m.uni0326"/>
  <anchor x="925" y="1490" name="m.uni030F_1"/>
  <outline>
    <contour>
      <point x="687" y="-20" type="qcurve" smooth="yes"/>
      <point x="496" y="-20"/>
      <point x="227" y="166"/>
      <point x="113" y="509"/>
      <point x="152" y="744" type="qcurve" smooth="yes"/>
      <point x="191" y="980"/>
      <point x="419" y="1323"/>
      <point x="748" y="1510"/>
      <point x="940" y="1510" type="qcurve" smooth="yes"/>
      <point x="1053" y="1510"/>
      <point x="1242" y="1444"/>
      <point x="1382" y="1318"/>
      <point x="1460" y="1137"/>
      <point x="1461" y="1021" type="qcurve"/>
      <point x="1270" y="1021" type="line"/>
      <point x="1267" y="1098"/>
      <point x="1209" y="1215"/>
      <point x="1111" y="1294"/>
      <point x="983" y="1334"/>
      <point x="910" y="1334" type="qcurve" smooth="yes"/>
      <point x="777" y="1334"/>
      <point x="539" y="1200"/>
      <point x="369" y="938"/>
      <point x="337" y="746" type="qcurve" smooth="yes"/>
      <point x="305" y="555"/>
      <point x="388" y="291"/>
      <point x="582" y="156"/>
      <point x="716" y="156" type="qcurve" smooth="yes"/>
      <point x="790" y="156"/>
      <point x="931" y="196"/>
      <point x="1054" y="276"/>
      <point x="1151" y="393"/>
      <point x="1179" y="469" type="qcurve"/>
      <point x="1369" y="469" type="line"/>
      <point x="1330" y="355"/>
      <point x="1194" y="175"/>
      <point x="1013" y="47"/>
      <point x="801" y="-20"/>
    </contour>
    <contour>
      <point x="257" y="677" type="line"/>
      <point x="284" y="844" type="line"/>
      <point x="976" y="844" type="line"/>
      <point x="949" y="677" type="line"/>
    </contour>
  </outline>
</glyph>
<glyph name="uni0409" format="2">
  <advance width="2282"/>
  <unicode hex="0409"/>
  <outline>
    <contour>
      <point x="8" y="0" type="line"/>
      <point x="34" y="160" type="line"/>
      <point x="74" y="160" type="line" smooth="yes"/>
      <point x="145" y="160"/>
      <point x="240" y="216"/>
      <point x="312" y="369"/>
      <point x="348" y="516" type="qcurve" smooth="yes"/>
      <point x="590" y="1490" type="line"/>
      <point x="1323" y="1490" type="line"/>
      <point x="1296" y="1330" type="line"/>
      <point x="727" y="1330" type="line"/>
      <point x="524" y="507" type="line" smooth="yes"/>
      <point x="492" y="378"/>
      <point x="416" y="188"/>
      <point x="312" y="62"/>
      <point x="166" y="0"/>
      <point x="64" y="0" type="qcurve" smooth="yes"/>
    </contour>
    <contour>
      <point x="1328" y="902" type="line"/>
      <point x="1733" y="902" type="line" smooth="yes"/>
      <point x="1888" y="902"/>
      <point x="2095" y="794"/>
      <point x="2184" y="595"/>
      <point x="2162" y="460" type="qcurve" smooth="yes"/>
      <point x="2139" y="319"/>
      <point x="1987" y="112"/>
      <point x="1748" y="0"/>
      <point x="1593" y="0" type="qcurve" smooth="yes"/>
      <point x="1040" y="0" type="line"/>
      <point x="1287" y="1490" type="line"/>
      <point x="1477" y="1490" type="line"/>
      <point x="1257" y="165" type="line"/>
      <point x="1612" y="165" type="line" smooth="yes"/>
      <point x="1708" y="165"/>
      <point x="1860" y="237"/>
      <point x="1959" y="369"/>
      <point x="1974" y="458" type="qcurve" smooth="yes"/>
      <point x="1989" y="545"/>
      <point x="1937" y="669"/>
      <point x="1811" y="735"/>
      <point x="1715" y="735" type="qcurve" smooth="yes"/>
      <point x="1301" y="735" type="line"/>
    </contour>
  </outline>
</glyph>
<glyph name="uni0427" format="2">
  <advance width="1434"/>
  <unicode hex="0427"/>
  <anchor x="969" y="1490" name="m.uni030F_1"/>
  <outline>
    <contour>
      <point x="655" y="556" type="qcurve" smooth="yes"/>
      <point x="504" y="556"/>
      <point x="296" y="654"/>
      <point x="208" y="864"/>
      <point x="236" y="1032" type="qcurve" smooth="yes"/>
      <point x="312" y="1490" type="line"/>
      <point x="502" y="1490" type="line"/>
      <point x="426" y="1033" type="line" smooth="yes"/>
      <point x="408" y="925"/>
      <point x="471" y="789"/>
      <point x="611" y="725"/>
      <point x="708" y="725" type="qcurve" smooth="yes"/>
      <point x="834" y="725"/>
      <point x="1068" y="809"/>
      <point x="1173" y="877" type="qcurve"/>
      <point x="1142" y="691" type="line"/>
      <point x="1038" y="632"/>
      <point x="798" y="556"/>
    </contour>
    <contour>
      <point x="971" y="0" type="line"/>
      <point x="1218" y="1490" type="line"/>
      <point x="1408" y="1490" type="line"/>
      <point x="1161" y="0" type="line"/>
    </contour>
  </outline>
</glyph>
<glyph name="uni043F" format="2">
  <advance width="1205"/>
  <unicode hex="043F"/>
  <outline>
    <contour>
      <point x="1139" y="1118" type="line"/>
      <point x="954" y="0" type="line"/>
      <point x="774" y="0" type="line"/>
      <point x="932" y="952" type="line"/>
      <point x="405" y="952" type="line"/>
      <point x="247" y="0" type="line"/>
      <point x="66" y="0" type="line"/>
      <point x="251" y="1118" type="line"/>
    </contour>
  </outline>
</glyph>
<glyph name="uni0465" format="2">
  <advance width="1601"/>
  <unicode hex="0465"/>
  <outline>
    <contour>
      <point x="1186" y="640" type="line"/>
      <point x="1158" y="478" type="line"/>
      <point x="280" y="478" type="line"/>
      <point x="307" y="640" type="line"/>
    </contour>
    <contour>
      <point x="431" y="1118" type="line"/>
      <point x="246" y="0" type="line"/>
      <point x="66" y="0" type="line"/>
      <point x="251" y="1118" type="line"/>
    </contour>
    <contour>
      <point x="961" y="-24" type="qcurve" smooth="yes"/>
      <point x="803" y="-24"/>
      <point x="599" y="125"/>
      <point x="519" y="387"/>
      <point x="547" y="555" type="qcurve" smooth="yes"/>
      <point x="576" y="724"/>
      <point x="744" y="984"/>
      <point x="997" y="1132"/>
      <point x="1150" y="1132" type="qcurve" smooth="yes"/>
      <point x="1269" y="1132"/>
      <point x="1446" y="1044"/>
      <point x="1541" y="884"/>
      <point x="1537" y="776" type="qcurve"/>
      <point x="1356" y="776" type="line"/>
      <point x="1352" y="828"/>
      <point x="1299" y="917"/>
      <point x="1199" y="971"/>
      <point x="1125" y="971" type="qcurve" smooth="yes"/>
      <point x="1028" y="971"/>
      <point x="863" y="869"/>
      <point x="750" y="683"/>
      <point x="729" y="556" type="qcurve" smooth="yes"/>
      <point x="709" y="429"/>
      <point x="759" y="241"/>
      <point x="889" y="137"/>
      <point x="988" y="137" type="qcurve" smooth="yes"/>
      <point x="1054" y="137"/>
      <point x="1170" y="184"/>
      <point x="1258" y="271"/>
      <point x="1283" y="332" type="qcurve"/>
      <point x="1464" y="332" type="line"/>
      <point x="1433" y="230"/>
      <point x="1291" y="69"/>
      <point x="1087" y="-24"/>
    </contour>
  </outline>
</glyph>
<glyph name="uni0466" format="2">
  <advance width="1413"/>
  <unicode hex="0466"/>
  <outline>
    <contour>
      <point x="799" y="559" type="line"/>
      <point x="706" y="0" type="line"/>
      <point x="520" y="0" type="line"/>
      <point x="613" y="559" type="line"/>
    </contour>
    <contour>
      <point x="-41" y="0" type="line"/>
      <point x="747" y="1490" type="line"/>
      <point x="967" y="1490" type="line"/>
      <point x="1268" y="0" type="line"/>
      <point x="1068" y="0" type="line"/>
      <point x="899" y="884" type="line" smooth="yes"/>
      <point x="886" y="955"/>
      <point x="846" y="1209"/>
      <point x="822" y="1401" type="qcurve"/>
      <point x="859" y="1401" type="line"/>
      <point x="778" y="1220"/>
      <point x="657" y="966"/>
      <point x="615" y="884" type="qcurve" smooth="yes"/>
      <point x="161" y="0" type="line"/>
    </contour>
    <contour>
      <point x="310" y="478" type="line"/>
      <point x="337" y="640" type="line"/>
      <point x="1102" y="640" type="line"/>
      <point x="1074" y="478" type="line"/>
    </contour>
  </outline>
</glyph>
<glyph name="uni0469" format="2">
  <advance width="1590"/>
  <unicode hex="0469"/>
  <outline>
    <contour>
      <point x="1247" y="0" type="line"/>
      <point x="1078" y="787" type="line"/>
      <point x="1030" y="1118" type="line"/>
      <point x="1187" y="1118" type="line"/>
      <point x="1443" y="0" type="line"/>
    </contour>
    <contour>
      <point x="66" y="0" type="line"/>
      <point x="251" y="1118" type="line"/>
      <point x="433" y="1118" type="line"/>
      <point x="248" y="0" type="line"/>
    </contour>
    <contour>
      <point x="230" y="388" type="line"/>
      <point x="255" y="543" type="line"/>
      <point x="759" y="543" type="line"/>
      <point x="734" y="388" type="line"/>
    </contour>
    <contour>
      <point x="826" y="0" type="line"/>
      <point x="867" y="245" type="line" smooth="yes"/>
      <point x="879" y="317"/>
      <point x="827" y="385"/>
      <point x="760" y="388" type="qcurve"/>
      <point x="786" y="543" type="line"/>
      <point x="851" y="543"/>
      <point x="959" y="491"/>
      <point x="980" y="412" type="qcurve"/>
      <point x="1027" y="491"/>
      <point x="1153" y="543"/>
      <point x="1218" y="543" type="qcurve"/>
      <point x="1192" y="388" type="line"/>
      <point x="1148" y="386"/>
      <point x="1085" y="356"/>
      <point x="1046" y="294"/>
      <point x="1038" y="245" type="qcurve" smooth="yes"/>
      <point x="998" y="0" type="line"/>
    </contour>
    <contour>
      <point x="381" y="0" type="line"/>
      <point x="1004" y="1118" type="line"/>
      <point x="1160" y="1118" type="line"/>
      <point x="999" y="787" type="line"/>
      <point x="573" y="0" type="line"/>
    </contour>
  </outline>
</glyph>
<glyph name="uni0481" format="2">
  <advance width="1157"/>
  <unicode hex="0481"/>
  <outline>
    <contour>
      <point x="650" y="137" type="line"/>
      <point x="567" y="-359" type="line"/>
      <point x="388" y="-359" type="line"/>
      <point x="471" y="137" type="line"/>
    </contour>
    <contour>
      <point x="517" y="-24" type="line"/>
      <point x="360" y="-24"/>
      <point x="156" y="124"/>
      <point x="76" y="384"/>
      <point x="103" y="551" type="qcurve" smooth="yes"/>
      <point x="131" y="721"/>
      <point x="300" y="983"/>
      <point x="553" y="1132"/>
      <point x="706" y="1132" type="qcurve" smooth="yes"/>
      <point x="826" y="1132"/>
      <point x="1003" y="1044"/>
      <point x="1098" y="884"/>
      <point x="1094" y="776" type="qcurve"/>
      <point x="913" y="776" type="line"/>
      <point x="909" y="829"/>
      <point x="855" y="918"/>
      <point x="755" y="971"/>
      <point x="682" y="971" type="qcurve" smooth="yes"/>
      <point x="585" y="971"/>
      <point x="421" y="870"/>
      <point x="308" y="686"/>
      <point x="287" y="560" type="qcurve" smooth="yes"/>
      <point x="266" y="432"/>
      <point x="316" y="241"/>
      <point x="446" y="137"/>
      <point x="545" y="137" type="qcurve"/>
    </contour>
  </outline>
</glyph>
<glyph name="uni048E" format="2">
  <advance width="1298"/>
  <unicode hex="048E"/>
  <anchor x="900" y="1490" name="m.uni030F_1"/>
  <outline>
    <contour>
      <point x="870" y="958" type="line"/>
      <point x="1132" y="494" type="line"/>
      <point x="992" y="408" type="line"/>
      <point x="730" y="872" type="line"/>
    </contour>
    <contour>
      <point x="87" y="0" type="line"/>
      <point x="334" y="1490" type="line"/>
      <point x="844" y="1490" type="line" smooth="yes"/>
      <point x="1017" y="1490"/>
      <point x="1221" y="1365"/>
      <point x="1296" y="1151"/>
      <point x="1274" y="1018" type="qcurve" smooth="yes"/>
      <point x="1253" y="885"/>
      <point x="1108" y="668"/>
      <point x="862" y="539"/>
      <point x="688" y="539" type="qcurve" smooth="yes"/>
      <point x="327" y="539" type="line"/>
      <point x="355" y="706" type="line"/>
      <point x="706" y="706" type="line" smooth="yes"/>
      <point x="827" y="706"/>
      <point x="984" y="789"/>
      <point x="1071" y="931"/>
      <point x="1085" y="1017" type="qcurve" smooth="yes"/>
      <point x="1099" y="1104"/>
      <point x="1057" y="1242"/>
      <point x="926" y="1323"/>
      <point x="806" y="1323" type="qcurve" smooth="yes"/>
      <point x="496" y="1323" type="line"/>
      <point x="277" y="0" type="line"/>
    </contour>
  </outline>
</glyph>
<glyph name="uni04A5" format="2">
  <advance width="1387"/>
  <unicode hex="04A5"/>
  <anchor x="881" y="1180" name="m.uni030F_1"/>
  <outline>
    <contour>
      <point x="1031" y="972" type="line"/>
      <point x="1055" y="1118" type="line"/>
      <point x="1447" y="1118" type="line"/>
      <point x="1423" y="972" type="line"/>
    </contour>
    <contour>
      <point x="929" y="641" type="line"/>
      <point x="901" y="475" type="line"/>
      <point x="281" y="475" type="line"/>
      <point x="309" y="641" type="line"/>
    </contour>
    <contour>
      <point x="431" y="1118" type="line"/>
      <point x="246" y="0" type="line"/>
      <point x="66" y="0" type="line"/>
      <point x="251" y="1118" type="line"/>
    </contour>
    <contour>
      <point x="1146" y="1118" type="line"/>
      <point x="961" y="0" type="line"/>
      <point x="780" y="0" type="line"/>
      <point x="965" y="1118" type="line"/>
    </contour>
  </outline>
</glyph>
<glyph name="uni04A8" format="2">
  <advance width="2017"/>
  <unicode hex="04A8"/>
  <outline>
    <contour>
      <point x="1535" y="-21" type="qcurve" smooth="yes"/>
      <point x="1401" y="-21"/>
      <point x="1168" y="55"/>
      <point x="1103" y="120" type="qcurve"/>
      <point x="1007" y="193"/>
      <point x="884" y="397"/>
      <point x="840" y="643"/>
      <point x="862" y="777" type="qcurve" smooth="yes"/>
      <point x="890" y="941"/>
      <point x="1055" y="1187"/>
      <point x="1300" y="1324"/>
      <point x="1445" y="1324" type="qcurve" smooth="yes"/>
      <point x="1591" y="1324"/>
      <point x="1790" y="1189"/>
      <point x="1876" y="952"/>
      <point x="1850" y="798" type="qcurve" smooth="yes"/>
      <point x="1824" y="639"/>
      <point x="1667" y="379"/>
      <point x="1439" y="182"/>
      <point x="1168" y="48"/>
      <point x="885" y="-20"/>
      <point x="753" y="-20" type="qcurve" smooth="yes"/>
      <point x="529" y="-20"/>
      <point x="234" y="167"/>
      <point x="114" y="511"/>
      <point x="152" y="744" type="qcurve" smooth="yes"/>
      <point x="181" y="921"/>
      <point x="327" y="1205"/>
      <point x="538" y="1404"/>
      <point x="798" y="1510"/>
      <point x="941" y="1510" type="qcurve"/>
      <point x="912" y="1334" type="line"/>
      <point x="778" y="1334"/>
      <point x="539" y="1198"/>
      <point x="369" y="936"/>
      <point x="337" y="745" type="qcurve" smooth="yes"/>
      <point x="307" y="561"/>
      <point x="393" y="297"/>
      <point x="613" y="156"/>
      <point x="783" y="156" type="qcurve" smooth="yes"/>
      <point x="933" y="156"/>
      <point x="1226" y="255"/>
      <point x="1473" y="431"/>
      <point x="1638" y="664"/>
      <point x="1660" y="798" type="qcurve" smooth="yes"/>
      <point x="1678" y="905"/>
      <point x="1628" y="1062"/>
      <point x="1507" y="1148"/>
      <point x="1415" y="1148" type="qcurve" smooth="yes"/>
      <point x="1324" y="1148"/>
      <point x="1174" y="1060"/>
      <point x="1072" y="896"/>
      <point x="1053" y="782" type="qcurve" smooth="yes"/>
      <point x="1034" y="669"/>
      <point x="1079" y="448"/>
      <point x="1203" y="268"/>
      <point x="1300" y="214" type="qcurve"/>
      <point x="1346" y="174"/>
      <point x="1474" y="147"/>
      <point x="1565" y="147" type="qcurve" smooth="yes"/>
      <point x="1617" y="147"/>
      <point x="1734" y="169"/>
      <point x="1804" y="197" type="qcurve"/>
      <point x="1834" y="43" type="line"/>
      <point x="1794" y="26"/>
      <point x="1701" y="-4"/>
      <point x="1595" y="-21"/>
    </contour>
  </outline>
</glyph>
<glyph name="uni04B4" format="2">
  <advance width="1878"/>
  <unicode hex="04B4"/>
  <outline>
    <contour>
      <point x="228" y="1330" type="line"/>
      <point x="255" y="1490" type="line"/>
      <point x="1373" y="1490" type="line"/>
      <point x="1346" y="1330" type="line"/>
    </contour>
    <contour>
      <point x="1597" y="0" type="line"/>
      <point x="478" y="0" type="line"/>
      <point x="725" y="1490" type="line"/>
      <point x="915" y="1490" type="line"/>
      <point x="695" y="167" type="line"/>
      <point x="1434" y="167" type="line"/>
      <point x="1654" y="1490" type="line"/>
      <point x="1844" y="1490" type="line"/>
    </contour>
    <contour>
      <point x="1510" y="-320" type="line"/>
      <point x="1563" y="0" type="line"/>
      <point x="1488" y="0" type="line"/>
      <point x="1515" y="166" type="line"/>
      <point x="1771" y="166" type="line"/>
      <point x="1690" y="-320" type="line"/>
    </contour>
  </outline>
</glyph>
<glyph name="uni04BC" format="2">
  <advance width="1718"/>
  <unicode hex="04BC"/>
  <outline>
    <contour>
      <point x="873" y="-20" type="qcurve" smooth="yes"/>
      <point x="683" y="-20"/>
      <point x="417" y="166"/>
      <point x="305" y="509"/>
      <point x="344" y="747" type="qcurve" smooth="yes"/>
      <point x="373" y="923"/>
      <point x="516" y="1205"/>
      <point x="726" y="1404"/>
      <point x="988" y="1510"/>
      <point x="1138" y="1510" type="qcurve" smooth="yes"/>
      <point x="1331" y="1510"/>
      <point x="1575" y="1336"/>
      <point x="1669" y="1027"/>
      <point x="1635" y="824" type="qcurve" smooth="yes"/>
      <point x="1608" y="661" type="line"/>
      <point x="474" y="661" type="line"/>
      <point x="501" y="827" type="line"/>
      <point x="1506" y="827" type="line"/>
      <point x="1448" y="816" type="line"/>
      <point x="1473" y="966"/>
      <point x="1416" y="1200"/>
      <point x="1249" y="1334"/>
      <point x="1109" y="1334" type="qcurve" smooth="yes"/>
      <point x="973" y="1334"/>
      <point x="732" y="1200"/>
      <point x="561" y="939"/>
      <point x="529" y="748" type="qcurve" smooth="yes"/>
      <point x="497" y="557"/>
      <point x="579" y="293"/>
      <point x="771" y="156"/>
      <point x="903" y="156" type="qcurve" smooth="yes"/>
      <point x="981" y="156"/>
      <point x="1120" y="198"/>
      <point x="1238" y="279"/>
      <point x="1334" y="394"/>
      <point x="1369" y="467" type="qcurve"/>
      <point x="1565" y="467" type="line"/>
      <point x="1527" y="359"/>
      <point x="1390" y="180"/>
      <point x="1208" y="51"/>
      <point x="992" y="-20"/>
    </contour>
    <contour>
      <point x="102" y="1057" type="line"/>
      <point x="279" y="1057" type="line"/>
      <point x="267" y="980" type="line" smooth="yes"/>
      <point x="256" y="910"/>
      <point x="262" y="845"/>
      <point x="319" y="828"/>
      <point x="383" y="828" type="qcurve" smooth="yes"/>
      <point x="427" y="828" type="line"/>
      <point x="399" y="662" type="line"/>
      <point x="354" y="662" type="line" smooth="yes"/>
      <point x="197" y="662"/>
      <point x="65" y="824"/>
      <point x="92" y="994" type="qcurve" smooth="yes"/>
    </contour>
  </outline>
</glyph>
<glyph name="uni04BD" format="2">
  <advance width="1419"/>
  <unicode hex="04BD"/>
  <anchor x="985" y="0" name="m.uni0326"/>
  <anchor x="1196" y="1180" name="m.uni030F_1"/>
  <anchor x="957" y="0" name="m.uni0327_3"/>
  <anchor x="1667" y="325" name="m.uni0328_4"/>
  <outline>
    <contour>
      <point x="346" y="491" type="line"/>
      <point x="165" y="491"/>
      <point x="13" y="692"/>
      <point x="41" y="858" type="qcurve"/>
      <point x="199" y="858" type="line"/>
      <point x="183" y="760"/>
      <point x="261" y="625"/>
      <point x="370" y="625" type="qcurve"/>
    </contour>
    <contour>
      <point x="775" y="-24" type="qcurve" smooth="yes"/>
      <point x="637" y="-24"/>
      <point x="440" y="84"/>
      <point x="334" y="286"/>
      <point x="334" y="427" type="qcurve" smooth="yes"/>
      <point x="334" y="574"/>
      <point x="428" y="833"/>
      <point x="596" y="1030"/>
      <point x="817" y="1142"/>
      <point x="944" y="1142" type="qcurve" smooth="yes"/>
      <point x="1052" y="1142"/>
      <point x="1212" y="1067"/>
      <point x="1300" y="930"/>
      <point x="1300" y="837" type="qcurve" smooth="yes"/>
      <point x="1300" y="743"/>
      <point x="1203" y="610"/>
      <point x="999" y="526"/>
      <point x="680" y="487"/>
      <point x="459" y="487" type="qcurve"/>
      <point x="483" y="623" type="line"/>
      <point x="666" y="623"/>
      <point x="912" y="644"/>
      <point x="1057" y="694"/>
      <point x="1120" y="778"/>
      <point x="1120" y="841" type="qcurve" smooth="yes"/>
      <point x="1120" y="905"/>
      <point x="1013" y="982"/>
      <point x="926" y="982" type="qcurve" smooth="yes"/>
      <point x="813" y="982"/>
      <point x="654" y="873"/>
      <point x="554" y="702"/>
      <point x="507" y="511"/>
      <point x="507" y="428" type="qcurve" smooth="yes"/>
      <point x="507" y="346"/>
      <point x="561" y="213"/>
      <point x="684" y="135"/>
      <point x="786" y="135" type="qcurve" smooth="yes"/>
      <point x="893" y="135"/>
      <point x="1060" y="228"/>
      <point x="1103" y="308" type="qcurve"/>
      <point x="1270" y="261" type="line"/>
      <point x="1208" y="129"/>
      <point x="941" y="-24"/>
    </contour>
  </outline>
</glyph>
<glyph name="uni04C3" format="2">
  <advance width="1398"/>
  <unicode hex="04C3"/>
  <outline>
    <contour>
      <point x="465" y="672" type="line"/>
      <point x="491" y="836" type="line"/>
      <point x="706" y="836" type="line" smooth="yes"/>
      <point x="987" y="836"/>
      <point x="1260" y="525"/>
      <point x="1213" y="250" type="qcurve" smooth="yes"/>
      <point x="1184" y="79"/>
      <point x="1026" y="-168"/>
      <point x="785" y="-300"/>
      <point x="631" y="-300" type="qcurve"/>
      <point x="656" y="-134" type="line"/>
      <point x="797" y="-135"/>
      <point x="993" y="70"/>
      <point x="1024" y="251" type="qcurve" smooth="yes"/>
      <point x="1057" y="445"/>
      <point x="875" y="672"/>
      <point x="679" y="672" type="qcurve" smooth="yes"/>
    </contour>
    <contour>
      <point x="88" y="0" type="line"/>
      <point x="334" y="1490" type="line"/>
      <point x="523" y="1490" type="line"/>
      <point x="418" y="841" type="line"/>
      <point x="583" y="841" type="line"/>
      <point x="1199" y="1490" type="line"/>
      <point x="1436" y="1490" type="line"/>
      <point x="631" y="672" type="line"/>
      <point x="390" y="672" type="line"/>
      <point x="277" y="0" type="line"/>
    </contour>
  </outline>
</glyph>
<glyph name="uni04C4" format="2">
  <advance width="1203"/>
  <unicode hex="04C4"/>
  <outline>
    <contour>
      <point x="267" y="468" type="line"/>
      <point x="293" y="626" type="line"/>
      <point x="574" y="626" type="line" smooth="yes"/>
      <point x="693" y="626"/>
      <point x="878" y="561"/>
      <point x="1002" y="441"/>
      <point x="1053" y="277"/>
      <point x="1036" y="178" type="qcurve" smooth="yes"/>
      <point x="1018" y="68"/>
      <point x="889" y="-116"/>
      <point x="696" y="-240"/>
      <point x="580" y="-260" type="qcurve"/>
      <point x="554" y="-113" type="line"/>
      <point x="632" y="-94"/>
      <point x="762" y="-11"/>
      <point x="848" y="107"/>
      <point x="859" y="180" type="qcurve" smooth="yes"/>
      <point x="879" y="308"/>
      <point x="704" y="468"/>
      <point x="548" y="468" type="qcurve" smooth="yes"/>
    </contour>
    <contour>
      <point x="66" y="0" type="line"/>
      <point x="251" y="1118" type="line"/>
      <point x="431" y="1118" type="line"/>
      <point x="352" y="634" type="line"/>
      <point x="463" y="634" type="line"/>
      <point x="938" y="1118" type="line"/>
      <point x="1169" y="1118" type="line"/>
      <point x="526" y="468" type="line"/>
      <point x="324" y="468" type="line"/>
      <point x="246" y="0" type="line"/>
    </contour>
  </outline>
</glyph>
<glyph name="uni04FF" format="2">
  <advance width="1118"/>
  <unicode hex="04FF"/>
  <anchor x="621" y="0" name="m.uni0326"/>
  <anchor x="816" y="1180" name="m.uni030F_1"/>
  <outline>
    <contour>
      <point x="103" y="502" type="line"/>
      <point x="125" y="636" type="line"/>
      <point x="1007" y="636" type="line"/>
      <point x="985" y="502" type="line"/>
    </contour>
    <contour>
      <point x="-28" y="0" type="line"/>
      <point x="520" y="643" type="line"/>
      <point x="496" y="505" type="line"/>
      <point x="180" y="1118" type="line"/>
      <point x="382" y="1118" type="line"/>
      <point x="486" y="901" type="line" smooth="yes"/>
      <point x="527" y="817"/>
      <point x="580" y="671"/>
      <point x="611" y="603" type="qcurve"/>
      <point x="517" y="603" type="line"/>
      <point x="571" y="671"/>
      <point x="667" y="817"/>
      <point x="735" y="901" type="qcurve" smooth="yes"/>
      <point x="913" y="1118" type="line"/>
      <point x="1127" y="1118" type="line"/>
      <point x="606" y="497" type="line"/>
      <point x="627" y="630" type="line"/>
      <point x="960" y="0" type="line"/>
      <point x="756" y="0" type="line"/>
      <point x="633" y="251" type="line" smooth="yes"/>
      <point x="593" y="333"/>
      <point x="541" y="474"/>
      <point x="510" y="539" type="qcurve"/>
      <point x="605" y="539" type="line"/>
      <point x="553" y="474"/>
      <point x="460" y="333"/>
      <point x="392" y="251" type="qcurve" smooth="yes"/>
      <point x="185" y="0" type="line"/>
    </contour>
  </outline>
</glyph>
<glyph name="a.sups" format="2">
  <advance width="780"/>
  <unicode hex="1D43"/>
  <outline>
    <contour>
      <point x="329" y="730" type="qcurve" smooth="yes"/>
      <point x="264" y="730"/>
      <point x="164" y="778"/>
      <point x="115" y="875"/>
      <point x="125" y="948" type="qcurve" smooth="yes"/>
      <point x="136" y="1021"/>
      <point x="219" y="1115"/>
      <point x="355" y="1167"/>
      <point x="443" y="1176" type="qcurve" smooth="yes"/>
      <point x="508" y="1183"/>
      <point x="596" y="1195"/>
      <point x="640" y="1221"/>
      <point x="640" y="1246" type="qcurve" smooth="yes"/>
      <point x="640" y="1255" type="line" smooth="yes"/>
      <point x="640" y="1314"/>
      <point x="586" y="1379"/>
      <point x="528" y="1379" type="qcurve" smooth="yes"/>
      <point x="462" y="1379"/>
      <point x="372" y="1321"/>
      <point x="354" y="1280" type="qcurve"/>
      <point x="206" y="1298" type="line"/>
      <point x="248" y="1395"/>
      <point x="431" y="1498"/>
      <point x="544" y="1498" type="qcurve" smooth="yes"/>
      <point x="622" y="1498"/>
      <point x="750" y="1447"/>
      <point x="817" y="1339"/>
      <point x="802" y="1253" type="qcurve" smooth="yes"/>
      <point x="716" y="744" type="line"/>
      <point x="564" y="744" type="line"/>
      <point x="583" y="857" type="line"/>
      <point x="577" y="857" type="line"/>
      <point x="537" y="797"/>
      <point x="408" y="730"/>
    </contour>
    <contour>
      <point x="389" y="843" type="qcurve" smooth="yes"/>
      <point x="444" y="843"/>
      <point x="536" y="891"/>
      <point x="597" y="972"/>
      <point x="605" y="1023" type="qcurve" smooth="yes"/>
      <point x="619" y="1112" type="line"/>
      <point x="599" y="1101"/>
      <point x="540" y="1087"/>
      <point x="478" y="1078"/>
      <point x="451" y="1074" type="qcurve" smooth="yes"/>
      <point x="375" y="1063"/>
      <point x="287" y="1002"/>
      <point x="279" y="955" type="qcurve" smooth="yes"/>
      <point x="272" y="912"/>
      <point x="325" y="843"/>
    </contour>
  </outline>
</glyph>
<glyph name="b.sups" format="2">
  <advance width="856"/>
  <unicode hex="1D47"/>
  <outline>
    <contour>
      <point x="136" y="744" type="line"/>
      <point x="302" y="1736" type="line"/>
      <point x="461" y="1736" type="line"/>
      <point x="397" y="1348" type="line"/>
      <point x="403" y="1348" type="line"/>
      <point x="424" y="1386"/>
      <point x="491" y="1455"/>
      <point x="586" y="1498"/>
      <point x="646" y="1498" type="qcurve" smooth="yes"/>
      <point x="726" y="1498"/>
      <point x="850" y="1414"/>
      <point x="907" y="1247"/>
      <point x="886" y="1121" type="qcurve" smooth="yes"/>
      <point x="866" y="998"/>
      <point x="759" y="823"/>
      <point x="607" y="730"/>
      <point x="518" y="730" type="qcurve" smooth="yes"/>
      <point x="458" y="730"/>
      <point x="378" y="775"/>
      <point x="334" y="845"/>
      <point x="325" y="880" type="qcurve"/>
      <point x="316" y="880" type="line"/>
      <point x="295" y="744" type="line"/>
    </contour>
    <contour>
      <point x="356" y="1119" type="qcurve" smooth="yes"/>
      <point x="337" y="998"/>
      <point x="410" y="862"/>
      <point x="495" y="862" type="qcurve" smooth="yes"/>
      <point x="582" y="862"/>
      <point x="703" y="1005"/>
      <point x="721" y="1110" type="qcurve" smooth="yes"/>
      <point x="741" y="1228"/>
      <point x="668" y="1370"/>
      <point x="579" y="1370" type="qcurve" smooth="yes"/>
      <point x="523" y="1370"/>
      <point x="430" y="1306"/>
      <point x="368" y="1193"/>
    </contour>
  </outline>
</glyph>
<glyph name="m.sups" format="2">
  <advance width="1220"/>
  <unicode hex="1D50"/>
  <outline>
    <contour>
      <point x="128" y="744" type="line"/>
      <point x="254" y="1490" type="line"/>
      <point x="407" y="1490" type="line"/>
      <point x="383" y="1363" type="line"/>
      <point x="391" y="1363" type="line"/>
      <point x="425" y="1425"/>
      <point x="544" y="1498"/>
      <point x="619" y="1498" type="qcurve" smooth="yes"/>
      <point x="695" y="1498"/>
      <point x="790" y="1422"/>
      <point x="797" y="1357" type="qcurve"/>
      <point x="805" y="1357" type="line"/>
      <point x="838" y="1422"/>
      <point x="969" y="1498"/>
      <point x="1049" y="1498" type="qcurve" smooth="yes"/>
      <point x="1157" y="1498"/>
      <point x="1260" y="1362"/>
      <point x="1240" y="1246" type="qcurve" smooth="yes"/>
      <point x="1156" y="744" type="line"/>
      <point x="995" y="744" type="line"/>
      <point x="1074" y="1217" type="line" smooth="yes"/>
      <point x="1085" y="1285"/>
      <point x="1030" y="1364"/>
      <point x="962" y="1364" type="qcurve" smooth="yes"/>
      <point x="892" y="1364"/>
      <point x="808" y="1275"/>
      <point x="797" y="1213" type="qcurve" smooth="yes"/>
      <point x="717" y="744" type="line"/>
      <point x="564" y="744" type="line"/>
      <point x="643" y="1221" type="line" smooth="yes"/>
      <point x="654" y="1285"/>
      <point x="597" y="1364"/>
      <point x="534" y="1364" type="qcurve" smooth="yes"/>
      <point x="477" y="1364"/>
      <point x="378" y="1282"/>
      <point x="365" y="1206" type="qcurve" smooth="yes"/>
      <point x="287" y="744" type="line"/>
    </contour>
  </outline>
</glyph>
<glyph name="c.sups" format="2">
  <advance width="792"/>
  <unicode hex="1D9C"/>
  <outline>
    <contour>
      <point x="444" y="730" type="qcurve" smooth="yes"/>
      <point x="336" y="730"/>
      <point x="194" y="829"/>
      <point x="138" y="1003"/>
      <point x="157" y="1115" type="qcurve" smooth="yes"/>
      <point x="177" y="1231"/>
      <point x="294" y="1403"/>
      <point x="468" y="1498"/>
      <point x="572" y="1498" type="qcurve" smooth="yes"/>
      <point x="703" y="1498"/>
      <point x="852" y="1354"/>
      <point x="840" y="1232" type="qcurve"/>
      <point x="692" y="1232" type="line"/>
      <point x="691" y="1295"/>
      <point x="618" y="1372"/>
      <point x="554" y="1372" type="qcurve" smooth="yes"/>
      <point x="469" y="1372"/>
      <point x="340" y="1236"/>
      <point x="320" y="1120" type="qcurve" smooth="yes"/>
      <point x="307" y="1040"/>
      <point x="333" y="923"/>
      <point x="409" y="860"/>
      <point x="467" y="860" type="qcurve" smooth="yes"/>
      <point x="532" y="860"/>
      <point x="632" y="936"/>
      <point x="654" y="999" type="qcurve"/>
      <point x="804" y="999" type="line"/>
      <point x="773" y="878"/>
      <point x="580" y="730"/>
    </contour>
  </outline>
</glyph>
<glyph name="uni1DC2" format="2">
  <unicode hex="1DC2"/>
  <outline>
    <contour>
      <point x="-876" y="-141" type="line"/>
      <point x="-828" y="-115"/>
      <point x="-721" y="-89"/>
      <point x="-671" y="-89" type="qcurve" smooth="yes"/>
      <point x="-602" y="-89"/>
      <point x="-549" y="-151"/>
      <point x="-557" y="-189" type="qcurve" smooth="yes"/>
      <point x="-563" y="-220"/>
      <point x="-612" y="-253"/>
      <point x="-671" y="-269"/>
      <point x="-715" y="-280"/>
      <point x="-716" y="-289" type="qcurve" smooth="yes"/>
      <point x="-717" y="-299"/>
      <point x="-671" y="-308"/>
      <point x="-612" y="-321"/>
      <point x="-570" y="-347"/>
      <point x="-576" y="-373" type="qcurve" smooth="yes"/>
      <point x="-582" y="-399"/>
      <point x="-632" y="-425"/>
      <point x="-694" y="-436"/>
      <point x="-741" y="-444"/>
      <point x="-744" y="-453" type="qcurve"/>
      <point x="-746" y="-460"/>
      <point x="-680" y="-473"/>
      <point x="-615" y="-478" type="qcurve"/>
      <point x="-645" y="-556" type="line"/>
      <point x="-714" y="-551"/>
      <point x="-817" y="-524"/>
      <point x="-869" y="-482"/>
      <point x="-864" y="-453" type="qcurve" smooth="yes"/>
      <point x="-859" y="-427"/>
      <point x="-808" y="-402"/>
      <point x="-745" y="-391"/>
      <point x="-698" y="-383"/>
      <point x="-697" y="-374" type="qcurve" smooth="yes"/>
      <point x="-696" y="-365"/>
      <point x="-742" y="-356"/>
      <point x="-800" y="-345"/>
      <point x="-842" y="-322"/>
      <point x="-838" y="-299" type="qcurve" smooth="yes"/>
      <point x="-834" y="-277"/>
      <point x="-781" y="-248"/>
      <point x="-716" y="-228"/>
      <point x="-666" y="-210"/>
      <point x="-666" y="-198" type="qcurve" smooth="yes"/>
      <point x="-666" y="-187"/>
      <point x="-684" y="-178"/>
      <point x="-702" y="-178" type="qcurve" smooth="yes"/>
      <point x="-736" y="-178"/>
      <point x="-808" y="-200"/>
      <point x="-840" y="-216" type="qcurve"/>
    </contour>
  </outline>
</glyph>
<glyph name="uni1DD2" format="2">
  <unicode hex="1DD2"/>
  <outline>
    <contour>
      <point x="-477" y="1426" type="qcurve" smooth="yes"/>
      <point x="-538" y="1426"/>
      <point x="-643" y="1473"/>
      <point x="-697" y="1577"/>
      <point x="-683" y="1660" type="qcurve" smooth="yes"/>
      <point x="-669" y="1738"/>
      <point x="-573" y="1852"/>
      <point x="-437" y="1914"/>
      <point x="-365" y="1914" type="qcurve" smooth="yes"/>
      <point x="-240" y="1914"/>
      <point x="-96" y="1749"/>
      <point x="-123" y="1602" type="qcurve" smooth="yes"/>
      <point x="-143" y="1492"/>
      <point x="-236" y="1336"/>
      <point x="-362" y="1231"/>
      <point x="-504" y="1168"/>
      <point x="-573" y="1150" type="qcurve"/>
      <point x="-594" y="1257" type="line"/>
      <point x="-528" y="1277"/>
      <point x="-387" y="1347"/>
      <point x="-276" y="1485"/>
      <point x="-257" y="1608" type="qcurve" smooth="yes"/>
      <point x="-241" y="1706"/>
      <point x="-313" y="1805"/>
      <point x="-380" y="1805" type="qcurve" smooth="yes"/>
      <point x="-444" y="1805"/>
      <point x="-537" y="1727"/>
      <point x="-548" y="1664" type="qcurve" smooth="yes"/>
      <point x="-561" y="1592"/>
      <point x="-503" y="1525"/>
      <point x="-439" y="1525" type="qcurve" smooth="yes"/>
      <point x="-408" y="1525"/>
      <point x="-360" y="1534"/>
      <point x="-338" y="1543" type="qcurve"/>
      <point x="-327" y="1464" type="line"/>
      <point x="-356" y="1446"/>
      <point x="-428" y="1426"/>
    </contour>
  </outline>
</glyph>
<glyph name="uni1DE5" format="2">
  <unicode hex="1DE5"/>
  <outline>
    <contour>
      <point x="-420" y="1202" type="line"/>
      <point x="-552" y="1202" type="line"/>
      <point x="-454" y="1810" type="line" smooth="yes"/>
      <point x="-438" y="1908"/>
      <point x="-306" y="2008"/>
      <point x="-223" y="2008" type="qcurve" smooth="yes"/>
      <point x="-206" y="2008"/>
      <point x="-172" y="2003"/>
      <point x="-146" y="1998" type="qcurve"/>
      <point x="-178" y="1894" type="line"/>
      <point x="-188" y="1897"/>
      <point x="-211" y="1900"/>
      <point x="-224" y="1900" type="qcurve" smooth="yes"/>
      <point x="-257" y="1900"/>
      <point x="-312" y="1856"/>
      <point x="-320" y="1810" type="qcurve" smooth="yes"/>
    </contour>
  </outline>
</glyph>
<glyph name="uni1DE7" format="2">
  <unicode hex="1DE7"/>
  <outline>
    <contour>
      <point x="-539" y="1192" type="qcurve" smooth="yes"/>
      <point x="-641" y="1192"/>
      <point x="-745" y="1339"/>
      <point x="-730" y="1459" type="qcurve" smooth="yes"/>
      <point x="-729" y="1467" type="line" smooth="yes"/>
      <point x="-718" y="1555"/>
      <point x="-639" y="1690"/>
      <point x="-518" y="1766"/>
      <point x="-443" y="1766" type="qcurve" smooth="yes"/>
      <point x="-373" y="1766"/>
      <point x="-297" y="1694"/>
      <point x="-271" y="1572"/>
      <point x="-278" y="1495" type="qcurve"/>
      <point x="-284" y="1464" type="line"/>
      <point x="-306" y="1376"/>
      <point x="-375" y="1255"/>
      <point x="-473" y="1192"/>
    </contour>
    <contour>
      <point x="-494" y="1300" type="qcurve" smooth="yes"/>
      <point x="-429" y="1300"/>
      <point x="-345" y="1386"/>
      <point x="-317" y="1459" type="qcurve"/>
      <point x="-311" y="1486" type="line"/>
      <point x="-312" y="1563"/>
      <point x="-371" y="1656"/>
      <point x="-434" y="1656" type="qcurve" smooth="yes"/>
      <point x="-475" y="1656"/>
      <point x="-537" y="1610"/>
      <point x="-581" y="1526"/>
      <point x="-594" y="1467" type="qcurve" smooth="yes"/>
      <point x="-596" y="1458" type="line" smooth="yes"/>
      <point x="-612" y="1384"/>
      <point x="-564" y="1300"/>
    </contour>
    <contour>
      <point x="-284" y="1754" type="line"/>
      <point x="-162" y="1754" type="line"/>
      <point x="-230" y="1358" type="line" smooth="yes"/>
      <point x="-235" y="1327"/>
      <point x="-218" y="1296"/>
      <point x="-200" y="1296" type="qcurve" smooth="yes"/>
      <point x="-195" y="1296"/>
      <point x="-188" y="1298"/>
      <point x="-186" y="1300" type="qcurve"/>
      <point x="-191" y="1209" type="line"/>
      <point x="-210" y="1197"/>
      <point x="-254" y="1192"/>
      <point x="-279" y="1192" type="qcurve" smooth="yes"/>
      <point x="-337" y="1192"/>
      <point x="-380" y="1273"/>
      <point x="-366" y="1358" type="qcurve" smooth="yes"/>
      <point x="-320" y="1632" type="line"/>
    </contour>
  </outline>
</glyph>
<glyph name="uni1DEA" format="2">
  <unicode hex="1DEA"/>
  <outline>
    <contour>
      <point x="-487" y="1186" type="qcurve" smooth="yes"/>
      <point x="-608" y="1186"/>
      <point x="-701" y="1342"/>
      <point x="-682" y="1459" type="qcurve" smooth="yes"/>
      <point x="-674" y="1507" type="line"/>
      <point x="-253" y="1507" type="line"/>
      <point x="-267" y="1422" type="line"/>
      <point x="-562" y="1422" type="line"/>
      <point x="-562" y="1415" type="line" smooth="yes"/>
      <point x="-562" y="1362"/>
      <point x="-523" y="1296"/>
      <point x="-470" y="1296" type="qcurve" smooth="yes"/>
      <point x="-407" y="1296"/>
      <point x="-335" y="1387"/>
      <point x="-322" y="1472" type="qcurve" smooth="yes"/>
      <point x="-319" y="1492" type="line" smooth="yes"/>
      <point x="-308" y="1567"/>
      <point x="-365" y="1650"/>
      <point x="-430" y="1650" type="qcurve" smooth="yes"/>
      <point x="-479" y="1650"/>
      <point x="-551" y="1618"/>
      <point x="-583" y="1585" type="qcurve"/>
      <point x="-640" y="1653" type="line"/>
      <point x="-608" y="1691"/>
      <point x="-493" y="1760"/>
      <point x="-407" y="1760" type="qcurve" smooth="yes"/>
      <point x="-325" y="1760"/>
      <point x="-218" y="1693"/>
      <point x="-172" y="1572"/>
      <point x="-184" y="1492" type="qcurve" smooth="yes"/>
      <point x="-187" y="1472" type="line" smooth="yes"/>
      <point x="-200" y="1382"/>
      <point x="-288" y="1254"/>
      <point x="-415" y="1186"/>
    </contour>
  </outline>
</glyph>
<glyph name="uni1DED" format="2">
  <unicode hex="1DED"/>
  <outline>
    <contour>
      <point x="-826" y="1070" type="line"/>
      <point x="-616" y="1338" type="line"/>
      <point x="-522" y="1277" type="line"/>
      <point x="-732" y="1011" type="line"/>
    </contour>
    <contour>
      <point x="-481" y="1186" type="qcurve" smooth="yes"/>
      <point x="-599" y="1186"/>
      <point x="-719" y="1340"/>
      <point x="-698" y="1466" type="qcurve" smooth="yes"/>
      <point x="-696" y="1478" type="line" smooth="yes"/>
      <point x="-675" y="1604"/>
      <point x="-507" y="1760"/>
      <point x="-389" y="1760" type="qcurve" smooth="yes"/>
      <point x="-269" y="1760"/>
      <point x="-151" y="1604"/>
      <point x="-172" y="1478" type="qcurve" smooth="yes"/>
      <point x="-174" y="1466" type="line" smooth="yes"/>
      <point x="-195" y="1340"/>
      <point x="-362" y="1186"/>
    </contour>
    <contour>
      <point x="-465" y="1296" type="qcurve" smooth="yes"/>
      <point x="-396" y="1296"/>
      <point x="-320" y="1390"/>
      <point x="-307" y="1466" type="qcurve" smooth="yes"/>
      <point x="-305" y="1478" type="line" smooth="yes"/>
      <point x="-291" y="1559"/>
      <point x="-340" y="1650"/>
      <point x="-407" y="1650" type="qcurve" smooth="yes"/>
      <point x="-475" y="1650"/>
      <point x="-552" y="1555"/>
      <point x="-565" y="1478" type="qcurve" smooth="yes"/>
      <point x="-567" y="1466" type="line" smooth="yes"/>
      <point x="-580" y="1385"/>
      <point x="-530" y="1296"/>
    </contour>
  </outline>
</glyph>
<glyph name="uni1E9D" format="2">
  <advance width="739"/>
  <unicode hex="1E9D"/>
  <outline>
    <contour>
      <point x="322" y="0" type="line"/>
      <point x="114" y="0" type="line"/>
      <point x="311" y="1191" type="line" smooth="yes"/>
      <point x="340" y="1368"/>
      <point x="568" y="1558"/>
      <point x="740" y="1558" type="qcurve" smooth="yes"/>
      <point x="771" y="1558"/>
      <point x="836" y="1550"/>
      <point x="867" y="1544" type="qcurve"/>
      <point x="829" y="1378" type="line"/>
      <point x="787" y="1386"/>
      <point x="734" y="1386" type="qcurve" smooth="yes"/>
      <point x="648" y="1386"/>
      <point x="536" y="1286"/>
      <point x="520" y="1191" type="qcurve" smooth="yes"/>
    </contour>
    <contour>
      <point x="755" y="1251" type="line"/>
      <point x="729" y="1097" type="line"/>
      <point x="128" y="1097" type="line"/>
      <point x="154" y="1251" type="line"/>
    </contour>
  </outline>
</glyph>
<glyph name="uni1FC1" format="2">
  <advance width="896"/>
  <unicode hex="1FC1"/>
  <outline>
    <contour>
      <point x="780" y="1273" type="qcurve" smooth="yes"/>
      <point x="730" y="1273"/>
      <point x="673" y="1344"/>
      <point x="681" y="1392" type="qcurve" smooth="yes"/>
      <point x="689" y="1440"/>
      <point x="770" y="1510"/>
      <point x="819" y="1510" type="qcurve" smooth="yes"/>
      <point x="870" y="1510"/>
      <point x="927" y="1438"/>
      <point x="918" y="1390" type="qcurve" smooth="yes"/>
      <point x="909" y="1342"/>
      <point x="830" y="1273"/>
    </contour>
    <contour>
      <point x="360" y="1273" type="qcurve" smooth="yes"/>
      <point x="310" y="1273"/>
      <point x="253" y="1344"/>
      <point x="261" y="1392" type="qcurve" smooth="yes"/>
      <point x="269" y="1440"/>
      <point x="350" y="1510"/>
      <point x="399" y="1510" type="qcurve" smooth="yes"/>
      <point x="450" y="1510"/>
      <point x="507" y="1438"/>
      <point x="498" y="1390" type="qcurve" smooth="yes"/>
      <point x="489" y="1342"/>
      <point x="410" y="1273"/>
    </contour>
    <contour>
      <point x="767" y="1611" type="qcurve" smooth="yes"/>
      <point x="730" y="1611"/>
      <point x="663" y="1636"/>
      <point x="605" y="1669"/>
      <point x="557" y="1694"/>
      <point x="538" y="1694" type="qcurve" smooth="yes"/>
      <point x="510" y="1694"/>
      <point x="477" y="1643"/>
      <point x="471" y="1615" type="qcurve"/>
      <point x="345" y="1615" type="line"/>
      <point x="364" y="1707"/>
      <point x="463" y="1823"/>
      <point x="542" y="1823" type="qcurve" smooth="yes"/>
      <point x="581" y="1823"/>
      <point x="643" y="1797"/>
      <point x="696" y="1764"/>
      <point x="744" y="1738"/>
      <point x="769" y="1738" type="qcurve" smooth="yes"/>
      <point x="795" y="1738"/>
      <point x="826" y="1777"/>
      <point x="838" y="1819" type="qcurve"/>
      <point x="961" y="1819" type="line"/>
      <point x="942" y="1722"/>
      <point x="839" y="1611"/>
    </contour>
  </outline>
</glyph>
<glyph name="uni1FFE" format="2">
  <advance width="435"/>
  <unicode hex="1FFE"/>
  <outline>
    <contour>
      <point x="433" y="1255" type="line" smooth="yes"/>
      <point x="315" y="1255"/>
      <point x="209" y="1335"/>
      <point x="222" y="1415" type="qcurve" smooth="yes"/>
      <point x="235" y="1492"/>
      <point x="367" y="1568"/>
      <point x="485" y="1568" type="qcurve" smooth="yes"/>
      <point x="522" y="1568" type="line"/>
      <point x="504" y="1461" type="line"/>
      <point x="467" y="1461" type="line" smooth="yes"/>
      <point x="416" y="1461"/>
      <point x="360" y="1430"/>
      <point x="355" y="1399" type="qcurve" smooth="yes"/>
      <point x="349" y="1363"/>
      <point x="394" y="1327"/>
      <point x="445" y="1327" type="qcurve" smooth="yes"/>
      <point x="458" y="1327" type="line"/>
      <point x="446" y="1255" type="line"/>
    </contour>
  </outline>
</glyph>
<glyph name="uni203F" format="2">
  <advance width="1673"/>
  <unicode hex="203F"/>
  <outline>
    <contour>
      <point x="665" y="-483" type="qcurve" smooth="yes"/>
      <point x="470" y="-483"/>
      <point x="199" y="-411"/>
      <point x="15" y="-281"/>
      <point x="-50" y="-196" type="qcurve"/>
      <point x="77" y="-116" type="line"/>
      <point x="163" y="-183"/>
      <point x="453" y="-281"/>
      <point x="697" y="-281" type="qcurve" smooth="yes"/>
      <point x="857" y="-281"/>
      <point x="1116" y="-235"/>
      <point x="1320" y="-160"/>
      <point x="1397" y="-116" type="qcurve"/>
      <point x="1475" y="-196" type="line"/>
      <point x="1401" y="-273"/>
      <point x="1173" y="-404"/>
      <point x="863" y="-483"/>
    </contour>
  </outline>
</glyph>
<glyph name="fraction" format="2">
  <advance width="233"/>
  <unicode hex="2044"/>
  <outline>
    <contour>
      <point x="-573" y="0" type="line"/>
      <point x="698" y="1490" type="line"/>
      <point x="867" y="1490" type="line"/>
      <point x="-404" y="0" type="line"/>
    </contour>
  </outline>
</glyph>
<glyph name="zero.sups" format="2">
  <advance width="907"/>
  <unicode hex="2070"/>
  <outline>
    <contour>
      <point x="481" y="728" type="qcurve" smooth="yes"/>
      <point x="306" y="728"/>
      <point x="147" y="972"/>
      <point x="184" y="1191" type="qcurve" smooth="yes"/>
      <point x="222" y="1415"/>
      <point x="462" y="1650"/>
      <point x="631" y="1650" type="qcurve" smooth="yes"/>
      <point x="811" y="1650"/>
      <point x="969" y="1402"/>
      <point x="933" y="1190" type="qcurve" smooth="yes"/>
      <point x="896" y="973"/>
      <point x="657" y="728"/>
    </contour>
    <contour>
      <point x="497" y="862" type="qcurve" smooth="yes"/>
      <point x="596" y="862"/>
      <point x="740" y="1028"/>
      <point x="768" y="1196" type="qcurve" smooth="yes"/>
      <point x="795" y="1355"/>
      <point x="707" y="1518"/>
      <point x="612" y="1518" type="qcurve" smooth="yes"/>
      <point x="518" y="1518"/>
      <point x="377" y="1352"/>
      <point x="349" y="1191" type="qcurve" smooth="yes"/>
      <point x="322" y="1035"/>
      <point x="400" y="862"/>
    </contour>
  </outline>
</glyph>
<glyph name="nine.sups" format="2">
  <advance width="875"/>
  <unicode hex="2079"/>
  <outline>
    <contour>
      <point x="602" y="1652" type="qcurve" smooth="yes"/>
      <point x="677" y="1652"/>
      <point x="805" y="1602"/>
      <point x="894" y="1496"/>
      <point x="927" y="1328"/>
      <point x="907" y="1210" type="qcurve" smooth="yes"/>
      <point x="889" y="1104"/>
      <point x="811" y="929"/>
      <point x="694" y="802"/>
      <point x="543" y="734"/>
      <point x="453" y="734" type="qcurve" smooth="yes"/>
      <point x="320" y="734"/>
      <point x="162" y="881"/>
      <point x="166" y="993" type="qcurve"/>
      <point x="323" y="993" type="line"/>
      <point x="322" y="933"/>
      <point x="398" y="870"/>
      <point x="459" y="870" type="qcurve" smooth="yes"/>
      <point x="566" y="870"/>
      <point x="718" y="1041"/>
      <point x="748" y="1201" type="qcurve"/>
      <point x="738" y="1193" type="line"/>
      <point x="698" y="1132"/>
      <point x="556" y="1062"/>
      <point x="475" y="1062" type="qcurve" smooth="yes"/>
      <point x="384" y="1062"/>
      <point x="258" y="1140"/>
      <point x="202" y="1274"/>
      <point x="215" y="1359" type="qcurve" smooth="yes"/>
      <point x="228" y="1441"/>
      <point x="335" y="1574"/>
      <point x="501" y="1652"/>
    </contour>
    <contour>
      <point x="598" y="1526" type="qcurve" smooth="yes"/>
      <point x="541" y="1526"/>
      <point x="442" y="1476"/>
      <point x="377" y="1392"/>
      <point x="370" y="1341" type="qcurve" smooth="yes"/>
      <point x="360" y="1265"/>
      <point x="450" y="1180"/>
      <point x="523" y="1180" type="qcurve" smooth="yes"/>
      <point x="582" y="1180"/>
      <point x="684" y="1231"/>
      <point x="749" y="1313"/>
      <point x="754" y="1361" type="qcurve" smooth="yes"/>
      <point x="762" y="1440"/>
      <point x="673" y="1526"/>
    </contour>
  </outline>
</glyph>
<glyph name="parenright.sups" format="2">
  <advance width="524"/>
  <unicode hex="207E"/>
  <outline>
    <contour>
      <point x="484" y="1141" type="qcurve" smooth="yes"/>
      <point x="455" y="966"/>
      <point x="313" y="665"/>
      <point x="201" y="536" type="qcurve"/>
      <point x="48" y="536" type="line"/>
      <point x="108" y="605"/>
      <point x="217" y="804"/>
      <point x="300" y="1033"/>
      <point x="319" y="1146" type="qcurve" smooth="yes"/>
      <point x="338" y="1260"/>
      <point x="333" y="1490"/>
      <point x="290" y="1693"/>
      <point x="252" y="1765" type="qcurve"/>
      <point x="404" y="1765" type="line"/>
      <point x="473" y="1629"/>
      <point x="516" y="1329"/>
    </contour>
  </outline>
</glyph>
<glyph name="uni20A0" format="2">
  <advance width="1494"/>
  <unicode hex="20A0"/>
  <outline>
    <contour>
      <point x="609" y="611" type="qcurve"/>
      <point x="584" y="464" type="line"/>
      <point x="463" y="464"/>
      <point x="284" y="580"/>
      <point x="201" y="787"/>
      <point x="224" y="925" type="qcurve" smooth="yes"/>
      <point x="249" y="1075" type="line" smooth="yes"/>
      <point x="272" y="1213"/>
      <point x="423" y="1421"/>
      <point x="640" y="1536"/>
      <point x="762" y="1536" type="qcurve" smooth="yes"/>
      <point x="950" y="1536"/>
      <point x="1140" y="1349"/>
      <point x="1123" y="1163" type="qcurve"/>
      <point x="932" y="1163" type="line"/>
      <point x="941" y="1281"/>
      <point x="845" y="1389"/>
      <point x="739" y="1389" type="qcurve" smooth="yes"/>
      <point x="667" y="1389"/>
      <point x="541" y="1308"/>
      <point x="452" y="1168"/>
      <point x="437" y="1079" type="qcurve" smooth="yes"/>
      <point x="411" y="925" type="line" smooth="yes"/>
      <point x="396" y="836"/>
      <point x="439" y="694"/>
      <point x="539" y="611"/>
    </contour>
    <contour>
      <point x="1266" y="147" type="line"/>
      <point x="1240" y="-2" type="line"/>
      <point x="645" y="-2" type="line"/>
      <point x="670" y="147" type="line"/>
    </contour>
    <contour>
      <point x="865" y="1036" type="line"/>
      <point x="693" y="-2" type="line"/>
      <point x="506" y="-2" type="line"/>
      <point x="678" y="1036" type="line"/>
    </contour>
    <contour>
      <point x="1264" y="611" type="line"/>
      <point x="1239" y="464" type="line"/>
      <point x="722" y="464" type="line"/>
      <point x="747" y="611" type="line"/>
    </contour>
    <contour>
      <point x="1412" y="1036" type="line"/>
      <point x="1389" y="887" type="line"/>
      <point x="791" y="887" type="line"/>
      <point x="817" y="1036" type="line"/>
    </contour>
  </outline>
</glyph>
<glyph name="lira" format="2">
  <advance width="1243"/>
  <unicode hex="20A4"/>
  <outline>
    <contour>
      <point x="37" y="112" type="qcurve"/>
      <point x="44" y="160" type="line"/>
      <point x="124" y="160"/>
      <point x="226" y="253"/>
      <point x="241" y="362" type="qcurve" smooth="yes"/>
      <point x="334" y="1054" type="line" smooth="yes"/>
      <point x="352" y="1188"/>
      <point x="491" y="1394"/>
      <point x="708" y="1510"/>
      <point x="844" y="1510" type="qcurve" smooth="yes"/>
      <point x="958" y="1510"/>
      <point x="1131" y="1417"/>
      <point x="1228" y="1251"/>
      <point x="1227" y="1140" type="qcurve"/>
      <point x="1059" y="1114" type="line"/>
      <point x="1058" y="1224"/>
      <point x="941" y="1350"/>
      <point x="833" y="1350" type="qcurve" smooth="yes"/>
      <point x="744" y="1350"/>
      <point x="605" y="1279"/>
      <point x="517" y="1148"/>
      <point x="505" y="1058" type="qcurve" smooth="yes"/>
      <point x="412" y="366" type="line" smooth="yes"/>
      <point x="403" y="300"/>
      <point x="338" y="210"/>
      <point x="247" y="153"/>
      <point x="149" y="123"/>
      <point x="63" y="112"/>
    </contour>
    <contour>
      <point x="99" y="492" type="line"/>
      <point x="121" y="624" type="line"/>
      <point x="931" y="624" type="line"/>
      <point x="909" y="492" type="line"/>
    </contour>
    <contour>
      <point x="149" y="794" type="line"/>
      <point x="171" y="926" type="line"/>
      <point x="981" y="926" type="line"/>
      <point x="959" y="794" type="line"/>
    </contour>
    <contour>
      <point x="21" y="0" type="line"/>
      <point x="44" y="160" type="line"/>
      <point x="1088" y="160" type="line"/>
      <point x="1065" y="0" type="line"/>
    </contour>
  </outline>
</glyph>
<glyph name="uni20A6" format="2">
  <advance width="1576"/>
  <unicode hex="20A6"/>
  <anchor x="797" y="0" name="m.uni0326"/>
  <anchor x="1044" y="1490" name="m.uni030F_1"/>
  <outline>
    <contour>
      <point x="1594" y="946" type="line"/>
      <point x="1570" y="800" type="line"/>
      <point x="88" y="800" type="line"/>
      <point x="110" y="946" type="line"/>
    </contour>
    <contour>
      <point x="1542" y="632" type="line"/>
      <point x="1518" y="486" type="line"/>
      <point x="34" y="486" type="line"/>
      <point x="58" y="632" type="line"/>
    </contour>
    <contour>
      <point x="105" y="0" type="line"/>
      <point x="352" y="1490" type="line"/>
      <point x="570" y="1490" type="line"/>
      <point x="1018" y="537" type="line" smooth="yes"/>
      <point x="1032" y="507"/>
      <point x="1081" y="394"/>
      <point x="1138" y="243"/>
      <point x="1164" y="155" type="qcurve"/>
      <point x="1143" y="155" type="line"/>
      <point x="1148" y="241"/>
      <point x="1166" y="396"/>
      <point x="1186" y="528"/>
      <point x="1194" y="576" type="qcurve" smooth="yes"/>
      <point x="1345" y="1490" type="line"/>
      <point x="1535" y="1490" type="line"/>
      <point x="1288" y="0" type="line"/>
      <point x="1069" y="0" type="line"/>
      <point x="669" y="848" type="line" smooth="yes"/>
      <point x="644" y="902"/>
      <point x="591" y="1025"/>
      <point x="522" y="1199"/>
      <point x="470" y="1329" type="qcurve"/>
      <point x="498" y="1329" type="line"/>
      <point x="483" y="1208"/>
      <point x="460" y="1022"/>
      <point x="443" y="890"/>
      <point x="436" y="850" type="qcurve" smooth="yes"/>
      <point x="296" y="0" type="line"/>
    </contour>
  </outline>
</glyph>
<glyph name="peseta" format="2">
  <advance width="2317"/>
  <unicode hex="20A7"/>
  <outline>
    <contour>
      <point x="555" y="589" type="qcurve" smooth="yes"/>
      <point x="330" y="589" type="line"/>
      <point x="358" y="756" type="line"/>
      <point x="582" y="756" type="line" smooth="yes"/>
      <point x="693" y="756"/>
      <point x="826" y="836"/>
      <point x="893" y="966"/>
      <point x="904" y="1037" type="qcurve"/>
      <point x="917" y="1109"/>
      <point x="893" y="1239"/>
      <point x="787" y="1323"/>
      <point x="677" y="1323" type="qcurve" smooth="yes"/>
      <point x="497" y="1323" type="line"/>
      <point x="278" y="0" type="line"/>
      <point x="88" y="0" type="line"/>
      <point x="334" y="1490" type="line"/>
      <point x="706" y="1490" type="line" smooth="yes"/>
      <point x="873" y="1490"/>
      <point x="1059" y="1372"/>
      <point x="1120" y="1169"/>
      <point x="1098" y="1041" type="qcurve"/>
      <point x="1078" y="911"/>
      <point x="949" y="706"/>
      <point x="722" y="589"/>
    </contour>
    <contour>
      <point x="2259" y="861" type="qcurve"/>
      <point x="2090" y="821" type="line"/>
      <point x="2087" y="846"/>
      <point x="2065" y="912"/>
      <point x="2005" y="961"/>
      <point x="1943" y="961" type="qcurve" smooth="yes"/>
      <point x="1864" y="961"/>
      <point x="1759" y="880"/>
      <point x="1748" y="817" type="qcurve" smooth="yes"/>
      <point x="1741" y="778"/>
      <point x="1755" y="713"/>
      <point x="1805" y="665"/>
      <point x="1853" y="650" type="qcurve" smooth="yes"/>
      <point x="1989" y="609" type="line" smooth="yes"/>
      <point x="2048" y="591"/>
      <point x="2129" y="531"/>
      <point x="2174" y="452"/>
      <point x="2188" y="359"/>
      <point x="2179" y="308" type="qcurve" smooth="yes"/>
      <point x="2168" y="242"/>
      <point x="2103" y="122"/>
      <point x="1997" y="29"/>
      <point x="1854" y="-24"/>
      <point x="1764" y="-24" type="qcurve" smooth="yes"/>
      <point x="1654" y="-24"/>
      <point x="1518" y="58"/>
      <point x="1450" y="189"/>
      <point x="1440" y="263" type="qcurve"/>
      <point x="1610" y="321" type="line"/>
      <point x="1618" y="270"/>
      <point x="1656" y="191"/>
      <point x="1730" y="145"/>
      <point x="1790" y="145" type="qcurve" smooth="yes"/>
      <point x="1852" y="145"/>
      <point x="1940" y="185"/>
      <point x="1993" y="257"/>
      <point x="2001" y="303" type="qcurve" smooth="yes"/>
      <point x="2009" y="347"/>
      <point x="1996" y="403"/>
      <point x="1953" y="437"/>
      <point x="1916" y="448" type="qcurve" smooth="yes"/>
      <point x="1769" y="494" type="line" smooth="yes"/>
      <point x="1693" y="518"/>
      <point x="1595" y="610"/>
      <point x="1557" y="735"/>
      <point x="1569" y="807" type="qcurve" smooth="yes"/>
      <point x="1585" y="900"/>
      <point x="1701" y="1047"/>
      <point x="1874" y="1132"/>
      <point x="1975" y="1132" type="qcurve" smooth="yes"/>
      <point x="2103" y="1132"/>
      <point x="2243" y="987"/>
    </contour>
    <contour>
      <point x="1675" y="1118" type="line"/>
      <point x="1646" y="953" type="line"/>
      <point x="1064" y="953" type="line"/>
      <point x="1091" y="1118" type="line"/>
    </contour>
    <contour>
      <point x="1294" y="1356" type="line"/>
      <point x="1477" y="1356" type="line"/>
      <point x="1305" y="322" type="line"/>
      <point x="1294" y="252"/>
      <point x="1325" y="181"/>
      <point x="1388" y="158"/>
      <point x="1425" y="158" type="qcurve" smooth="yes"/>
      <point x="1453" y="158"/>
      <point x="1488" y="164"/>
      <point x="1501" y="167" type="qcurve"/>
      <point x="1513" y="7" type="line"/>
      <point x="1491" y="0"/>
      <point x="1422" y="-14"/>
      <point x="1372" y="-14" type="qcurve" smooth="yes"/>
      <point x="1299" y="-14"/>
      <point x="1171" y="50"/>
      <point x="1103" y="179"/>
      <point x="1119" y="276" type="qcurve" smooth="yes"/>
    </contour>
  </outline>
</glyph>
<glyph name="uni20B0" format="2">
  <advance width="1301"/>
  <unicode hex="20B0"/>
  <outline>
    <contour>
      <point x="-20" y="0" type="line"/>
      <point x="425" y="642" type="line"/>
      <point x="616" y="321" type="line"/>
      <point x="792" y="577" type="line"/>
      <point x="889" y="721"/>
      <point x="1021" y="924"/>
      <point x="1103" y="1070"/>
      <point x="1146" y="1179"/>
      <point x="1153" y="1228" type="qcurve" smooth="yes"/>
      <point x="1165" y="1306"/>
      <point x="1101" y="1394"/>
      <point x="1040" y="1394" type="qcurve" smooth="yes"/>
      <point x="977" y="1394"/>
      <point x="882" y="1306"/>
      <point x="868" y="1226" type="qcurve" smooth="yes"/>
      <point x="855" y="1147"/>
      <point x="883" y="969"/>
      <point x="896" y="894" type="qcurve" smooth="yes"/>
      <point x="1022" y="156" type="line" smooth="yes"/>
      <point x="1037" y="68"/>
      <point x="1050" y="-62"/>
      <point x="1049" y="-159"/>
      <point x="1042" y="-198" type="qcurve" smooth="yes"/>
      <point x="1025" y="-301"/>
      <point x="840" y="-436"/>
      <point x="697" y="-436" type="qcurve" smooth="yes"/>
      <point x="630" y="-436"/>
      <point x="538" y="-415"/>
      <point x="491" y="-396" type="qcurve"/>
      <point x="518" y="-232" type="line"/>
      <point x="572" y="-257"/>
      <point x="671" y="-270"/>
      <point x="707" y="-270" type="qcurve" smooth="yes"/>
      <point x="761" y="-270"/>
      <point x="831" y="-212"/>
      <point x="838" y="-163" type="qcurve" smooth="yes"/>
      <point x="846" y="-110"/>
      <point x="840" y="0"/>
      <point x="832" y="44" type="qcurve" smooth="yes"/>
      <point x="696" y="850" type="line" smooth="yes"/>
      <point x="687" y="907"/>
      <point x="670" y="1023"/>
      <point x="668" y="1152"/>
      <point x="680" y="1227" type="qcurve" smooth="yes"/>
      <point x="695" y="1318"/>
      <point x="792" y="1469"/>
      <point x="954" y="1560"/>
      <point x="1067" y="1560" type="qcurve" smooth="yes"/>
      <point x="1187" y="1560"/>
      <point x="1315" y="1466"/>
      <point x="1354" y="1315"/>
      <point x="1339" y="1228" type="qcurve" smooth="yes"/>
      <point x="1324" y="1141"/>
      <point x="1227" y="935"/>
      <point x="1049" y="654"/>
      <point x="777" y="258"/>
      <point x="588" y="-20" type="qcurve"/>
      <point x="399" y="314" type="line"/>
      <point x="185" y="0" type="line"/>
    </contour>
  </outline>
</glyph>
<glyph name="uni20B1" format="2">
  <advance width="1361"/>
  <unicode hex="20B1"/>
  <outline>
    <contour>
      <point x="124" y="0" type="line"/>
      <point x="371" y="1490" type="line"/>
      <point x="816" y="1490" type="line" smooth="yes"/>
      <point x="1085" y="1490"/>
      <point x="1283" y="1229"/>
      <point x="1236" y="948" type="qcurve" smooth="yes"/>
      <point x="1205" y="761"/>
      <point x="1058" y="523"/>
      <point x="815" y="411"/>
      <point x="639" y="411" type="qcurve" smooth="yes"/>
      <point x="343" y="411" type="line"/>
      <point x="370" y="577" type="line"/>
      <point x="674" y="577" type="line" smooth="yes"/>
      <point x="795" y="577"/>
      <point x="943" y="648"/>
      <point x="1025" y="812"/>
      <point x="1048" y="949" type="qcurve" smooth="yes"/>
      <point x="1072" y="1090"/>
      <point x="1042" y="1253"/>
      <point x="916" y="1323"/>
      <point x="796" y="1323" type="qcurve" smooth="yes"/>
      <point x="534" y="1323" type="line"/>
      <point x="315" y="0" type="line"/>
    </contour>
    <contour>
      <point x="98" y="728" type="line"/>
      <point x="122" y="874" type="line"/>
      <point x="1363" y="874" type="line"/>
      <point x="1339" y="728" type="line"/>
    </contour>
    <contour>
      <point x="148" y="1028" type="line"/>
      <point x="172" y="1174" type="line"/>
      <point x="1413" y="1174" type="line"/>
      <point x="1389" y="1028" type="line"/>
    </contour>
  </outline>
</glyph>
<glyph name="uni2116" format="2">
  <advance width="2237"/>
  <unicode hex="2116"/>
  <outline>
    <contour>
      <point x="88" y="0" type="line"/>
      <point x="334" y="1490" type="line"/>
      <point x="516" y="1490" type="line"/>
      <point x="992" y="355" type="line"/>
      <point x="1006" y="355" type="line"/>
      <point x="1193" y="1490" type="line"/>
      <point x="1377" y="1490" type="line"/>
      <point x="1129" y="0" type="line"/>
      <point x="949" y="0" type="line"/>
      <point x="476" y="1126" type="line"/>
      <point x="461" y="1126" type="line"/>
      <point x="274" y="0" type="line"/>
    </contour>
    <contour>
      <point x="1390" y="449" type="line"/>
      <point x="1414" y="600" type="line"/>
      <point x="2049" y="600" type="line"/>
      <point x="2024" y="449" type="line"/>
    </contour>
    <contour>
      <point x="1754" y="728" type="qcurve" smooth="yes"/>
      <point x="1646" y="728"/>
      <point x="1502" y="814"/>
      <point x="1443" y="968"/>
      <point x="1460" y="1071" type="qcurve" smooth="yes"/>
      <point x="1477" y="1168" type="line"/>
      <point x="1494" y="1272"/>
      <point x="1604" y="1426"/>
      <point x="1773" y="1512"/>
      <point x="1878" y="1512" type="qcurve" smooth="yes"/>
      <point x="1986" y="1512"/>
      <point x="2129" y="1426"/>
      <point x="2188" y="1272"/>
      <point x="2171" y="1168" type="qcurve"/>
      <point x="2153" y="1071" type="line"/>
      <point x="2136" y="968"/>
      <point x="2027" y="814"/>
      <point x="1860" y="728"/>
    </contour>
    <contour>
      <point x="1777" y="874" type="qcurve" smooth="yes"/>
      <point x="1860" y="874"/>
      <point x="1961" y="981"/>
      <point x="1977" y="1071" type="qcurve"/>
      <point x="1992" y="1168" type="line" smooth="yes"/>
      <point x="2006" y="1256"/>
      <point x="1941" y="1361"/>
      <point x="1856" y="1361" type="qcurve" smooth="yes"/>
      <point x="1769" y="1361"/>
      <point x="1667" y="1254"/>
      <point x="1654" y="1168" type="qcurve"/>
      <point x="1636" y="1071" type="line"/>
      <point x="1620" y="978"/>
      <point x="1692" y="874"/>
    </contour>
  </outline>
</glyph>
<glyph name="estimated" format="2">
  <advance width="1294"/>
  <unicode hex="212E"/>
  <outline>
    <contour>
      <point x="970" y="198" type="qcurve"/>
      <point x="956" y="94" type="line"/>
      <point x="863" y="40"/>
      <point x="663" y="-20"/>
      <point x="565" y="-20" type="qcurve" smooth="yes"/>
      <point x="419" y="-20"/>
      <point x="205" y="133"/>
      <point x="108" y="389"/>
      <point x="134" y="543" type="qcurve" smooth="yes"/>
      <point x="154" y="659"/>
      <point x="277" y="861"/>
      <point x="453" y="1015"/>
      <point x="654" y="1102"/>
      <point x="751" y="1102" type="qcurve" smooth="yes"/>
      <point x="888" y="1102"/>
      <point x="1068" y="962"/>
      <point x="1156" y="718"/>
      <point x="1156" y="562" type="qcurve" smooth="yes"/>
      <point x="1156" y="559"/>
      <point x="1156" y="542"/>
      <point x="1152" y="514" type="qcurve"/>
      <point x="382" y="514" type="line"/>
      <point x="326" y="186" type="line"/>
      <point x="374" y="134"/>
      <point x="507" y="76"/>
      <point x="583" y="76" type="qcurve" smooth="yes"/>
      <point x="678" y="76"/>
      <point x="873" y="135"/>
    </contour>
    <contour>
      <point x="737" y="1010" type="qcurve"/>
      <point x="663" y="1009"/>
      <point x="508" y="942"/>
      <point x="443" y="888" type="qcurve"/>
      <point x="396" y="608" type="line"/>
      <point x="938" y="608" type="line"/>
      <point x="986" y="896" type="line"/>
      <point x="942" y="949"/>
      <point x="814" y="1009"/>
    </contour>
  </outline>
</glyph>
